<svg width="221" height="44" viewBox="0 0 221 44" fill="none" xmlns="http://www.w3.org/2000/svg">
<rect width="221" height="44" rx="10" fill="white"/>
<g clip-path="url(#clip0_4281_6119)">
<path d="M12.6665 6C8.9925 6 6 8.9925 6 12.6665C6 15.884 8.29525 18.5793 11.3335 19.199V28.6665C11.3335 31.609 13.7535 34 16.6665 34H16.7153C17.0407 36.2558 18.9902 38 21.3335 38C23.903 38 26 35.903 26 33.3335C26 30.764 23.903 28.6665 21.3335 28.6665C18.9905 28.6665 17.041 30.4108 16.7153 32.6665H16.6665C14.4823 32.6665 12.6665 30.8785 12.6665 28.6665V21.9447C13.098 22.385 13.613 22.7346 14.1814 22.9731C14.7498 23.2115 15.3601 23.3341 15.9765 23.3335H16.7153C17.041 25.5892 18.9902 27.3335 21.3335 27.3335C23.6765 27.3335 25.6258 25.5892 25.951 23.3335H28.7153C29.041 25.5892 30.9902 27.3335 33.3335 27.3335C35.903 27.3335 38 25.236 38 22.6665C38 20.097 35.903 18 33.3335 18C30.9902 18 29.0408 19.7443 28.7153 22H25.9513C25.626 19.7443 23.6768 18 21.3335 18C18.9902 18 17.0407 19.7443 16.7153 22H15.9765C14.3682 22 13.0282 20.8527 12.7295 19.332C16.3745 19.298 19.3335 16.3195 19.3335 12.6665C19.3335 8.9925 16.3405 6 12.6665 6ZM12.6665 7.3335C13.3673 7.33212 14.0614 7.46911 14.7091 7.73662C15.3567 8.00413 15.9452 8.3969 16.4408 8.89238C16.9363 9.38787 17.3291 9.97632 17.5967 10.624C17.8643 11.2716 18.0013 11.9657 18 12.6665C18.0013 13.3673 17.8643 14.0614 17.5967 14.7091C17.3291 15.3568 16.9363 15.9453 16.4408 16.4408C15.9453 16.9363 15.3568 17.3291 14.7091 17.5967C14.0614 17.8643 13.3673 18.0013 12.6665 18C11.9657 18.0013 11.2716 17.8643 10.624 17.5967C9.97632 17.3291 9.38787 16.9363 8.89238 16.4408C8.3969 15.9452 8.00413 15.3567 7.73662 14.7091C7.46911 14.0614 7.33212 13.3673 7.3335 12.6665C7.33212 11.9658 7.46911 11.2717 7.73663 10.624C8.00415 9.97636 8.39692 9.3879 8.89241 8.89241C9.3879 8.39692 9.97636 8.00415 10.624 7.73663C11.2717 7.46911 11.9658 7.33212 12.6665 7.3335ZM11.3628 9.21875C10.6675 9.22225 10 9.78075 10 10.5415V14.8022C10 15.813 11.1773 16.468 12.0363 15.9355L15.4447 13.8218C16.259 13.3168 16.2633 12.0713 15.4528 11.5605L12.044 9.413C11.8403 9.28423 11.6038 9.21679 11.3628 9.21875ZM11.3335 10.5415L14.7423 12.6885L11.3335 14.8022V10.5415ZM21.3335 19.3335C21.7716 19.3321 22.2056 19.4174 22.6106 19.5844C23.0156 19.7514 23.3836 19.9968 23.6934 20.3066C24.0032 20.6164 24.2486 20.9844 24.4156 21.3894C24.5826 21.7944 24.6679 22.2284 24.6665 22.6665C24.6679 23.1046 24.5826 23.5386 24.4156 23.9437C24.2485 24.3487 24.0031 24.7167 23.6933 25.0265C23.3836 25.3363 23.0156 25.5818 22.6106 25.7489C22.2056 25.9159 21.7716 26.0013 21.3335 26C20.8954 26.0013 20.4613 25.916 20.0563 25.7489C19.6512 25.5819 19.2832 25.3364 18.9734 25.0266C18.6636 24.7168 18.4181 24.3488 18.2511 23.9437C18.084 23.5387 17.9987 23.1046 18 22.6665C17.9987 22.2284 18.0841 21.7944 18.2511 21.3894C18.4182 20.9844 18.6637 20.6164 18.9735 20.3067C19.2833 19.9969 19.6513 19.7515 20.0563 19.5844C20.4614 19.4174 20.8954 19.3321 21.3335 19.3335ZM33.3335 19.3335C33.7716 19.3321 34.2056 19.4174 34.6106 19.5844C35.0156 19.7514 35.3836 19.9968 35.6934 20.3066C36.0032 20.6164 36.2486 20.9844 36.4156 21.3894C36.5826 21.7944 36.6679 22.2284 36.6665 22.6665C36.6679 23.1046 36.5826 23.5386 36.4156 23.9437C36.2485 24.3487 36.0031 24.7167 35.6933 25.0265C35.3836 25.3363 35.0156 25.5818 34.6106 25.7489C34.2056 25.9159 33.7716 26.0013 33.3335 26C32.8954 26.0013 32.4613 25.916 32.0563 25.7489C31.6512 25.5819 31.2832 25.3364 30.9734 25.0266C30.6636 24.7168 30.4181 24.3488 30.2511 23.9437C30.084 23.5387 29.9987 23.1046 30 22.6665C29.9987 22.2284 30.0841 21.7944 30.2511 21.3894C30.4182 20.9844 30.6637 20.6164 30.9735 20.3067C31.2833 19.9969 31.6513 19.7515 32.0563 19.5844C32.4614 19.4174 32.8954 19.3321 33.3335 19.3335ZM22.6915 21.0712C22.6039 21.0712 22.5172 21.0884 22.4362 21.1218C22.3553 21.1553 22.2817 21.2044 22.2197 21.2662L20.6447 22.8398L20.1215 22.3188C19.9963 22.194 19.8266 22.124 19.6498 22.1243C19.473 22.1246 19.3036 22.1951 19.1788 22.3202C19.117 22.3823 19.068 22.4559 19.0346 22.5369C19.0013 22.6179 18.9842 22.7046 18.9844 22.7922C18.9846 22.8797 19.002 22.9664 19.0357 23.0472C19.0694 23.1281 19.1187 23.2015 19.1807 23.2633L20.1742 24.2533C20.2993 24.3778 20.4686 24.4477 20.6451 24.4477C20.8215 24.4477 20.9908 24.3776 21.1158 24.253L23.162 22.2095C23.224 22.1476 23.2731 22.0741 23.3067 21.9933C23.3402 21.9124 23.3575 21.8257 23.3576 21.7381C23.3576 21.6505 23.3404 21.5638 23.3069 21.4829C23.2735 21.402 23.2244 21.3284 23.1625 21.2665C23.0375 21.1417 22.8681 21.0713 22.6915 21.0712ZM34.6915 21.0712C34.6039 21.0712 34.5172 21.0884 34.4362 21.1218C34.3553 21.1553 34.2817 21.2044 34.2198 21.2662L32.6448 22.8398L32.1215 22.3188C31.9963 22.194 31.8266 22.124 31.6498 22.1243C31.473 22.1246 31.3036 22.1951 31.1787 22.3202C31.117 22.3823 31.068 22.4559 31.0347 22.5369C31.0013 22.6179 30.9842 22.7046 30.9844 22.7922C30.9846 22.8797 31.002 22.9664 31.0357 23.0472C31.0694 23.1281 31.1187 23.2015 31.1807 23.2633L32.1742 24.2533C32.2993 24.3778 32.4686 24.4477 32.6451 24.4477C32.8215 24.4477 32.9908 24.3776 33.1158 24.253L35.162 22.2095C35.224 22.1476 35.2731 22.0741 35.3067 21.9933C35.3402 21.9124 35.3575 21.8257 35.3576 21.7381C35.3576 21.6505 35.3404 21.5638 35.3069 21.4829C35.2735 21.402 35.2244 21.3284 35.1625 21.2665C35.0375 21.1417 34.8681 21.0713 34.6915 21.0712ZM21.3335 30C21.7716 29.9987 22.2056 30.0841 22.6106 30.2511C23.0156 30.4182 23.3836 30.6637 23.6933 30.9735C24.0031 31.2833 24.2485 31.6513 24.4156 32.0563C24.5826 32.4614 24.6679 32.8954 24.6665 33.3335C24.6679 33.7716 24.5826 34.2056 24.4156 34.6106C24.2486 35.0156 24.0032 35.3836 23.6934 35.6934C23.3836 36.0032 23.0156 36.2486 22.6106 36.4156C22.2056 36.5826 21.7716 36.6679 21.3335 36.6665C20.8954 36.6679 20.4614 36.5826 20.0563 36.4156C19.6513 36.2485 19.2833 36.0031 18.9735 35.6933C18.6637 35.3836 18.4182 35.0156 18.2511 34.6106C18.0841 34.2056 17.9987 33.7716 18 33.3335C17.9987 32.8954 18.084 32.4613 18.2511 32.0563C18.4181 31.6512 18.6636 31.2832 18.9734 30.9734C19.2832 30.6636 19.6512 30.4181 20.0563 30.2511C20.4613 30.084 20.8954 29.9987 21.3335 30ZM20 32.3335C19.4517 32.3335 19 32.7852 19 33.3335C19 33.8822 19.452 34.3335 20 34.3335C20.548 34.3335 21 33.8822 21 33.3335C21 32.7852 20.5483 32.3335 20 32.3335ZM22.6665 32.3335C22.1183 32.3335 21.6665 32.7852 21.6665 33.3335C21.6665 33.8822 22.1185 34.3335 22.6665 34.3335C23.2145 34.3335 23.6665 33.8822 23.6665 33.3335C23.6665 32.7852 23.2148 32.3335 22.6665 32.3335ZM20 33C20.1875 33 20.3335 33.1462 20.3335 33.3335C20.3335 33.5217 20.1877 33.6665 20 33.6665C19.8125 33.6665 19.6665 33.5215 19.6665 33.3335C19.6665 33.146 19.8127 33 20 33ZM22.6665 33C22.854 33 23 33.1462 23 33.3335C23 33.5217 22.8543 33.6665 22.6665 33.6665C22.479 33.6665 22.3335 33.5215 22.3335 33.3335C22.3335 33.146 22.4793 33 22.6665 33Z" fill="#16559C"/>
<path d="M33.3335 28.6665C30.9877 28.6665 29.0365 30.4148 28.7142 32.6743C28.6922 32.6722 28.6701 32.6713 28.648 32.6715L27.973 32.694C27.7963 32.6998 27.6292 32.7755 27.5084 32.9045C27.3875 33.0334 27.3228 33.2051 27.3285 33.3818C27.3343 33.5584 27.41 33.7256 27.539 33.8464C27.668 33.9673 27.8398 34.032 28.0165 34.0263L28.6915 34.0045C28.6996 34.0042 28.7076 34.0037 28.7157 34.003C29.0425 36.2573 30.9912 38 33.3335 38C35.903 38 38 35.903 38 33.3335C38 30.764 35.903 28.6665 33.3335 28.6665ZM33.3335 30C33.7716 29.9987 34.2056 30.0841 34.6106 30.2511C35.0156 30.4182 35.3835 30.6637 35.6933 30.9735C36.0031 31.2833 36.2485 31.6513 36.4155 32.0563C36.5825 32.4614 36.6678 32.8954 36.6665 33.3335C36.6679 33.7716 36.5826 34.2056 36.4156 34.6106C36.2486 35.0156 36.0031 35.3836 35.6933 35.6934C35.3836 36.0032 35.0156 36.2486 34.6106 36.4156C34.2056 36.5826 33.7716 36.6679 33.3335 36.6665C32.8954 36.6679 32.4613 36.5826 32.0563 36.4156C31.6513 36.2485 31.2833 36.0031 30.9735 35.6933C30.6637 35.3836 30.4182 35.0156 30.2511 34.6106C30.084 34.2056 29.9987 33.7716 30 33.3335C29.9986 32.8954 30.084 32.4613 30.251 32.0563C30.4181 31.6512 30.6636 31.2832 30.9734 30.9734C31.2832 30.6636 31.6512 30.4181 32.0562 30.2511C32.4613 30.084 32.8953 29.9987 33.3335 30Z" fill="#94C3F9"/>
</g>
<path d="M50.092 18.26C50.2973 18.3627 50.414 18.5213 50.442 18.736C50.4793 18.9507 50.428 19.1467 50.288 19.324C50.1853 19.464 50.05 19.5433 49.882 19.562C49.7233 19.5807 49.5647 19.548 49.406 19.464C49.1353 19.324 48.8507 19.212 48.552 19.128C48.2533 19.044 47.936 19.002 47.6 19.002C47.068 19.002 46.5873 19.0907 46.158 19.268C45.738 19.436 45.374 19.6833 45.066 20.01C44.758 20.3273 44.52 20.7053 44.352 21.144C44.1933 21.5827 44.114 22.068 44.114 22.6C44.114 23.188 44.2027 23.7107 44.38 24.168C44.5573 24.616 44.8 24.9987 45.108 25.316C45.4253 25.624 45.794 25.8573 46.214 26.016C46.6433 26.1653 47.1053 26.24 47.6 26.24C47.9173 26.24 48.2253 26.2027 48.524 26.128C48.832 26.0533 49.1213 25.9413 49.392 25.792C49.56 25.708 49.7233 25.68 49.882 25.708C50.05 25.7267 50.1853 25.806 50.288 25.946C50.4467 26.142 50.5027 26.3427 50.456 26.548C50.4187 26.744 50.302 26.8933 50.106 26.996C49.8727 27.1267 49.616 27.2387 49.336 27.332C49.056 27.4253 48.7713 27.5 48.482 27.556C48.1927 27.612 47.8987 27.64 47.6 27.64C46.928 27.64 46.2933 27.528 45.696 27.304C45.0987 27.08 44.5667 26.7533 44.1 26.324C43.6333 25.8947 43.2647 25.3673 42.994 24.742C42.7327 24.1167 42.602 23.4027 42.602 22.6C42.602 21.8813 42.7233 21.2187 42.966 20.612C43.218 19.996 43.568 19.4687 44.016 19.03C44.4733 18.582 45.0053 18.2367 45.612 17.994C46.2187 17.742 46.8813 17.616 47.6 17.616C48.048 17.616 48.482 17.672 48.902 17.784C49.3313 17.896 49.728 18.0547 50.092 18.26ZM53.5044 26.786C53.4951 26.9913 53.4157 27.164 53.2664 27.304C53.1264 27.4347 52.9584 27.5 52.7624 27.5C52.5477 27.5 52.3704 27.4347 52.2304 27.304C52.0997 27.164 52.0344 26.9913 52.0344 26.786V18.414C52.0344 18.2087 52.1044 18.0407 52.2444 17.91C52.3844 17.77 52.5664 17.7 52.7904 17.7C52.9771 17.7 53.1404 17.77 53.2804 17.91C53.4297 18.0407 53.5044 18.2087 53.5044 18.414V26.786ZM55.5848 29.348C55.4448 29.348 55.3048 29.292 55.1648 29.18C55.0248 29.068 54.9548 28.928 54.9548 28.76C54.9548 28.6573 54.9828 28.5593 55.0388 28.466L60.8488 16.692C60.9141 16.5613 60.9935 16.4633 61.0868 16.398C61.1895 16.3327 61.3015 16.3 61.4228 16.3C61.5535 16.3 61.6841 16.3513 61.8148 16.454C61.9548 16.5567 62.0248 16.7013 62.0248 16.888C62.0248 16.9907 62.0015 17.0933 61.9548 17.196L56.1448 28.97C56.0795 29.0913 56.0001 29.1847 55.9068 29.25C55.8135 29.3153 55.7061 29.348 55.5848 29.348ZM70.4631 18.26C70.6684 18.3627 70.7851 18.5213 70.8131 18.736C70.8504 18.9507 70.7991 19.1467 70.6591 19.324C70.5564 19.464 70.4211 19.5433 70.2531 19.562C70.0944 19.5807 69.9358 19.548 69.7771 19.464C69.5064 19.324 69.2218 19.212 68.9231 19.128C68.6244 19.044 68.3071 19.002 67.9711 19.002C67.4391 19.002 66.9584 19.0907 66.5291 19.268C66.1091 19.436 65.7451 19.6833 65.4371 20.01C65.1291 20.3273 64.8911 20.7053 64.7231 21.144C64.5644 21.5827 64.4851 22.068 64.4851 22.6C64.4851 23.188 64.5738 23.7107 64.7511 24.168C64.9284 24.616 65.1711 24.9987 65.4791 25.316C65.7964 25.624 66.1651 25.8573 66.5851 26.016C67.0144 26.1653 67.4764 26.24 67.9711 26.24C68.2884 26.24 68.5964 26.2027 68.8951 26.128C69.2031 26.0533 69.4924 25.9413 69.7631 25.792C69.9311 25.708 70.0944 25.68 70.2531 25.708C70.4211 25.7267 70.5564 25.806 70.6591 25.946C70.8178 26.142 70.8738 26.3427 70.8271 26.548C70.7898 26.744 70.6731 26.8933 70.4771 26.996C70.2438 27.1267 69.9871 27.2387 69.7071 27.332C69.4271 27.4253 69.1424 27.5 68.8531 27.556C68.5638 27.612 68.2698 27.64 67.9711 27.64C67.2991 27.64 66.6644 27.528 66.0671 27.304C65.4698 27.08 64.9378 26.7533 64.4711 26.324C64.0044 25.8947 63.6358 25.3673 63.3651 24.742C63.1038 24.1167 62.9731 23.4027 62.9731 22.6C62.9731 21.8813 63.0944 21.2187 63.3371 20.612C63.5891 19.996 63.9391 19.4687 64.3871 19.03C64.8444 18.582 65.3764 18.2367 65.9831 17.994C66.5898 17.742 67.2524 17.616 67.9711 17.616C68.4191 17.616 68.8531 17.672 69.2731 17.784C69.7024 17.896 70.0991 18.0547 70.4631 18.26ZM76.5355 17.7C77.2168 17.7 77.8188 17.8307 78.3415 18.092C78.8642 18.344 79.2982 18.6987 79.6435 19.156C79.9982 19.604 80.2642 20.1267 80.4415 20.724C80.6188 21.312 80.7075 21.9373 80.7075 22.6C80.7075 23.5053 80.5488 24.3313 80.2315 25.078C79.9142 25.8153 79.4475 26.4033 78.8315 26.842C78.2155 27.2807 77.4502 27.5 76.5355 27.5H73.1195C72.9235 27.5 72.7555 27.4347 72.6155 27.304C72.4755 27.164 72.4055 26.9913 72.4055 26.786V18.414C72.4055 18.2087 72.4755 18.0407 72.6155 17.91C72.7555 17.77 72.9235 17.7 73.1195 17.7H76.5355ZM76.3955 26.156C77.0582 26.156 77.5948 25.9927 78.0055 25.666C78.4162 25.3393 78.7148 24.91 78.9015 24.378C79.0975 23.8367 79.1955 23.244 79.1955 22.6C79.1955 22.124 79.1395 21.676 79.0275 21.256C78.9248 20.8267 78.7568 20.4487 78.5235 20.122C78.2995 19.786 78.0102 19.5247 77.6555 19.338C77.3102 19.142 76.8902 19.044 76.3955 19.044H73.7495L73.8755 18.918V26.296L73.7915 26.156H76.3955ZM94.7515 20.066C94.9288 20.066 95.0828 20.136 95.2135 20.276C95.3535 20.4067 95.4235 20.5793 95.4235 20.794C95.4235 20.8407 95.4188 20.8873 95.4095 20.934C95.4001 20.9807 95.3861 21.0227 95.3675 21.06L93.2255 27.052C93.1695 27.2107 93.0715 27.332 92.9315 27.416C92.7915 27.4907 92.6468 27.5187 92.4975 27.5C92.2268 27.4813 92.0261 27.332 91.8955 27.052L90.3135 22.852L90.6355 22.88L89.1795 27.052C89.0488 27.332 88.8481 27.4813 88.5775 27.5C88.4375 27.5187 88.2928 27.4907 88.1435 27.416C88.0035 27.332 87.9055 27.2107 87.8495 27.052L85.6935 21.06C85.6561 20.976 85.6375 20.8873 85.6375 20.794C85.6375 20.598 85.6981 20.43 85.8195 20.29C85.9501 20.1407 86.1228 20.066 86.3375 20.066C86.4868 20.066 86.6175 20.1033 86.7295 20.178C86.8508 20.2527 86.9348 20.3647 86.9815 20.514L88.7735 25.568L88.4515 25.54L89.9075 21.718C90.0288 21.4287 90.2435 21.284 90.5515 21.284C90.7195 21.284 90.8501 21.3213 90.9435 21.396C91.0368 21.4707 91.1115 21.578 91.1675 21.718L92.6515 25.554L92.2735 25.596L94.0795 20.514C94.1728 20.2153 94.3968 20.066 94.7515 20.066ZM98.1632 26.786C98.1632 26.9913 98.0979 27.164 97.9672 27.304C97.8365 27.4347 97.6685 27.5 97.4632 27.5C97.2672 27.5 97.0992 27.4347 96.9592 27.304C96.8285 27.164 96.7632 26.9913 96.7632 26.786V20.794C96.7632 20.5887 96.8285 20.4207 96.9592 20.29C97.0992 20.15 97.2672 20.08 97.4632 20.08C97.6685 20.08 97.8365 20.15 97.9672 20.29C98.0979 20.4207 98.1632 20.5887 98.1632 20.794V26.786ZM97.4492 19.156C97.1785 19.156 96.9825 19.1093 96.8612 19.016C96.7399 18.9133 96.6792 18.7453 96.6792 18.512V18.288C96.6792 18.0547 96.7445 17.8913 96.8752 17.798C97.0059 17.7047 97.2019 17.658 97.4632 17.658C97.7432 17.658 97.9439 17.7093 98.0652 17.812C98.1865 17.9053 98.2472 18.064 98.2472 18.288V18.512C98.2472 18.7547 98.1819 18.9227 98.0512 19.016C97.9299 19.1093 97.7292 19.156 97.4492 19.156ZM99.9484 20.22H103.238C103.425 20.22 103.579 20.2853 103.7 20.416C103.831 20.5373 103.896 20.6913 103.896 20.878C103.896 21.0553 103.831 21.2047 103.7 21.326C103.579 21.4473 103.425 21.508 103.238 21.508H99.9484C99.7617 21.508 99.6031 21.4473 99.4724 21.326C99.3511 21.1953 99.2904 21.0413 99.2904 20.864C99.2904 20.6773 99.3511 20.5233 99.4724 20.402C99.6031 20.2807 99.7617 20.22 99.9484 20.22ZM101.418 18.4C101.624 18.4 101.792 18.47 101.922 18.61C102.053 18.7407 102.118 18.9087 102.118 19.114V25.61C102.118 25.778 102.146 25.9133 102.202 26.016C102.258 26.1187 102.333 26.1887 102.426 26.226C102.529 26.2633 102.632 26.282 102.734 26.282C102.837 26.282 102.926 26.2633 103 26.226C103.084 26.1887 103.182 26.17 103.294 26.17C103.406 26.17 103.509 26.2213 103.602 26.324C103.696 26.4267 103.742 26.5667 103.742 26.744C103.742 26.968 103.621 27.15 103.378 27.29C103.136 27.43 102.874 27.5 102.594 27.5C102.436 27.5 102.249 27.486 102.034 27.458C101.82 27.43 101.61 27.36 101.404 27.248C101.208 27.136 101.045 26.9587 100.914 26.716C100.784 26.464 100.718 26.114 100.718 25.666V19.114C100.718 18.9087 100.784 18.7407 100.914 18.61C101.054 18.47 101.222 18.4 101.418 18.4ZM109.157 20.01C109.801 20.01 110.3 20.15 110.655 20.43C111.009 20.7007 111.257 21.0693 111.397 21.536C111.546 22.0027 111.621 22.516 111.621 23.076V26.786C111.621 26.9913 111.551 27.164 111.411 27.304C111.28 27.4347 111.117 27.5 110.921 27.5C110.715 27.5 110.547 27.4347 110.417 27.304C110.286 27.164 110.221 26.9913 110.221 26.786V23.076C110.221 22.7493 110.174 22.4507 110.081 22.18C109.997 21.9093 109.843 21.6947 109.619 21.536C109.404 21.3773 109.101 21.298 108.709 21.298C108.345 21.298 108.018 21.3773 107.729 21.536C107.449 21.6947 107.229 21.9093 107.071 22.18C106.921 22.4507 106.847 22.7493 106.847 23.076V26.786C106.847 26.9913 106.777 27.164 106.637 27.304C106.506 27.4347 106.343 27.5 106.147 27.5C105.941 27.5 105.773 27.4347 105.643 27.304C105.512 27.164 105.447 26.9913 105.447 26.786V17.854C105.447 17.6487 105.512 17.4807 105.643 17.35C105.773 17.21 105.941 17.14 106.147 17.14C106.343 17.14 106.506 17.21 106.637 17.35C106.777 17.4807 106.847 17.6487 106.847 17.854V21.676L106.595 21.816C106.66 21.6107 106.767 21.4007 106.917 21.186C107.075 20.9713 107.267 20.7753 107.491 20.598C107.724 20.4207 107.981 20.2807 108.261 20.178C108.541 20.066 108.839 20.01 109.157 20.01ZM122.168 27.64C121.459 27.64 120.796 27.514 120.18 27.262C119.564 27.0007 119.023 26.6413 118.556 26.184C118.099 25.7173 117.74 25.1807 117.478 24.574C117.217 23.9673 117.086 23.3093 117.086 22.6C117.086 21.8907 117.217 21.2327 117.478 20.626C117.74 20.0193 118.099 19.4873 118.556 19.03C119.023 18.5633 119.564 18.204 120.18 17.952C120.796 17.6907 121.459 17.56 122.168 17.56C122.626 17.56 123.069 17.6113 123.498 17.714C123.928 17.8167 124.315 17.966 124.66 18.162C124.782 18.2273 124.87 18.316 124.926 18.428C124.982 18.5307 125.01 18.6333 125.01 18.736C125.01 18.932 124.945 19.1047 124.814 19.254C124.693 19.394 124.539 19.464 124.352 19.464C124.287 19.464 124.217 19.4547 124.142 19.436C124.077 19.4173 124.016 19.394 123.96 19.366C123.699 19.2353 123.419 19.1373 123.12 19.072C122.822 18.9973 122.504 18.96 122.168 18.96C121.496 18.96 120.89 19.1233 120.348 19.45C119.807 19.7673 119.378 20.2013 119.06 20.752C118.752 21.3027 118.598 21.9187 118.598 22.6C118.598 23.272 118.752 23.888 119.06 24.448C119.378 24.9987 119.807 25.4373 120.348 25.764C120.89 26.0813 121.496 26.24 122.168 26.24C122.495 26.24 122.84 26.2027 123.204 26.128C123.568 26.044 123.876 25.9367 124.128 25.806L124.016 26.184V23.524L124.24 23.72H122.406C122.201 23.72 122.028 23.6547 121.888 23.524C121.758 23.3933 121.692 23.2253 121.692 23.02C121.692 22.8147 121.758 22.6467 121.888 22.516C122.028 22.3853 122.201 22.32 122.406 22.32H124.828C125.024 22.32 125.188 22.39 125.318 22.53C125.458 22.6607 125.528 22.8287 125.528 23.034V26.142C125.528 26.2913 125.491 26.4173 125.416 26.52C125.342 26.6227 125.258 26.7067 125.164 26.772C124.744 27.0333 124.278 27.2433 123.764 27.402C123.26 27.5607 122.728 27.64 122.168 27.64ZM128.528 26.786C128.528 26.9913 128.463 27.164 128.332 27.304C128.202 27.4347 128.034 27.5 127.828 27.5C127.632 27.5 127.464 27.4347 127.324 27.304C127.194 27.164 127.128 26.9913 127.128 26.786V20.794C127.128 20.5887 127.194 20.4207 127.324 20.29C127.464 20.15 127.632 20.08 127.828 20.08C128.034 20.08 128.202 20.15 128.332 20.29C128.463 20.4207 128.528 20.5887 128.528 20.794V26.786ZM127.814 19.156C127.544 19.156 127.348 19.1093 127.226 19.016C127.105 18.9133 127.044 18.7453 127.044 18.512V18.288C127.044 18.0547 127.11 17.8913 127.24 17.798C127.371 17.7047 127.567 17.658 127.828 17.658C128.108 17.658 128.309 17.7093 128.43 17.812C128.552 17.9053 128.612 18.064 128.612 18.288V18.512C128.612 18.7547 128.547 18.9227 128.416 19.016C128.295 19.1093 128.094 19.156 127.814 19.156ZM130.314 20.22H133.604C133.79 20.22 133.944 20.2853 134.066 20.416C134.196 20.5373 134.262 20.6913 134.262 20.878C134.262 21.0553 134.196 21.2047 134.066 21.326C133.944 21.4473 133.79 21.508 133.604 21.508H130.314C130.127 21.508 129.968 21.4473 129.838 21.326C129.716 21.1953 129.656 21.0413 129.656 20.864C129.656 20.6773 129.716 20.5233 129.838 20.402C129.968 20.2807 130.127 20.22 130.314 20.22ZM131.784 18.4C131.989 18.4 132.157 18.47 132.288 18.61C132.418 18.7407 132.484 18.9087 132.484 19.114V25.61C132.484 25.778 132.512 25.9133 132.568 26.016C132.624 26.1187 132.698 26.1887 132.792 26.226C132.894 26.2633 132.997 26.282 133.1 26.282C133.202 26.282 133.291 26.2633 133.366 26.226C133.45 26.1887 133.548 26.17 133.66 26.17C133.772 26.17 133.874 26.2213 133.968 26.324C134.061 26.4267 134.108 26.5667 134.108 26.744C134.108 26.968 133.986 27.15 133.744 27.29C133.501 27.43 133.24 27.5 132.96 27.5C132.801 27.5 132.614 27.486 132.4 27.458C132.185 27.43 131.975 27.36 131.77 27.248C131.574 27.136 131.41 26.9587 131.28 26.716C131.149 26.464 131.084 26.114 131.084 25.666V19.114C131.084 18.9087 131.149 18.7407 131.28 18.61C131.42 18.47 131.588 18.4 131.784 18.4ZM136.722 17.7C136.909 17.7 137.072 17.77 137.212 17.91C137.361 18.0407 137.436 18.2087 137.436 18.414V26.786C137.427 26.9913 137.347 27.164 137.198 27.304C137.058 27.4347 136.89 27.5 136.694 27.5C136.479 27.5 136.302 27.4347 136.162 27.304C136.031 27.164 135.966 26.9913 135.966 26.786V18.414C135.966 18.2087 136.036 18.0407 136.176 17.91C136.316 17.77 136.498 17.7 136.722 17.7ZM143.036 17.7C143.26 17.7 143.437 17.77 143.568 17.91C143.699 18.0407 143.764 18.2087 143.764 18.414V26.786C143.764 26.9913 143.694 27.164 143.554 27.304C143.423 27.4347 143.246 27.5 143.022 27.5C142.826 27.5 142.658 27.4347 142.518 27.304C142.378 27.164 142.308 26.9913 142.308 26.786V18.414C142.308 18.2087 142.378 18.0407 142.518 17.91C142.667 17.77 142.84 17.7 143.036 17.7ZM136.666 21.872H143.05L143.036 23.216H136.652L136.666 21.872ZM151.363 20.136C151.559 20.136 151.722 20.206 151.853 20.346C151.993 20.4767 152.063 20.6447 152.063 20.85V24.532C152.063 25.5027 151.792 26.2633 151.251 26.814C150.709 27.3553 149.944 27.626 148.955 27.626C147.975 27.626 147.214 27.3553 146.673 26.814C146.141 26.2633 145.875 25.5027 145.875 24.532V20.85C145.875 20.6447 145.94 20.4767 146.071 20.346C146.201 20.206 146.369 20.136 146.575 20.136C146.771 20.136 146.934 20.206 147.065 20.346C147.205 20.4767 147.275 20.6447 147.275 20.85V24.532C147.275 25.1387 147.415 25.5913 147.695 25.89C147.984 26.1887 148.404 26.338 148.955 26.338C149.515 26.338 149.939 26.1887 150.229 25.89C150.518 25.5913 150.663 25.1387 150.663 24.532V20.85C150.663 20.6447 150.728 20.4767 150.859 20.346C150.989 20.206 151.157 20.136 151.363 20.136ZM157.719 19.968C158.373 19.968 158.951 20.1313 159.455 20.458C159.969 20.7847 160.375 21.2373 160.673 21.816C160.972 22.3853 161.121 23.0433 161.121 23.79C161.121 24.5367 160.972 25.1993 160.673 25.778C160.375 26.3567 159.973 26.814 159.469 27.15C158.965 27.4767 158.396 27.64 157.761 27.64C157.407 27.64 157.071 27.584 156.753 27.472C156.436 27.3507 156.156 27.2013 155.913 27.024C155.671 26.8373 155.47 26.6413 155.311 26.436C155.162 26.2307 155.069 26.0393 155.031 25.862L155.409 25.68V26.898C155.409 27.094 155.339 27.262 155.199 27.402C155.069 27.5327 154.905 27.598 154.709 27.598C154.504 27.598 154.336 27.5327 154.205 27.402C154.075 27.2713 154.009 27.1033 154.009 26.898V17.854C154.009 17.6487 154.075 17.4807 154.205 17.35C154.336 17.21 154.504 17.14 154.709 17.14C154.905 17.14 155.069 17.21 155.199 17.35C155.339 17.4807 155.409 17.6487 155.409 17.854V21.788L155.185 21.662C155.213 21.4847 155.302 21.3027 155.451 21.116C155.601 20.92 155.787 20.7333 156.011 20.556C156.245 20.3787 156.506 20.2387 156.795 20.136C157.094 20.024 157.402 19.968 157.719 19.968ZM157.565 21.256C157.117 21.256 156.725 21.368 156.389 21.592C156.063 21.816 155.806 22.1193 155.619 22.502C155.433 22.8753 155.339 23.3047 155.339 23.79C155.339 24.2753 155.433 24.714 155.619 25.106C155.806 25.4887 156.063 25.792 156.389 26.016C156.725 26.24 157.117 26.352 157.565 26.352C158.004 26.352 158.387 26.24 158.713 26.016C159.04 25.792 159.297 25.484 159.483 25.092C159.679 24.7 159.777 24.266 159.777 23.79C159.777 23.3047 159.679 22.8753 159.483 22.502C159.297 22.1193 159.04 21.816 158.713 21.592C158.387 21.368 158.004 21.256 157.565 21.256ZM170.255 19.52L167.105 27.08C167.049 27.2293 166.965 27.346 166.853 27.43C166.741 27.514 166.615 27.556 166.475 27.556C166.27 27.556 166.116 27.5 166.013 27.388C165.91 27.2667 165.854 27.1173 165.845 26.94C165.845 26.8747 165.859 26.8 165.887 26.716L169.443 18.12C169.508 17.9613 169.602 17.84 169.723 17.756C169.854 17.672 169.994 17.6347 170.143 17.644C170.283 17.644 170.414 17.686 170.535 17.77C170.656 17.854 170.745 17.9707 170.801 18.12L174.315 26.59C174.352 26.6833 174.371 26.7767 174.371 26.87C174.371 27.0753 174.301 27.2433 174.161 27.374C174.03 27.4953 173.881 27.556 173.713 27.556C173.573 27.556 173.442 27.514 173.321 27.43C173.209 27.3367 173.125 27.22 173.069 27.08L169.891 19.562L170.255 19.52ZM167.665 25.092L168.295 23.748H172.257L172.495 25.092H167.665ZM178.846 19.968C179.35 19.968 179.798 20.024 180.19 20.136C180.582 20.2387 180.885 20.388 181.1 20.584C181.324 20.7707 181.436 20.99 181.436 21.242C181.436 21.4007 181.389 21.55 181.296 21.69C181.202 21.8207 181.062 21.886 180.876 21.886C180.745 21.886 180.633 21.8627 180.54 21.816C180.456 21.7693 180.376 21.7133 180.302 21.648C180.227 21.5827 180.134 21.5173 180.022 21.452C179.919 21.396 179.765 21.3493 179.56 21.312C179.364 21.2747 179.186 21.256 179.028 21.256C178.533 21.256 178.104 21.368 177.74 21.592C177.385 21.816 177.105 22.1193 176.9 22.502C176.704 22.8847 176.606 23.3187 176.606 23.804C176.606 24.2893 176.704 24.7233 176.9 25.106C177.105 25.4887 177.38 25.792 177.726 26.016C178.08 26.24 178.491 26.352 178.958 26.352C179.238 26.352 179.466 26.3333 179.644 26.296C179.821 26.2493 179.975 26.1933 180.106 26.128C180.246 26.044 180.362 25.96 180.456 25.876C180.558 25.7827 180.698 25.736 180.876 25.736C181.081 25.736 181.235 25.8013 181.338 25.932C181.45 26.0533 181.506 26.2073 181.506 26.394C181.506 26.5993 181.38 26.8 181.128 26.996C180.885 27.1827 180.558 27.3367 180.148 27.458C179.737 27.5793 179.284 27.64 178.79 27.64C178.062 27.64 177.427 27.472 176.886 27.136C176.354 26.8 175.938 26.3427 175.64 25.764C175.35 25.1853 175.206 24.532 175.206 23.804C175.206 23.0667 175.36 22.4133 175.668 21.844C175.976 21.2653 176.405 20.808 176.956 20.472C177.506 20.136 178.136 19.968 178.846 19.968ZM182.745 20.22H186.035C186.222 20.22 186.376 20.2853 186.497 20.416C186.628 20.5373 186.693 20.6913 186.693 20.878C186.693 21.0553 186.628 21.2047 186.497 21.326C186.376 21.4473 186.222 21.508 186.035 21.508H182.745C182.559 21.508 182.4 21.4473 182.269 21.326C182.148 21.1953 182.087 21.0413 182.087 20.864C182.087 20.6773 182.148 20.5233 182.269 20.402C182.4 20.2807 182.559 20.22 182.745 20.22ZM184.215 18.4C184.421 18.4 184.589 18.47 184.719 18.61C184.85 18.7407 184.915 18.9087 184.915 19.114V25.61C184.915 25.778 184.943 25.9133 184.999 26.016C185.055 26.1187 185.13 26.1887 185.223 26.226C185.326 26.2633 185.429 26.282 185.531 26.282C185.634 26.282 185.723 26.2633 185.797 26.226C185.881 26.1887 185.979 26.17 186.091 26.17C186.203 26.17 186.306 26.2213 186.399 26.324C186.493 26.4267 186.539 26.5667 186.539 26.744C186.539 26.968 186.418 27.15 186.175 27.29C185.933 27.43 185.671 27.5 185.391 27.5C185.233 27.5 185.046 27.486 184.831 27.458C184.617 27.43 184.407 27.36 184.201 27.248C184.005 27.136 183.842 26.9587 183.711 26.716C183.581 26.464 183.515 26.114 183.515 25.666V19.114C183.515 18.9087 183.581 18.7407 183.711 18.61C183.851 18.47 184.019 18.4 184.215 18.4ZM189.56 26.786C189.56 26.9913 189.494 27.164 189.364 27.304C189.233 27.4347 189.065 27.5 188.86 27.5C188.664 27.5 188.496 27.4347 188.356 27.304C188.225 27.164 188.16 26.9913 188.16 26.786V20.794C188.16 20.5887 188.225 20.4207 188.356 20.29C188.496 20.15 188.664 20.08 188.86 20.08C189.065 20.08 189.233 20.15 189.364 20.29C189.494 20.4207 189.56 20.5887 189.56 20.794V26.786ZM188.846 19.156C188.575 19.156 188.379 19.1093 188.258 19.016C188.136 18.9133 188.076 18.7453 188.076 18.512V18.288C188.076 18.0547 188.141 17.8913 188.272 17.798C188.402 17.7047 188.598 17.658 188.86 17.658C189.14 17.658 189.34 17.7093 189.462 17.812C189.583 17.9053 189.644 18.064 189.644 18.288V18.512C189.644 18.7547 189.578 18.9227 189.448 19.016C189.326 19.1093 189.126 19.156 188.846 19.156ZM198.499 23.818C198.499 24.5647 198.336 25.2273 198.009 25.806C197.682 26.3753 197.239 26.8233 196.679 27.15C196.119 27.4767 195.489 27.64 194.789 27.64C194.089 27.64 193.459 27.4767 192.899 27.15C192.339 26.8233 191.891 26.3753 191.555 25.806C191.228 25.2273 191.065 24.5647 191.065 23.818C191.065 23.062 191.228 22.3993 191.555 21.83C191.891 21.2513 192.339 20.7987 192.899 20.472C193.459 20.136 194.089 19.968 194.789 19.968C195.489 19.968 196.119 20.136 196.679 20.472C197.239 20.7987 197.682 21.2513 198.009 21.83C198.336 22.3993 198.499 23.062 198.499 23.818ZM197.099 23.818C197.099 23.3047 196.996 22.8613 196.791 22.488C196.586 22.1053 196.306 21.8067 195.951 21.592C195.606 21.368 195.218 21.256 194.789 21.256C194.36 21.256 193.968 21.368 193.613 21.592C193.258 21.8067 192.978 22.1053 192.773 22.488C192.568 22.8613 192.465 23.3047 192.465 23.818C192.465 24.3127 192.568 24.7513 192.773 25.134C192.978 25.5167 193.258 25.8153 193.613 26.03C193.968 26.2447 194.36 26.352 194.789 26.352C195.218 26.352 195.606 26.2447 195.951 26.03C196.306 25.8153 196.586 25.5167 196.791 25.134C196.996 24.7513 197.099 24.3127 197.099 23.818ZM203.878 19.968C204.54 19.968 205.054 20.108 205.418 20.388C205.782 20.6587 206.034 21.0273 206.174 21.494C206.323 21.9513 206.398 22.4647 206.398 23.034V26.786C206.398 26.9913 206.328 27.164 206.188 27.304C206.057 27.4347 205.894 27.5 205.698 27.5C205.492 27.5 205.324 27.4347 205.194 27.304C205.063 27.164 204.998 26.9913 204.998 26.786V23.048C204.998 22.712 204.951 22.4133 204.858 22.152C204.764 21.8813 204.601 21.6667 204.368 21.508C204.144 21.34 203.826 21.256 203.416 21.256C203.033 21.256 202.697 21.34 202.408 21.508C202.118 21.6667 201.89 21.8813 201.722 22.152C201.563 22.4133 201.484 22.712 201.484 23.048V26.786C201.484 26.9913 201.414 27.164 201.274 27.304C201.143 27.4347 200.98 27.5 200.784 27.5C200.578 27.5 200.41 27.4347 200.28 27.304C200.149 27.164 200.084 26.9913 200.084 26.786V20.85C200.084 20.6447 200.149 20.4767 200.28 20.346C200.41 20.206 200.578 20.136 200.784 20.136C200.98 20.136 201.143 20.206 201.274 20.346C201.414 20.4767 201.484 20.6447 201.484 20.85V21.634L201.232 21.774C201.297 21.5687 201.409 21.3633 201.568 21.158C201.736 20.9433 201.936 20.7473 202.17 20.57C202.403 20.3833 202.664 20.2387 202.954 20.136C203.243 20.024 203.551 19.968 203.878 19.968ZM207.907 26.352C207.823 26.2213 207.786 26.072 207.795 25.904C207.805 25.7267 207.903 25.5773 208.089 25.456C208.22 25.372 208.355 25.3393 208.495 25.358C208.645 25.3673 208.785 25.4373 208.915 25.568C209.177 25.8573 209.466 26.086 209.783 26.254C210.11 26.422 210.502 26.506 210.959 26.506C211.146 26.4967 211.337 26.4687 211.533 26.422C211.729 26.366 211.897 26.2727 212.037 26.142C212.177 26.002 212.247 25.8013 212.247 25.54C212.247 25.3067 212.173 25.12 212.023 24.98C211.874 24.84 211.678 24.728 211.435 24.644C211.193 24.5507 210.931 24.4667 210.651 24.392C210.353 24.308 210.049 24.2147 209.741 24.112C209.443 24.0093 209.172 23.8787 208.929 23.72C208.687 23.552 208.486 23.3373 208.327 23.076C208.178 22.8147 208.103 22.4927 208.103 22.11C208.103 21.6713 208.225 21.2933 208.467 20.976C208.719 20.6587 209.041 20.4113 209.433 20.234C209.835 20.0567 210.269 19.968 210.735 19.968C211.006 19.968 211.291 20.0053 211.589 20.08C211.888 20.1453 212.177 20.2527 212.457 20.402C212.737 20.5513 212.98 20.7473 213.185 20.99C213.279 21.1113 213.33 21.256 213.339 21.424C213.358 21.592 213.283 21.7413 213.115 21.872C213.003 21.9653 212.868 22.0073 212.709 21.998C212.551 21.9887 212.42 21.9373 212.317 21.844C212.14 21.62 211.911 21.4473 211.631 21.326C211.351 21.1953 211.034 21.13 210.679 21.13C210.502 21.13 210.315 21.158 210.119 21.214C209.933 21.2607 209.774 21.3493 209.643 21.48C209.513 21.6107 209.447 21.802 209.447 22.054C209.447 22.2873 209.522 22.474 209.671 22.614C209.83 22.754 210.035 22.8707 210.287 22.964C210.539 23.0573 210.815 23.1413 211.113 23.216C211.403 23.2907 211.687 23.3793 211.967 23.482C212.257 23.5847 212.513 23.72 212.737 23.888C212.971 24.0467 213.157 24.2567 213.297 24.518C213.447 24.77 213.521 25.092 213.521 25.484C213.521 25.9413 213.386 26.3333 213.115 26.66C212.854 26.9773 212.518 27.22 212.107 27.388C211.706 27.556 211.281 27.64 210.833 27.64C210.301 27.64 209.769 27.5467 209.237 27.36C208.715 27.164 208.271 26.828 207.907 26.352Z" fill="#4A4A4A"/>
<defs>
<clipPath id="clip0_4281_6119">
<rect width="32" height="32" fill="white" transform="translate(6 6)"/>
</clipPath>
</defs>
</svg>
