<svg width="129" height="44" viewBox="0 0 129 44" fill="none" xmlns="http://www.w3.org/2000/svg">
<rect width="128.514" height="44" rx="10" fill="white"/>
<g clip-path="url(#clip0_4281_6120)">
<path d="M46.2267 19.7183C46.113 19.6233 45.0902 18.8441 42.893 18.8441C42.3248 18.8441 41.7375 18.9011 41.1693 18.9961C40.7526 16.0885 38.3471 14.6822 38.2523 14.6062L37.665 14.2642L37.2862 14.8153C36.8128 15.5564 36.4528 16.3926 36.2444 17.2478C35.8467 18.9011 36.0929 20.4594 36.9264 21.7897C35.9225 22.3598 34.2934 22.4929 33.9525 22.5119H7.05526C6.35442 22.5119 5.78616 23.082 5.78616 23.7852C5.74828 26.1416 6.14606 28.4982 6.96055 30.7216C7.8887 33.1541 9.27145 34.9594 11.052 36.0618C13.0598 37.297 16.3367 38.0001 20.0304 38.0001C21.6972 38.0001 23.3641 37.8481 25.0121 37.544C27.304 37.1259 29.5012 36.3278 31.528 35.1686C33.1949 34.1994 34.6913 32.964 35.9604 31.5197C38.1007 29.1062 39.3699 26.4077 40.298 24.0132H40.6768C43.0066 24.0132 44.4463 23.082 45.2418 22.2838C45.7721 21.7897 46.1699 21.1816 46.4541 20.4975L46.6245 20.0034L46.2267 19.7183Z" fill="#0091E2"/>
<path d="M9.57199 21.7478H13.1708C13.3413 21.7478 13.4928 21.6145 13.4928 21.4242V18.1883C13.4928 18.017 13.3602 17.8647 13.1708 17.8647H9.57199C9.40152 17.8647 9.25 17.9979 9.25 18.1883V21.4242C9.26894 21.6145 9.40152 21.7478 9.57199 21.7478ZM14.5346 21.7478H18.1334C18.3039 21.7478 18.4554 21.6145 18.4554 21.4242V18.1883C18.4554 18.017 18.3228 17.8647 18.1334 17.8647H14.5346C14.3641 17.8647 14.2126 17.9979 14.2126 18.1883V21.4242C14.2315 21.6145 14.3641 21.7478 14.5346 21.7478ZM19.5919 21.7478H23.1907C23.3611 21.7478 23.5126 21.6145 23.5126 21.4242V18.1883C23.5126 18.017 23.3801 17.8647 23.1907 17.8647H19.5919C19.4214 17.8647 19.2699 17.9979 19.2699 18.1883V21.4242C19.2699 21.6145 19.4025 21.7478 19.5919 21.7478ZM24.5735 21.7478H28.1722C28.3427 21.7478 28.4942 21.6145 28.4942 21.4242V18.1883C28.4942 18.017 28.3616 17.8647 28.1722 17.8647L24.5735 17.8647C24.4029 17.8647 24.2514 17.9979 24.2514 18.1883V21.4242C24.2514 21.6145 24.4029 21.7478 24.5735 21.7478ZM14.5346 17.1223H18.1334C18.3039 17.1223 18.4554 16.97 18.4554 16.7987V13.5628C18.4554 13.3915 18.3228 13.2392 18.1334 13.2392H14.5346C14.3641 13.2392 14.2126 13.3725 14.2126 13.5628V16.7987C14.2315 16.97 14.3641 17.1223 14.5346 17.1223ZM19.5919 17.1223H23.1907C23.3611 17.1223 23.5126 16.97 23.5126 16.7987V13.5628C23.5126 13.3915 23.3801 13.2392 23.1907 13.2392H19.5919C19.4214 13.2392 19.2699 13.3725 19.2699 13.5628V16.7987C19.2699 16.97 19.4025 17.1223 19.5919 17.1223ZM24.5735 17.1223H28.1722C28.3427 17.1223 28.4942 16.97 28.4942 16.7987V13.5628C28.4942 13.3915 28.3427 13.2392 28.1722 13.2392H24.5735C24.4029 13.2392 24.2514 13.3725 24.2514 13.5628V16.7987C24.2514 16.97 24.4029 17.1223 24.5735 17.1223ZM24.5735 12.4778H28.1722C28.3427 12.4778 28.4942 12.3446 28.4942 12.1542V8.91832C28.4942 8.74701 28.3427 8.59473 28.1722 8.59473H24.5735C24.4029 8.59473 24.2514 8.72797 24.2514 8.91832V12.1542C24.2514 12.3255 24.4029 12.4778 24.5735 12.4778ZM29.5928 21.7478H33.1917C33.362 21.7478 33.5136 21.6145 33.5136 21.4242V18.1883C33.5136 18.017 33.3811 17.8647 33.1917 17.8647H29.5928C29.4222 17.8647 29.2707 17.9979 29.2707 18.1883V21.4242C29.2897 21.6145 29.4222 21.7478 29.5928 21.7478Z" fill="#0091E2"/>
</g>
<path d="M59.6057 18.26C59.811 18.3627 59.9277 18.5213 59.9557 18.736C59.993 18.9507 59.9417 19.1467 59.8017 19.324C59.699 19.464 59.5637 19.5433 59.3957 19.562C59.237 19.5807 59.0783 19.548 58.9197 19.464C58.649 19.324 58.3643 19.212 58.0657 19.128C57.767 19.044 57.4497 19.002 57.1137 19.002C56.5817 19.002 56.101 19.0907 55.6717 19.268C55.2517 19.436 54.8877 19.6833 54.5797 20.01C54.2717 20.3273 54.0337 20.7053 53.8657 21.144C53.707 21.5827 53.6277 22.068 53.6277 22.6C53.6277 23.188 53.7163 23.7107 53.8937 24.168C54.071 24.616 54.3137 24.9987 54.6217 25.316C54.939 25.624 55.3077 25.8573 55.7277 26.016C56.157 26.1653 56.619 26.24 57.1137 26.24C57.431 26.24 57.739 26.2027 58.0377 26.128C58.3457 26.0533 58.635 25.9413 58.9057 25.792C59.0737 25.708 59.237 25.68 59.3957 25.708C59.5637 25.7267 59.699 25.806 59.8017 25.946C59.9603 26.142 60.0163 26.3427 59.9697 26.548C59.9323 26.744 59.8157 26.8933 59.6197 26.996C59.3863 27.1267 59.1297 27.2387 58.8497 27.332C58.5697 27.4253 58.285 27.5 57.9957 27.556C57.7063 27.612 57.4123 27.64 57.1137 27.64C56.4417 27.64 55.807 27.528 55.2097 27.304C54.6123 27.08 54.0803 26.7533 53.6137 26.324C53.147 25.8947 52.7783 25.3673 52.5077 24.742C52.2463 24.1167 52.1157 23.4027 52.1157 22.6C52.1157 21.8813 52.237 21.2187 52.4797 20.612C52.7317 19.996 53.0817 19.4687 53.5297 19.03C53.987 18.582 54.519 18.2367 55.1257 17.994C55.7323 17.742 56.395 17.616 57.1137 17.616C57.5617 17.616 57.9957 17.672 58.4157 17.784C58.845 17.896 59.2417 18.0547 59.6057 18.26ZM68.4501 23.818C68.4501 24.5647 68.2867 25.2273 67.9601 25.806C67.6334 26.3753 67.1901 26.8233 66.6301 27.15C66.0701 27.4767 65.4401 27.64 64.7401 27.64C64.0401 27.64 63.4101 27.4767 62.8501 27.15C62.2901 26.8233 61.8421 26.3753 61.5061 25.806C61.1794 25.2273 61.0161 24.5647 61.0161 23.818C61.0161 23.062 61.1794 22.3993 61.5061 21.83C61.8421 21.2513 62.2901 20.7987 62.8501 20.472C63.4101 20.136 64.0401 19.968 64.7401 19.968C65.4401 19.968 66.0701 20.136 66.6301 20.472C67.1901 20.7987 67.6334 21.2513 67.9601 21.83C68.2867 22.3993 68.4501 23.062 68.4501 23.818ZM67.0501 23.818C67.0501 23.3047 66.9474 22.8613 66.7421 22.488C66.5367 22.1053 66.2567 21.8067 65.9021 21.592C65.5567 21.368 65.1694 21.256 64.7401 21.256C64.3107 21.256 63.9187 21.368 63.5641 21.592C63.2094 21.8067 62.9294 22.1053 62.7241 22.488C62.5187 22.8613 62.4161 23.3047 62.4161 23.818C62.4161 24.3127 62.5187 24.7513 62.7241 25.134C62.9294 25.5167 63.2094 25.8153 63.5641 26.03C63.9187 26.2447 64.3107 26.352 64.7401 26.352C65.1694 26.352 65.5567 26.2447 65.9021 26.03C66.2567 25.8153 66.5367 25.5167 66.7421 25.134C66.9474 24.7513 67.0501 24.3127 67.0501 23.818ZM73.8287 19.968C74.4914 19.968 75.0047 20.108 75.3687 20.388C75.7327 20.6587 75.9847 21.0273 76.1247 21.494C76.274 21.9513 76.3487 22.4647 76.3487 23.034V26.786C76.3487 26.9913 76.2787 27.164 76.1387 27.304C76.008 27.4347 75.8447 27.5 75.6487 27.5C75.4434 27.5 75.2754 27.4347 75.1447 27.304C75.014 27.164 74.9487 26.9913 74.9487 26.786V23.048C74.9487 22.712 74.902 22.4133 74.8087 22.152C74.7154 21.8813 74.552 21.6667 74.3187 21.508C74.0947 21.34 73.7774 21.256 73.3667 21.256C72.984 21.256 72.648 21.34 72.3587 21.508C72.0694 21.6667 71.8407 21.8813 71.6727 22.152C71.514 22.4133 71.4347 22.712 71.4347 23.048V26.786C71.4347 26.9913 71.3647 27.164 71.2247 27.304C71.094 27.4347 70.9307 27.5 70.7347 27.5C70.5294 27.5 70.3614 27.4347 70.2307 27.304C70.1 27.164 70.0347 26.9913 70.0347 26.786V20.85C70.0347 20.6447 70.1 20.4767 70.2307 20.346C70.3614 20.206 70.5294 20.136 70.7347 20.136C70.9307 20.136 71.094 20.206 71.2247 20.346C71.3647 20.4767 71.4347 20.6447 71.4347 20.85V21.634L71.1827 21.774C71.248 21.5687 71.36 21.3633 71.5187 21.158C71.6867 20.9433 71.8874 20.7473 72.1207 20.57C72.354 20.3833 72.6154 20.2387 72.9047 20.136C73.194 20.024 73.502 19.968 73.8287 19.968ZM78.1945 20.22H81.4845C81.6712 20.22 81.8252 20.2853 81.9465 20.416C82.0772 20.5373 82.1425 20.6913 82.1425 20.878C82.1425 21.0553 82.0772 21.2047 81.9465 21.326C81.8252 21.4473 81.6712 21.508 81.4845 21.508H78.1945C78.0078 21.508 77.8492 21.4473 77.7185 21.326C77.5972 21.1953 77.5365 21.0413 77.5365 20.864C77.5365 20.6773 77.5972 20.5233 77.7185 20.402C77.8492 20.2807 78.0078 20.22 78.1945 20.22ZM79.6645 18.4C79.8698 18.4 80.0378 18.47 80.1685 18.61C80.2992 18.7407 80.3645 18.9087 80.3645 19.114V25.61C80.3645 25.778 80.3925 25.9133 80.4485 26.016C80.5045 26.1187 80.5792 26.1887 80.6725 26.226C80.7752 26.2633 80.8778 26.282 80.9805 26.282C81.0832 26.282 81.1718 26.2633 81.2465 26.226C81.3305 26.1887 81.4285 26.17 81.5405 26.17C81.6525 26.17 81.7552 26.2213 81.8485 26.324C81.9418 26.4267 81.9885 26.5667 81.9885 26.744C81.9885 26.968 81.8672 27.15 81.6245 27.29C81.3818 27.43 81.1205 27.5 80.8405 27.5C80.6818 27.5 80.4952 27.486 80.2805 27.458C80.0658 27.43 79.8558 27.36 79.6505 27.248C79.4545 27.136 79.2912 26.9587 79.1605 26.716C79.0298 26.464 78.9645 26.114 78.9645 25.666V19.114C78.9645 18.9087 79.0298 18.7407 79.1605 18.61C79.3005 18.47 79.4685 18.4 79.6645 18.4ZM89.7269 20.024C89.9322 20.024 90.1002 20.094 90.2309 20.234C90.3616 20.3647 90.4269 20.5327 90.4269 20.738V26.786C90.4269 26.9913 90.3616 27.164 90.2309 27.304C90.1002 27.4347 89.9322 27.5 89.7269 27.5C89.5309 27.5 89.3629 27.4347 89.2229 27.304C89.0922 27.164 89.0269 26.9913 89.0269 26.786V25.778L89.3209 25.82C89.3209 25.988 89.2509 26.1747 89.1109 26.38C88.9802 26.5853 88.7982 26.786 88.5649 26.982C88.3316 27.1687 88.0562 27.3273 87.7389 27.458C87.4216 27.5793 87.0809 27.64 86.7169 27.64C86.0729 27.64 85.4942 27.4767 84.9809 27.15C84.4676 26.814 84.0616 26.3567 83.7629 25.778C83.4642 25.1993 83.3149 24.5413 83.3149 23.804C83.3149 23.048 83.4642 22.3853 83.7629 21.816C84.0616 21.2373 84.4629 20.7847 84.9669 20.458C85.4802 20.1313 86.0496 19.968 86.6749 19.968C87.0762 19.968 87.4449 20.0333 87.7809 20.164C88.1262 20.2947 88.4249 20.4627 88.6769 20.668C88.9289 20.8733 89.1202 21.0927 89.2509 21.326C89.3909 21.55 89.4609 21.7647 89.4609 21.97L89.0269 22.012V20.738C89.0269 20.542 89.0922 20.374 89.2229 20.234C89.3629 20.094 89.5309 20.024 89.7269 20.024ZM86.8709 26.352C87.3096 26.352 87.6969 26.24 88.0329 26.016C88.3689 25.792 88.6302 25.4887 88.8169 25.106C89.0036 24.714 89.0969 24.28 89.0969 23.804C89.0969 23.3187 89.0036 22.8847 88.8169 22.502C88.6302 22.1193 88.3689 21.816 88.0329 21.592C87.6969 21.368 87.3096 21.256 86.8709 21.256C86.4416 21.256 86.0589 21.368 85.7229 21.592C85.3962 21.816 85.1349 22.1193 84.9389 22.502C84.7522 22.8847 84.6589 23.3187 84.6589 23.804C84.6589 24.28 84.7522 24.714 84.9389 25.106C85.1349 25.4887 85.3962 25.792 85.7229 26.016C86.0589 26.24 86.4416 26.352 86.8709 26.352ZM93.7042 26.786C93.7042 26.9913 93.6389 27.164 93.5082 27.304C93.3775 27.4347 93.2095 27.5 93.0042 27.5C92.8082 27.5 92.6402 27.4347 92.5002 27.304C92.3695 27.164 92.3042 26.9913 92.3042 26.786V20.794C92.3042 20.5887 92.3695 20.4207 92.5002 20.29C92.6402 20.15 92.8082 20.08 93.0042 20.08C93.2095 20.08 93.3775 20.15 93.5082 20.29C93.6389 20.4207 93.7042 20.5887 93.7042 20.794V26.786ZM92.9902 19.156C92.7195 19.156 92.5235 19.1093 92.4022 19.016C92.2809 18.9133 92.2202 18.7453 92.2202 18.512V18.288C92.2202 18.0547 92.2855 17.8913 92.4162 17.798C92.5469 17.7047 92.7429 17.658 93.0042 17.658C93.2842 17.658 93.4849 17.7093 93.6062 17.812C93.7275 17.9053 93.7882 18.064 93.7882 18.288V18.512C93.7882 18.7547 93.7229 18.9227 93.5922 19.016C93.4709 19.1093 93.2702 19.156 92.9902 19.156ZM99.3814 19.968C100.044 19.968 100.557 20.108 100.921 20.388C101.285 20.6587 101.537 21.0273 101.677 21.494C101.827 21.9513 101.901 22.4647 101.901 23.034V26.786C101.901 26.9913 101.831 27.164 101.691 27.304C101.561 27.4347 101.397 27.5 101.201 27.5C100.996 27.5 100.828 27.4347 100.697 27.304C100.567 27.164 100.501 26.9913 100.501 26.786V23.048C100.501 22.712 100.455 22.4133 100.361 22.152C100.268 21.8813 100.105 21.6667 99.8714 21.508C99.6474 21.34 99.3301 21.256 98.9194 21.256C98.5368 21.256 98.2008 21.34 97.9114 21.508C97.6221 21.6667 97.3934 21.8813 97.2254 22.152C97.0668 22.4133 96.9874 22.712 96.9874 23.048V26.786C96.9874 26.9913 96.9174 27.164 96.7774 27.304C96.6468 27.4347 96.4834 27.5 96.2874 27.5C96.0821 27.5 95.9141 27.4347 95.7834 27.304C95.6528 27.164 95.5874 26.9913 95.5874 26.786V20.85C95.5874 20.6447 95.6528 20.4767 95.7834 20.346C95.9141 20.206 96.0821 20.136 96.2874 20.136C96.4834 20.136 96.6468 20.206 96.7774 20.346C96.9174 20.4767 96.9874 20.6447 96.9874 20.85V21.634L96.7354 21.774C96.8008 21.5687 96.9128 21.3633 97.0714 21.158C97.2394 20.9433 97.4401 20.7473 97.6734 20.57C97.9068 20.3833 98.1681 20.2387 98.4574 20.136C98.7468 20.024 99.0548 19.968 99.3814 19.968ZM107.275 27.64C106.501 27.64 105.829 27.4813 105.259 27.164C104.69 26.8373 104.247 26.394 103.929 25.834C103.621 25.2647 103.467 24.616 103.467 23.888C103.467 23.0667 103.631 22.3667 103.957 21.788C104.293 21.2 104.727 20.752 105.259 20.444C105.791 20.1267 106.356 19.968 106.953 19.968C107.411 19.968 107.845 20.0613 108.255 20.248C108.666 20.4253 109.03 20.6773 109.347 21.004C109.674 21.3213 109.931 21.6993 110.117 22.138C110.304 22.5673 110.402 23.0387 110.411 23.552C110.402 23.7387 110.327 23.8927 110.187 24.014C110.047 24.1353 109.884 24.196 109.697 24.196H104.251L103.915 23.006H109.179L108.913 23.258V22.908C108.895 22.5813 108.787 22.2967 108.591 22.054C108.395 21.802 108.153 21.6107 107.863 21.48C107.574 21.34 107.271 21.27 106.953 21.27C106.673 21.27 106.403 21.3167 106.141 21.41C105.889 21.494 105.661 21.634 105.455 21.83C105.259 22.026 105.101 22.2873 104.979 22.614C104.867 22.9313 104.811 23.328 104.811 23.804C104.811 24.3173 104.919 24.7653 105.133 25.148C105.348 25.5307 105.637 25.8293 106.001 26.044C106.365 26.2493 106.767 26.352 107.205 26.352C107.551 26.352 107.835 26.3193 108.059 26.254C108.283 26.1793 108.47 26.0907 108.619 25.988C108.769 25.8853 108.899 25.7873 109.011 25.694C109.151 25.61 109.291 25.568 109.431 25.568C109.599 25.568 109.739 25.6287 109.851 25.75C109.963 25.862 110.019 25.9973 110.019 26.156C110.019 26.3613 109.917 26.548 109.711 26.716C109.459 26.9587 109.109 27.1733 108.661 27.36C108.223 27.5467 107.761 27.64 107.275 27.64ZM112.694 27.5C112.488 27.5 112.32 27.4347 112.19 27.304C112.059 27.164 111.994 26.9913 111.994 26.786V20.85C111.994 20.6447 112.059 20.4767 112.19 20.346C112.32 20.206 112.488 20.136 112.694 20.136C112.89 20.136 113.053 20.206 113.184 20.346C113.324 20.4767 113.394 20.6447 113.394 20.85V22.418L113.254 21.816C113.328 21.5547 113.44 21.312 113.59 21.088C113.748 20.864 113.935 20.668 114.15 20.5C114.364 20.332 114.602 20.2013 114.864 20.108C115.134 20.0147 115.414 19.968 115.704 19.968C115.946 19.968 116.156 20.0333 116.334 20.164C116.511 20.2947 116.6 20.458 116.6 20.654C116.6 20.906 116.534 21.0927 116.404 21.214C116.273 21.326 116.128 21.382 115.97 21.382C115.83 21.382 115.694 21.354 115.564 21.298C115.433 21.2327 115.279 21.2 115.102 21.2C114.906 21.2 114.705 21.2513 114.5 21.354C114.294 21.4567 114.108 21.6107 113.94 21.816C113.772 22.012 113.636 22.2453 113.534 22.516C113.44 22.7867 113.394 23.09 113.394 23.426V26.786C113.394 26.9913 113.324 27.164 113.184 27.304C113.053 27.4347 112.89 27.5 112.694 27.5Z" fill="#4A4A4A"/>
<defs>
<clipPath id="clip0_4281_6120">
<rect width="41.5135" height="32" fill="white" transform="translate(6 6)"/>
</clipPath>
</defs>
</svg>
