<svg width="74" height="44" viewBox="0 0 74 44" fill="none" xmlns="http://www.w3.org/2000/svg">
<rect width="74" height="44" rx="10" fill="white"/>
<path d="M10.6266 34.8L8.07422 6H36.3028L33.7504 34.8L22.2075 38L10.7028 34.8H10.6266Z" fill="#264DE4"/>
<path d="M31.4974 32.9748L33.7069 8.36523H22.1641V35.5652L31.4974 32.9748Z" fill="#2965F1"/>
<path d="M13.9338 19.0242L14.2385 22.5671H22.1242V19.0242H13.8957H13.9338ZM13.629 15.4052H22.1623V11.8623H13.2861L13.5909 15.4052H13.629ZM22.1623 28.2052L18.2385 27.1385L17.9718 24.3194H14.429L14.9242 29.8813L22.1623 31.9004V28.2052Z" fill="white"/>
<path d="M22.1641 19.0306V22.5734H26.5069L26.0879 27.1448L22.1641 28.2115V31.8687L29.4022 29.8496V29.2401C29.4403 29.2401 30.2783 19.9448 30.2783 19.9448L30.3545 18.9925L31.0022 11.8306H22.1641V15.3734H27.1545L26.8498 18.9925H22.2022L22.1641 19.0306Z" fill="white"/>
<path d="M50.092 18.26C50.2973 18.3627 50.414 18.5213 50.442 18.736C50.4793 18.9507 50.428 19.1467 50.288 19.324C50.1853 19.464 50.05 19.5433 49.882 19.562C49.7233 19.5807 49.5647 19.548 49.406 19.464C49.1353 19.324 48.8507 19.212 48.552 19.128C48.2533 19.044 47.936 19.002 47.6 19.002C47.068 19.002 46.5873 19.0907 46.158 19.268C45.738 19.436 45.374 19.6833 45.066 20.01C44.758 20.3273 44.52 20.7053 44.352 21.144C44.1933 21.5827 44.114 22.068 44.114 22.6C44.114 23.188 44.2027 23.7107 44.38 24.168C44.5573 24.616 44.8 24.9987 45.108 25.316C45.4253 25.624 45.794 25.8573 46.214 26.016C46.6433 26.1653 47.1053 26.24 47.6 26.24C47.9173 26.24 48.2253 26.2027 48.524 26.128C48.832 26.0533 49.1213 25.9413 49.392 25.792C49.56 25.708 49.7233 25.68 49.882 25.708C50.05 25.7267 50.1853 25.806 50.288 25.946C50.4467 26.142 50.5027 26.3427 50.456 26.548C50.4187 26.744 50.302 26.8933 50.106 26.996C49.8727 27.1267 49.616 27.2387 49.336 27.332C49.056 27.4253 48.7713 27.5 48.482 27.556C48.1927 27.612 47.8987 27.64 47.6 27.64C46.928 27.64 46.2933 27.528 45.696 27.304C45.0987 27.08 44.5667 26.7533 44.1 26.324C43.6333 25.8947 43.2647 25.3673 42.994 24.742C42.7327 24.1167 42.602 23.4027 42.602 22.6C42.602 21.8813 42.7233 21.2187 42.966 20.612C43.218 19.996 43.568 19.4687 44.016 19.03C44.4733 18.582 45.0053 18.2367 45.612 17.994C46.2187 17.742 46.8813 17.616 47.6 17.616C48.048 17.616 48.482 17.672 48.902 17.784C49.3313 17.896 49.728 18.0547 50.092 18.26ZM55.0444 27.64C54.3724 27.64 53.7751 27.5467 53.2524 27.36C52.7297 27.1733 52.2304 26.8653 51.7544 26.436C51.6517 26.3613 51.5724 26.2727 51.5164 26.17C51.4697 26.058 51.4464 25.946 51.4464 25.834C51.4464 25.6567 51.5117 25.498 51.6424 25.358C51.7731 25.218 51.9364 25.148 52.1324 25.148C52.2817 25.148 52.4217 25.1993 52.5524 25.302C52.9071 25.6287 53.2757 25.876 53.6584 26.044C54.0504 26.212 54.5077 26.296 55.0304 26.296C55.4037 26.296 55.7444 26.2353 56.0524 26.114C56.3697 25.9927 56.6217 25.8293 56.8084 25.624C56.9951 25.4187 57.0884 25.1807 57.0884 24.91C57.0884 24.574 56.9904 24.2987 56.7944 24.084C56.6077 23.86 56.3324 23.678 55.9684 23.538C55.6137 23.3887 55.1844 23.2627 54.6804 23.16C54.2137 23.076 53.7937 22.9593 53.4204 22.81C53.0564 22.6607 52.7437 22.474 52.4824 22.25C52.2211 22.0167 52.0204 21.7413 51.8804 21.424C51.7404 21.1067 51.6704 20.738 51.6704 20.318C51.6704 19.7487 51.8197 19.2587 52.1184 18.848C52.4171 18.4373 52.8231 18.12 53.3364 17.896C53.8497 17.672 54.4284 17.56 55.0724 17.56C55.6604 17.56 56.2111 17.6533 56.7244 17.84C57.2377 18.0173 57.6531 18.26 57.9704 18.568C58.1944 18.764 58.3064 18.974 58.3064 19.198C58.3064 19.366 58.2364 19.5247 58.0964 19.674C57.9657 19.814 57.8117 19.884 57.6344 19.884C57.5037 19.884 57.3917 19.8467 57.2984 19.772C57.1491 19.6133 56.9484 19.4733 56.6964 19.352C56.4444 19.2213 56.1737 19.114 55.8844 19.03C55.6044 18.946 55.3337 18.904 55.0724 18.904C54.6524 18.904 54.2931 18.9647 53.9944 19.086C53.6957 19.198 53.4671 19.3567 53.3084 19.562C53.1497 19.758 53.0704 19.9913 53.0704 20.262C53.0704 20.5793 53.1591 20.8407 53.3364 21.046C53.5231 21.2513 53.7797 21.4193 54.1064 21.55C54.4331 21.6713 54.8064 21.7833 55.2264 21.886C55.7397 21.998 56.1971 22.124 56.5984 22.264C57.0091 22.404 57.3544 22.586 57.6344 22.81C57.9144 23.0247 58.1291 23.2953 58.2784 23.622C58.4277 23.9487 58.5024 24.3547 58.5024 24.84C58.5024 25.4 58.3437 25.89 58.0264 26.31C57.7091 26.73 57.2891 27.0567 56.7664 27.29C56.2531 27.5233 55.6791 27.64 55.0444 27.64ZM63.2338 27.64C62.5618 27.64 61.9645 27.5467 61.4418 27.36C60.9192 27.1733 60.4198 26.8653 59.9438 26.436C59.8412 26.3613 59.7618 26.2727 59.7058 26.17C59.6592 26.058 59.6358 25.946 59.6358 25.834C59.6358 25.6567 59.7012 25.498 59.8318 25.358C59.9625 25.218 60.1258 25.148 60.3218 25.148C60.4712 25.148 60.6112 25.1993 60.7418 25.302C61.0965 25.6287 61.4652 25.876 61.8478 26.044C62.2398 26.212 62.6972 26.296 63.2198 26.296C63.5932 26.296 63.9338 26.2353 64.2418 26.114C64.5592 25.9927 64.8112 25.8293 64.9978 25.624C65.1845 25.4187 65.2778 25.1807 65.2778 24.91C65.2778 24.574 65.1798 24.2987 64.9838 24.084C64.7972 23.86 64.5218 23.678 64.1578 23.538C63.8032 23.3887 63.3738 23.2627 62.8698 23.16C62.4032 23.076 61.9832 22.9593 61.6098 22.81C61.2458 22.6607 60.9332 22.474 60.6718 22.25C60.4105 22.0167 60.2098 21.7413 60.0698 21.424C59.9298 21.1067 59.8598 20.738 59.8598 20.318C59.8598 19.7487 60.0092 19.2587 60.3078 18.848C60.6065 18.4373 61.0125 18.12 61.5258 17.896C62.0392 17.672 62.6178 17.56 63.2618 17.56C63.8498 17.56 64.4005 17.6533 64.9138 17.84C65.4272 18.0173 65.8425 18.26 66.1598 18.568C66.3838 18.764 66.4958 18.974 66.4958 19.198C66.4958 19.366 66.4258 19.5247 66.2858 19.674C66.1552 19.814 66.0012 19.884 65.8238 19.884C65.6932 19.884 65.5812 19.8467 65.4878 19.772C65.3385 19.6133 65.1378 19.4733 64.8858 19.352C64.6338 19.2213 64.3632 19.114 64.0738 19.03C63.7938 18.946 63.5232 18.904 63.2618 18.904C62.8418 18.904 62.4825 18.9647 62.1838 19.086C61.8852 19.198 61.6565 19.3567 61.4978 19.562C61.3392 19.758 61.2598 19.9913 61.2598 20.262C61.2598 20.5793 61.3485 20.8407 61.5258 21.046C61.7125 21.2513 61.9692 21.4193 62.2958 21.55C62.6225 21.6713 62.9958 21.7833 63.4158 21.886C63.9292 21.998 64.3865 22.124 64.7878 22.264C65.1985 22.404 65.5438 22.586 65.8238 22.81C66.1038 23.0247 66.3185 23.2953 66.4678 23.622C66.6172 23.9487 66.6918 24.3547 66.6918 24.84C66.6918 25.4 66.5332 25.89 66.2158 26.31C65.8985 26.73 65.4785 27.0567 64.9558 27.29C64.4425 27.5233 63.8685 27.64 63.2338 27.64Z" fill="#4A4A4A"/>
</svg>
