<svg width="83" height="44" viewBox="0 0 83 44" fill="none" xmlns="http://www.w3.org/2000/svg">
<rect width="82.2286" height="44" rx="10" fill="white"/>
<path d="M8.55238 34.8L6 6H34.2286L31.6762 34.8L20.0952 38" fill="#E44D26"/>
<path d="M20.0952 35.5599V8.35986H31.6381L29.4286 32.9313" fill="#F16529"/>
<path d="M11.2222 11.9048H20.0984V15.4476H15.1079L15.4507 19.0667H20.1365V22.5715H12.2507M12.365 24.3238H15.9079L16.1745 27.1429L20.1365 28.2095V31.9048L12.8984 29.8857" fill="white"/>
<path d="M28.9343 11.9048H20.0962V15.4476H28.6295M28.2867 19.0286H20.0962V22.5715H24.4391L24.02 27.1429L20.0581 28.2096V31.8667L27.2962 29.8476" fill="white"/>
<path d="M40.1185 17.7C40.3052 17.7 40.4685 17.77 40.6085 17.91C40.7578 18.0407 40.8325 18.2087 40.8325 18.414V26.786C40.8232 26.9913 40.7438 27.164 40.5945 27.304C40.4545 27.4347 40.2865 27.5 40.0905 27.5C39.8758 27.5 39.6985 27.4347 39.5585 27.304C39.4278 27.164 39.3625 26.9913 39.3625 26.786V18.414C39.3625 18.2087 39.4325 18.0407 39.5725 17.91C39.7125 17.77 39.8945 17.7 40.1185 17.7ZM46.4325 17.7C46.6565 17.7 46.8338 17.77 46.9645 17.91C47.0952 18.0407 47.1605 18.2087 47.1605 18.414V26.786C47.1605 26.9913 47.0905 27.164 46.9505 27.304C46.8198 27.4347 46.6425 27.5 46.4185 27.5C46.2225 27.5 46.0545 27.4347 45.9145 27.304C45.7745 27.164 45.7045 26.9913 45.7045 26.786V18.414C45.7045 18.2087 45.7745 18.0407 45.9145 17.91C46.0638 17.77 46.2365 17.7 46.4325 17.7ZM40.0625 21.872H46.4465L46.4325 23.216H40.0485L40.0625 21.872ZM52.617 27.5C52.393 27.5 52.211 27.4347 52.071 27.304C51.9403 27.164 51.875 26.9913 51.875 26.786V18.4H53.373V26.786C53.373 26.9913 53.2983 27.164 53.149 27.304C53.009 27.4347 52.8317 27.5 52.617 27.5ZM49.439 19.044C49.243 19.044 49.075 18.9833 48.935 18.862C48.795 18.7313 48.725 18.5633 48.725 18.358C48.725 18.162 48.795 18.0033 48.935 17.882C49.075 17.7607 49.243 17.7 49.439 17.7H55.809C56.005 17.7 56.1683 17.7653 56.299 17.896C56.439 18.0173 56.509 18.176 56.509 18.372C56.509 18.5773 56.439 18.7407 56.299 18.862C56.1683 18.9833 56.005 19.044 55.809 19.044H49.439ZM58.821 17.686C58.933 17.686 59.0497 17.714 59.171 17.77C59.2923 17.826 59.3857 17.9053 59.451 18.008L63.007 23.426L62.405 23.398L66.031 18.008C66.1803 17.7933 66.3717 17.686 66.605 17.686C66.7917 17.686 66.955 17.756 67.095 17.896C67.2443 18.0267 67.319 18.1947 67.319 18.4V26.786C67.319 26.9913 67.2537 27.164 67.123 27.304C66.9923 27.4347 66.8197 27.5 66.605 27.5C66.381 27.5 66.199 27.4347 66.059 27.304C65.9283 27.164 65.863 26.9913 65.863 26.786V19.688L66.311 19.786L63.231 24.476C63.1657 24.56 63.0817 24.6347 62.979 24.7C62.8763 24.756 62.769 24.7793 62.657 24.77C62.5543 24.7793 62.447 24.756 62.335 24.7C62.2323 24.6347 62.1483 24.56 62.083 24.476L59.115 19.856L59.451 19.296V26.786C59.451 26.9913 59.3857 27.164 59.255 27.304C59.1337 27.4347 58.9703 27.5 58.765 27.5C58.569 27.5 58.4057 27.4347 58.275 27.304C58.1537 27.164 58.093 26.9913 58.093 26.786V18.4C58.093 18.204 58.163 18.036 58.303 17.896C58.4523 17.756 58.625 17.686 58.821 17.686ZM75.0227 26.128C75.2187 26.128 75.382 26.1933 75.5127 26.324C75.6527 26.4547 75.7227 26.618 75.7227 26.814C75.7227 27.01 75.6527 27.1733 75.5127 27.304C75.382 27.4347 75.2187 27.5 75.0227 27.5H70.3187C70.1134 27.5 69.9407 27.4347 69.8007 27.304C69.67 27.164 69.6047 26.9913 69.6047 26.786V18.414C69.6047 18.2087 69.6747 18.0407 69.8147 17.91C69.9547 17.77 70.1367 17.7 70.3607 17.7C70.5474 17.7 70.7107 17.77 70.8507 17.91C71 18.0407 71.0747 18.2087 71.0747 18.414V26.366L70.7807 26.128H75.0227Z" fill="#4A4A4A"/>
</svg>
