<svg width="96" height="44" viewBox="0 0 96 44" fill="none" xmlns="http://www.w3.org/2000/svg">
<rect width="96" height="44" rx="10" fill="white"/>
<mask id="mask0_4281_6126" style="mask-type:luminance" maskUnits="userSpaceOnUse" x="6" y="6" width="32" height="32">
<path d="M38 6H6V38H38V6Z" fill="white"/>
</mask>
<g mask="url(#mask0_4281_6126)">
<path fill-rule="evenodd" clip-rule="evenodd" d="M9.45744 14.3616H21.9822V12.9857H14.3262V9.49283C14.3262 9.49283 14.3262 6 21.9822 6C29.6383 6 29.6383 9.49283 29.6383 9.49283C29.6383 9.49283 29.7088 15.7023 29.6383 17.8192C29.6383 19.9361 28.227 21.3473 26.1101 21.3473H17.7485C14.9613 21.3473 12.8797 23.4289 12.8797 26.2161V29.7089H9.38688C9.38688 29.7089 5.89404 29.7089 5.89404 22.0529C5.89404 14.3969 9.38688 14.3969 9.38688 14.3969L9.45744 14.3616ZM19.195 9.49283C19.195 10.269 18.56 10.8688 17.8191 10.8688C17.0782 10.8688 16.4431 10.2337 16.4431 9.49283C16.4431 8.75193 17.0782 8.11687 17.8191 8.11687C18.56 8.11687 19.195 8.75193 19.195 9.49283Z" fill="#0B5EA2"/>
<path fill-rule="evenodd" clip-rule="evenodd" d="M34.507 29.6383H21.9822V31.0143H29.6382V34.5071C29.6382 34.5071 29.6382 37.9999 21.9822 37.9999C14.3262 37.9999 14.3262 34.5071 14.3262 34.5071V26.1455C14.3262 24.0639 15.7021 22.6526 17.819 22.6526H26.1806C28.9679 22.6526 31.0494 20.5711 31.0494 17.7838V14.291H34.5423C34.5423 14.291 38.0351 14.291 38.0351 21.947C38.0351 29.603 34.5423 29.603 34.5423 29.603L34.507 29.6383ZM27.5566 34.5071C27.5566 35.2833 26.9215 35.8831 26.1806 35.8831C25.4397 35.8831 24.8047 35.248 24.8047 34.5071C24.8047 33.7662 25.4397 33.1311 26.1806 33.1311C26.9215 33.1311 27.5566 33.7662 27.5566 34.5071Z" fill="#FFC331"/>
</g>
<path d="M47.082 17.7C47.5767 17.7 48.034 17.8353 48.454 18.106C48.874 18.3673 49.21 18.7267 49.462 19.184C49.714 19.6413 49.84 20.1547 49.84 20.724C49.84 21.2933 49.714 21.8113 49.462 22.278C49.21 22.7353 48.874 23.104 48.454 23.384C48.034 23.6547 47.5767 23.79 47.082 23.79H44.38L44.492 23.566V26.786C44.492 26.9913 44.4267 27.164 44.296 27.304C44.1747 27.4347 44.0113 27.5 43.806 27.5C43.61 27.5 43.4467 27.4347 43.316 27.304C43.1947 27.164 43.134 26.9913 43.134 26.786V18.414C43.134 18.2087 43.204 18.0407 43.344 17.91C43.484 17.77 43.652 17.7 43.848 17.7H47.082ZM47.082 22.446C47.3247 22.446 47.544 22.3667 47.74 22.208C47.9453 22.0493 48.1087 21.8393 48.23 21.578C48.3607 21.3167 48.426 21.032 48.426 20.724C48.426 20.416 48.3607 20.136 48.23 19.884C48.1087 19.632 47.9453 19.4313 47.74 19.282C47.544 19.1233 47.3247 19.044 47.082 19.044H44.352L44.492 18.834V22.628L44.366 22.446H47.082ZM56.9989 20.08C57.2043 20.08 57.3723 20.15 57.5029 20.29C57.6336 20.4207 57.6989 20.5887 57.6989 20.794V26.814C57.6989 27.6353 57.5403 28.3027 57.2229 28.816C56.9149 29.3293 56.4949 29.7027 55.9629 29.936C55.4403 30.1787 54.8476 30.3 54.1849 30.3C53.8489 30.3 53.5129 30.2673 53.1769 30.202C52.8409 30.146 52.5656 30.062 52.3509 29.95C52.1269 29.8473 51.9683 29.7213 51.8749 29.572C51.7816 29.4227 51.7676 29.2593 51.8329 29.082C51.8983 28.858 52.0103 28.704 52.1689 28.62C52.3276 28.5453 52.4909 28.5407 52.6589 28.606C52.8176 28.6713 53.0276 28.7553 53.2889 28.858C53.5503 28.9607 53.8489 29.012 54.1849 29.012C54.6423 29.012 55.0296 28.9373 55.3469 28.788C55.6643 28.6387 55.9023 28.4053 56.0609 28.088C56.2289 27.7707 56.3129 27.36 56.3129 26.856V25.89L56.5369 26.226C56.3876 26.534 56.1916 26.7907 55.9489 26.996C55.7063 27.2013 55.4169 27.36 55.0809 27.472C54.7543 27.584 54.3903 27.64 53.9889 27.64C53.4756 27.64 53.0323 27.528 52.6589 27.304C52.2949 27.0707 52.0149 26.7533 51.8189 26.352C51.6229 25.9413 51.5249 25.4747 51.5249 24.952V20.794C51.5249 20.5887 51.5903 20.4207 51.7209 20.29C51.8516 20.15 52.0196 20.08 52.2249 20.08C52.4209 20.08 52.5843 20.15 52.7149 20.29C52.8549 20.4207 52.9249 20.5887 52.9249 20.794V24.574C52.9249 25.19 53.0603 25.6427 53.3309 25.932C53.6016 26.212 54.0029 26.352 54.5349 26.352C54.8896 26.352 55.1976 26.2773 55.4589 26.128C55.7203 25.9787 55.9256 25.7733 56.0749 25.512C56.2243 25.2413 56.2989 24.9287 56.2989 24.574V20.794C56.2989 20.5887 56.3643 20.4207 56.4949 20.29C56.6349 20.15 56.8029 20.08 56.9989 20.08ZM59.5617 20.22H62.8517C63.0384 20.22 63.1924 20.2853 63.3137 20.416C63.4444 20.5373 63.5097 20.6913 63.5097 20.878C63.5097 21.0553 63.4444 21.2047 63.3137 21.326C63.1924 21.4473 63.0384 21.508 62.8517 21.508H59.5617C59.375 21.508 59.2164 21.4473 59.0857 21.326C58.9644 21.1953 58.9037 21.0413 58.9037 20.864C58.9037 20.6773 58.9644 20.5233 59.0857 20.402C59.2164 20.2807 59.375 20.22 59.5617 20.22ZM61.0317 18.4C61.237 18.4 61.405 18.47 61.5357 18.61C61.6664 18.7407 61.7317 18.9087 61.7317 19.114V25.61C61.7317 25.778 61.7597 25.9133 61.8157 26.016C61.8717 26.1187 61.9464 26.1887 62.0397 26.226C62.1424 26.2633 62.245 26.282 62.3477 26.282C62.4504 26.282 62.539 26.2633 62.6137 26.226C62.6977 26.1887 62.7957 26.17 62.9077 26.17C63.0197 26.17 63.1224 26.2213 63.2157 26.324C63.309 26.4267 63.3557 26.5667 63.3557 26.744C63.3557 26.968 63.2344 27.15 62.9917 27.29C62.749 27.43 62.4877 27.5 62.2077 27.5C62.049 27.5 61.8624 27.486 61.6477 27.458C61.433 27.43 61.223 27.36 61.0177 27.248C60.8217 27.136 60.6584 26.9587 60.5277 26.716C60.397 26.464 60.3317 26.114 60.3317 25.666V19.114C60.3317 18.9087 60.397 18.7407 60.5277 18.61C60.6677 18.47 60.8357 18.4 61.0317 18.4ZM68.7701 20.01C69.4141 20.01 69.9134 20.15 70.2681 20.43C70.6227 20.7007 70.8701 21.0693 71.0101 21.536C71.1594 22.0027 71.2341 22.516 71.2341 23.076V26.786C71.2341 26.9913 71.1641 27.164 71.0241 27.304C70.8934 27.4347 70.7301 27.5 70.5341 27.5C70.3287 27.5 70.1607 27.4347 70.0301 27.304C69.8994 27.164 69.8341 26.9913 69.8341 26.786V23.076C69.8341 22.7493 69.7874 22.4507 69.6941 22.18C69.6101 21.9093 69.4561 21.6947 69.2321 21.536C69.0174 21.3773 68.7141 21.298 68.3221 21.298C67.9581 21.298 67.6314 21.3773 67.3421 21.536C67.0621 21.6947 66.8427 21.9093 66.6841 22.18C66.5347 22.4507 66.4601 22.7493 66.4601 23.076V26.786C66.4601 26.9913 66.3901 27.164 66.2501 27.304C66.1194 27.4347 65.9561 27.5 65.7601 27.5C65.5547 27.5 65.3867 27.4347 65.2561 27.304C65.1254 27.164 65.0601 26.9913 65.0601 26.786V17.854C65.0601 17.6487 65.1254 17.4807 65.2561 17.35C65.3867 17.21 65.5547 17.14 65.7601 17.14C65.9561 17.14 66.1194 17.21 66.2501 17.35C66.3901 17.4807 66.4601 17.6487 66.4601 17.854V21.676L66.2081 21.816C66.2734 21.6107 66.3807 21.4007 66.5301 21.186C66.6887 20.9713 66.8801 20.7753 67.1041 20.598C67.3374 20.4207 67.5941 20.2807 67.8741 20.178C68.1541 20.066 68.4527 20.01 68.7701 20.01ZM80.2372 23.818C80.2372 24.5647 80.0738 25.2273 79.7472 25.806C79.4205 26.3753 78.9772 26.8233 78.4172 27.15C77.8572 27.4767 77.2272 27.64 76.5272 27.64C75.8272 27.64 75.1972 27.4767 74.6372 27.15C74.0772 26.8233 73.6292 26.3753 73.2932 25.806C72.9665 25.2273 72.8032 24.5647 72.8032 23.818C72.8032 23.062 72.9665 22.3993 73.2932 21.83C73.6292 21.2513 74.0772 20.7987 74.6372 20.472C75.1972 20.136 75.8272 19.968 76.5272 19.968C77.2272 19.968 77.8572 20.136 78.4172 20.472C78.9772 20.7987 79.4205 21.2513 79.7472 21.83C80.0738 22.3993 80.2372 23.062 80.2372 23.818ZM78.8372 23.818C78.8372 23.3047 78.7345 22.8613 78.5292 22.488C78.3238 22.1053 78.0438 21.8067 77.6892 21.592C77.3438 21.368 76.9565 21.256 76.5272 21.256C76.0978 21.256 75.7058 21.368 75.3512 21.592C74.9965 21.8067 74.7165 22.1053 74.5112 22.488C74.3058 22.8613 74.2032 23.3047 74.2032 23.818C74.2032 24.3127 74.3058 24.7513 74.5112 25.134C74.7165 25.5167 74.9965 25.8153 75.3512 26.03C75.7058 26.2447 76.0978 26.352 76.5272 26.352C76.9565 26.352 77.3438 26.2447 77.6892 26.03C78.0438 25.8153 78.3238 25.5167 78.5292 25.134C78.7345 24.7513 78.8372 24.3127 78.8372 23.818ZM85.6158 19.968C86.2785 19.968 86.7918 20.108 87.1558 20.388C87.5198 20.6587 87.7718 21.0273 87.9118 21.494C88.0611 21.9513 88.1358 22.4647 88.1358 23.034V26.786C88.1358 26.9913 88.0658 27.164 87.9258 27.304C87.7951 27.4347 87.6318 27.5 87.4358 27.5C87.2305 27.5 87.0625 27.4347 86.9318 27.304C86.8011 27.164 86.7358 26.9913 86.7358 26.786V23.048C86.7358 22.712 86.6891 22.4133 86.5958 22.152C86.5025 21.8813 86.3391 21.6667 86.1058 21.508C85.8818 21.34 85.5645 21.256 85.1538 21.256C84.7711 21.256 84.4351 21.34 84.1458 21.508C83.8565 21.6667 83.6278 21.8813 83.4598 22.152C83.3011 22.4133 83.2218 22.712 83.2218 23.048V26.786C83.2218 26.9913 83.1518 27.164 83.0118 27.304C82.8811 27.4347 82.7178 27.5 82.5218 27.5C82.3165 27.5 82.1485 27.4347 82.0178 27.304C81.8871 27.164 81.8218 26.9913 81.8218 26.786V20.85C81.8218 20.6447 81.8871 20.4767 82.0178 20.346C82.1485 20.206 82.3165 20.136 82.5218 20.136C82.7178 20.136 82.8811 20.206 83.0118 20.346C83.1518 20.4767 83.2218 20.6447 83.2218 20.85V21.634L82.9698 21.774C83.0351 21.5687 83.1471 21.3633 83.3058 21.158C83.4738 20.9433 83.6745 20.7473 83.9078 20.57C84.1411 20.3833 84.4025 20.2387 84.6918 20.136C84.9811 20.024 85.2891 19.968 85.6158 19.968Z" fill="#4A4A4A"/>
</svg>
