<svg width="111" height="44" viewBox="0 0 111 44" fill="none" xmlns="http://www.w3.org/2000/svg">
<rect width="111" height="44" rx="10" fill="white"/>
<g clip-path="url(#clip0_4281_6127)">
<mask id="mask0_4281_6127" style="mask-type:luminance" maskUnits="userSpaceOnUse" x="6" y="6" width="32" height="32">
<path d="M38 6H6V38H38V6Z" fill="white"/>
</mask>
<g mask="url(#mask0_4281_6127)">
<rect x="9.18848" y="8.3999" width="24" height="24.4" rx="3" fill="white"/>
<path fill-rule="evenodd" clip-rule="evenodd" d="M31.6 6H12.4C8.86538 6 6 8.86538 6 12.4V31.6C6 35.1346 8.86538 38 12.4 38H31.6C35.1346 38 38 35.1346 38 31.6V12.4C38 8.86538 35.1346 6 31.6 6ZM12.4287 12.4V14.2036L16.478 16.3464L12.4 18.5607V20.4L18 17.2393V15.6143L12.4287 12.4ZM19.4406 20.4H25.8406V22.32H19.4406V20.4Z" fill="#404040"/>
</g>
</g>
<path d="M46.144 21.14C45.472 21.14 44.8747 21.0467 44.352 20.86C43.8293 20.6733 43.33 20.3653 42.854 19.936C42.7513 19.8613 42.672 19.7727 42.616 19.67C42.5693 19.558 42.546 19.446 42.546 19.334C42.546 19.1567 42.6113 18.998 42.742 18.858C42.8727 18.718 43.036 18.648 43.232 18.648C43.3813 18.648 43.5213 18.6993 43.652 18.802C44.0067 19.1287 44.3753 19.376 44.758 19.544C45.15 19.712 45.6073 19.796 46.13 19.796C46.5033 19.796 46.844 19.7353 47.152 19.614C47.4693 19.4927 47.7213 19.3293 47.908 19.124C48.0947 18.9187 48.188 18.6807 48.188 18.41C48.188 18.074 48.09 17.7987 47.894 17.584C47.7073 17.36 47.432 17.178 47.068 17.038C46.7133 16.8887 46.284 16.7627 45.78 16.66C45.3133 16.576 44.8933 16.4593 44.52 16.31C44.156 16.1607 43.8433 15.974 43.582 15.75C43.3207 15.5167 43.12 15.2413 42.98 14.924C42.84 14.6067 42.77 14.238 42.77 13.818C42.77 13.2487 42.9193 12.7587 43.218 12.348C43.5167 11.9373 43.9227 11.62 44.436 11.396C44.9493 11.172 45.528 11.06 46.172 11.06C46.76 11.06 47.3107 11.1533 47.824 11.34C48.3373 11.5173 48.7527 11.76 49.07 12.068C49.294 12.264 49.406 12.474 49.406 12.698C49.406 12.866 49.336 13.0247 49.196 13.174C49.0653 13.314 48.9113 13.384 48.734 13.384C48.6033 13.384 48.4913 13.3467 48.398 13.272C48.2487 13.1133 48.048 12.9733 47.796 12.852C47.544 12.7213 47.2733 12.614 46.984 12.53C46.704 12.446 46.4333 12.404 46.172 12.404C45.752 12.404 45.3927 12.4647 45.094 12.586C44.7953 12.698 44.5667 12.8567 44.408 13.062C44.2493 13.258 44.17 13.4913 44.17 13.762C44.17 14.0793 44.2587 14.3407 44.436 14.546C44.6227 14.7513 44.8793 14.9193 45.206 15.05C45.5327 15.1713 45.906 15.2833 46.326 15.386C46.8393 15.498 47.2967 15.624 47.698 15.764C48.1087 15.904 48.454 16.086 48.734 16.31C49.014 16.5247 49.2287 16.7953 49.378 17.122C49.5273 17.4487 49.602 17.8547 49.602 18.34C49.602 18.9 49.4433 19.39 49.126 19.81C48.8087 20.23 48.3887 20.5567 47.866 20.79C47.3527 21.0233 46.7787 21.14 46.144 21.14ZM54.8795 13.51C55.5235 13.51 56.0228 13.65 56.3775 13.93C56.7321 14.2007 56.9795 14.5693 57.1195 15.036C57.2688 15.5027 57.3435 16.016 57.3435 16.576V20.286C57.3435 20.4913 57.2735 20.664 57.1335 20.804C57.0028 20.9347 56.8395 21 56.6435 21C56.4381 21 56.2701 20.9347 56.1395 20.804C56.0088 20.664 55.9435 20.4913 55.9435 20.286V16.576C55.9435 16.2493 55.8968 15.9507 55.8035 15.68C55.7195 15.4093 55.5655 15.1947 55.3415 15.036C55.1268 14.8773 54.8235 14.798 54.4315 14.798C54.0675 14.798 53.7408 14.8773 53.4515 15.036C53.1715 15.1947 52.9521 15.4093 52.7935 15.68C52.6441 15.9507 52.5695 16.2493 52.5695 16.576V20.286C52.5695 20.4913 52.4995 20.664 52.3595 20.804C52.2288 20.9347 52.0655 21 51.8695 21C51.6641 21 51.4961 20.9347 51.3655 20.804C51.2348 20.664 51.1695 20.4913 51.1695 20.286V11.354C51.1695 11.1487 51.2348 10.9807 51.3655 10.85C51.4961 10.71 51.6641 10.64 51.8695 10.64C52.0655 10.64 52.2288 10.71 52.3595 10.85C52.4995 10.9807 52.5695 11.1487 52.5695 11.354V15.176L52.3175 15.316C52.3828 15.1107 52.4901 14.9007 52.6395 14.686C52.7981 14.4713 52.9895 14.2753 53.2135 14.098C53.4468 13.9207 53.7035 13.7807 53.9835 13.678C54.2635 13.566 54.5621 13.51 54.8795 13.51ZM62.7205 21.14C61.9459 21.14 61.2739 20.9813 60.7045 20.664C60.1352 20.3373 59.6919 19.894 59.3745 19.334C59.0665 18.7647 58.9125 18.116 58.9125 17.388C58.9125 16.5667 59.0759 15.8667 59.4025 15.288C59.7385 14.7 60.1725 14.252 60.7045 13.944C61.2365 13.6267 61.8012 13.468 62.3985 13.468C62.8559 13.468 63.2899 13.5613 63.7005 13.748C64.1112 13.9253 64.4752 14.1773 64.7925 14.504C65.1192 14.8213 65.3759 15.1993 65.5625 15.638C65.7492 16.0673 65.8472 16.5387 65.8565 17.052C65.8472 17.2387 65.7725 17.3927 65.6325 17.514C65.4925 17.6353 65.3292 17.696 65.1425 17.696H59.6965L59.3605 16.506H64.6245L64.3585 16.758V16.408C64.3399 16.0813 64.2325 15.7967 64.0365 15.554C63.8405 15.302 63.5979 15.1107 63.3085 14.98C63.0192 14.84 62.7159 14.77 62.3985 14.77C62.1185 14.77 61.8479 14.8167 61.5865 14.91C61.3345 14.994 61.1059 15.134 60.9005 15.33C60.7045 15.526 60.5459 15.7873 60.4245 16.114C60.3125 16.4313 60.2565 16.828 60.2565 17.304C60.2565 17.8173 60.3639 18.2653 60.5785 18.648C60.7932 19.0307 61.0825 19.3293 61.4465 19.544C61.8105 19.7493 62.2119 19.852 62.6505 19.852C62.9959 19.852 63.2805 19.8193 63.5045 19.754C63.7285 19.6793 63.9152 19.5907 64.0645 19.488C64.2139 19.3853 64.3445 19.2873 64.4565 19.194C64.5965 19.11 64.7365 19.068 64.8765 19.068C65.0445 19.068 65.1845 19.1287 65.2965 19.25C65.4085 19.362 65.4645 19.4973 65.4645 19.656C65.4645 19.8613 65.3619 20.048 65.1565 20.216C64.9045 20.4587 64.5545 20.6733 64.1065 20.86C63.6679 21.0467 63.2059 21.14 62.7205 21.14ZM68.951 20.286C68.951 20.4913 68.881 20.664 68.741 20.804C68.6103 20.9347 68.447 21 68.251 21C68.055 21 67.887 20.9347 67.747 20.804C67.6163 20.664 67.551 20.4913 67.551 20.286V11.354C67.551 11.1487 67.621 10.9807 67.761 10.85C67.901 10.71 68.069 10.64 68.265 10.64C68.4703 10.64 68.6337 10.71 68.755 10.85C68.8857 10.9807 68.951 11.1487 68.951 11.354V20.286ZM72.5467 20.286C72.5467 20.4913 72.4767 20.664 72.3367 20.804C72.206 20.9347 72.0427 21 71.8467 21C71.6507 21 71.4827 20.9347 71.3427 20.804C71.212 20.664 71.1467 20.4913 71.1467 20.286V11.354C71.1467 11.1487 71.2167 10.9807 71.3567 10.85C71.4967 10.71 71.6647 10.64 71.8607 10.64C72.066 10.64 72.2294 10.71 72.3507 10.85C72.4814 10.9807 72.5467 11.1487 72.5467 11.354V20.286ZM42.546 32.852C42.462 32.7213 42.4247 32.572 42.434 32.404C42.4433 32.2267 42.5413 32.0773 42.728 31.956C42.8587 31.872 42.994 31.8393 43.134 31.858C43.2833 31.8673 43.4233 31.9373 43.554 32.068C43.8153 32.3573 44.1047 32.586 44.422 32.754C44.7487 32.922 45.1407 33.006 45.598 33.006C45.7847 32.9967 45.976 32.9687 46.172 32.922C46.368 32.866 46.536 32.7727 46.676 32.642C46.816 32.502 46.886 32.3013 46.886 32.04C46.886 31.8067 46.8113 31.62 46.662 31.48C46.5127 31.34 46.3167 31.228 46.074 31.144C45.8313 31.0507 45.57 30.9667 45.29 30.892C44.9913 30.808 44.688 30.7147 44.38 30.612C44.0813 30.5093 43.8107 30.3787 43.568 30.22C43.3253 30.052 43.1247 29.8373 42.966 29.576C42.8167 29.3147 42.742 28.9927 42.742 28.61C42.742 28.1713 42.8633 27.7933 43.106 27.476C43.358 27.1587 43.68 26.9113 44.072 26.734C44.4733 26.5567 44.9073 26.468 45.374 26.468C45.6447 26.468 45.9293 26.5053 46.228 26.58C46.5267 26.6453 46.816 26.7527 47.096 26.902C47.376 27.0513 47.6187 27.2473 47.824 27.49C47.9173 27.6113 47.9687 27.756 47.978 27.924C47.9967 28.092 47.922 28.2413 47.754 28.372C47.642 28.4653 47.5067 28.5073 47.348 28.498C47.1893 28.4887 47.0587 28.4373 46.956 28.344C46.7787 28.12 46.55 27.9473 46.27 27.826C45.99 27.6953 45.6727 27.63 45.318 27.63C45.1407 27.63 44.954 27.658 44.758 27.714C44.5713 27.7607 44.4127 27.8493 44.282 27.98C44.1513 28.1107 44.086 28.302 44.086 28.554C44.086 28.7873 44.1607 28.974 44.31 29.114C44.4687 29.254 44.674 29.3707 44.926 29.464C45.178 29.5573 45.4533 29.6413 45.752 29.716C46.0413 29.7907 46.326 29.8793 46.606 29.982C46.8953 30.0847 47.152 30.22 47.376 30.388C47.6093 30.5467 47.796 30.7567 47.936 31.018C48.0853 31.27 48.16 31.592 48.16 31.984C48.16 32.4413 48.0247 32.8333 47.754 33.16C47.4927 33.4773 47.1567 33.72 46.746 33.888C46.3447 34.056 45.92 34.14 45.472 34.14C44.94 34.14 44.408 34.0467 43.876 33.86C43.3533 33.664 42.91 33.328 42.546 32.852ZM52.9275 26.468C53.4315 26.468 53.8795 26.524 54.2715 26.636C54.6635 26.7387 54.9669 26.888 55.1815 27.084C55.4055 27.2707 55.5175 27.49 55.5175 27.742C55.5175 27.9007 55.4709 28.05 55.3775 28.19C55.2842 28.3207 55.1442 28.386 54.9575 28.386C54.8269 28.386 54.7149 28.3627 54.6215 28.316C54.5375 28.2693 54.4582 28.2133 54.3835 28.148C54.3089 28.0827 54.2155 28.0173 54.1035 27.952C54.0009 27.896 53.8469 27.8493 53.6415 27.812C53.4455 27.7747 53.2682 27.756 53.1095 27.756C52.6149 27.756 52.1855 27.868 51.8215 28.092C51.4669 28.316 51.1869 28.6193 50.9815 29.002C50.7855 29.3847 50.6875 29.8187 50.6875 30.304C50.6875 30.7893 50.7855 31.2233 50.9815 31.606C51.1869 31.9887 51.4622 32.292 51.8075 32.516C52.1622 32.74 52.5729 32.852 53.0395 32.852C53.3195 32.852 53.5482 32.8333 53.7255 32.796C53.9029 32.7493 54.0569 32.6933 54.1875 32.628C54.3275 32.544 54.4442 32.46 54.5375 32.376C54.6402 32.2827 54.7802 32.236 54.9575 32.236C55.1629 32.236 55.3169 32.3013 55.4195 32.432C55.5315 32.5533 55.5875 32.7073 55.5875 32.894C55.5875 33.0993 55.4615 33.3 55.2095 33.496C54.9669 33.6827 54.6402 33.8367 54.2295 33.958C53.8189 34.0793 53.3662 34.14 52.8715 34.14C52.1435 34.14 51.5089 33.972 50.9675 33.636C50.4355 33.3 50.0202 32.8427 49.7215 32.264C49.4322 31.6853 49.2875 31.032 49.2875 30.304C49.2875 29.5667 49.4415 28.9133 49.7495 28.344C50.0575 27.7653 50.4869 27.308 51.0375 26.972C51.5882 26.636 52.2182 26.468 52.9275 26.468ZM57.6253 34C57.42 34 57.252 33.9347 57.1213 33.804C56.9906 33.664 56.9253 33.4913 56.9253 33.286V27.35C56.9253 27.1447 56.9906 26.9767 57.1213 26.846C57.252 26.706 57.42 26.636 57.6253 26.636C57.8213 26.636 57.9846 26.706 58.1153 26.846C58.2553 26.9767 58.3253 27.1447 58.3253 27.35V28.918L58.1853 28.316C58.26 28.0547 58.372 27.812 58.5213 27.588C58.68 27.364 58.8666 27.168 59.0813 27C59.296 26.832 59.534 26.7013 59.7953 26.608C60.066 26.5147 60.346 26.468 60.6353 26.468C60.878 26.468 61.088 26.5333 61.2653 26.664C61.4426 26.7947 61.5313 26.958 61.5313 27.154C61.5313 27.406 61.466 27.5927 61.3353 27.714C61.2046 27.826 61.06 27.882 60.9013 27.882C60.7613 27.882 60.626 27.854 60.4953 27.798C60.3646 27.7327 60.2106 27.7 60.0333 27.7C59.8373 27.7 59.6366 27.7513 59.4313 27.854C59.226 27.9567 59.0393 28.1107 58.8713 28.316C58.7033 28.512 58.568 28.7453 58.4653 29.016C58.372 29.2867 58.3253 29.59 58.3253 29.926V33.286C58.3253 33.4913 58.2553 33.664 58.1153 33.804C57.9846 33.9347 57.8213 34 57.6253 34ZM64.0929 33.286C64.0929 33.4913 64.0275 33.664 63.8969 33.804C63.7662 33.9347 63.5982 34 63.3929 34C63.1969 34 63.0289 33.9347 62.8889 33.804C62.7582 33.664 62.6929 33.4913 62.6929 33.286V27.294C62.6929 27.0887 62.7582 26.9207 62.8889 26.79C63.0289 26.65 63.1969 26.58 63.3929 26.58C63.5982 26.58 63.7662 26.65 63.8969 26.79C64.0275 26.9207 64.0929 27.0887 64.0929 27.294V33.286ZM63.3789 25.656C63.1082 25.656 62.9122 25.6093 62.7909 25.516C62.6695 25.4133 62.6089 25.2453 62.6089 25.012V24.788C62.6089 24.5547 62.6742 24.3913 62.8049 24.298C62.9355 24.2047 63.1315 24.158 63.3929 24.158C63.6729 24.158 63.8735 24.2093 63.9949 24.312C64.1162 24.4053 64.1769 24.564 64.1769 24.788V25.012C64.1769 25.2547 64.1115 25.4227 63.9809 25.516C63.8595 25.6093 63.6589 25.656 63.3789 25.656ZM69.6861 26.51C70.3394 26.51 70.9181 26.6733 71.4221 27C71.9354 27.3267 72.3414 27.7747 72.6401 28.344C72.9388 28.904 73.0881 29.5573 73.0881 30.304C73.0881 31.0507 72.9388 31.7133 72.6401 32.292C72.3414 32.8613 71.9401 33.3093 71.4361 33.636C70.9321 33.9627 70.3628 34.126 69.7281 34.126C69.3734 34.126 69.0374 34.07 68.7201 33.958C68.4028 33.846 68.1228 33.7013 67.8801 33.524C67.6374 33.3373 67.4368 33.1413 67.2781 32.936C67.1288 32.7307 67.0354 32.5393 66.9981 32.362L67.3761 32.18V36.086C67.3761 36.2913 67.3061 36.4593 67.1661 36.59C67.0354 36.73 66.8721 36.8 66.6761 36.8C66.4708 36.8 66.3028 36.73 66.1721 36.59C66.0414 36.4593 65.9761 36.2913 65.9761 36.086V27.322C65.9761 27.126 66.0414 26.958 66.1721 26.818C66.3028 26.678 66.4708 26.608 66.6761 26.608C66.8721 26.608 67.0354 26.678 67.1661 26.818C67.3061 26.958 67.3761 27.126 67.3761 27.322V28.288L67.1521 28.162C67.1801 27.9847 67.2688 27.8027 67.4181 27.616C67.5674 27.42 67.7541 27.238 67.9781 27.07C68.2114 26.902 68.4728 26.7667 68.7621 26.664C69.0608 26.5613 69.3688 26.51 69.6861 26.51ZM69.5321 27.798C69.0841 27.798 68.6921 27.91 68.3561 28.134C68.0294 28.3487 67.7728 28.6427 67.5861 29.016C67.3994 29.3893 67.3061 29.8187 67.3061 30.304C67.3061 30.78 67.3994 31.214 67.5861 31.606C67.7728 31.9887 68.0294 32.292 68.3561 32.516C68.6921 32.7307 69.0841 32.838 69.5321 32.838C69.9708 32.838 70.3534 32.7307 70.6801 32.516C71.0068 32.292 71.2634 31.9887 71.4501 31.606C71.6461 31.214 71.7441 30.78 71.7441 30.304C71.7441 29.828 71.6461 29.4033 71.4501 29.03C71.2634 28.6473 71.0068 28.3487 70.6801 28.134C70.3534 27.91 69.9708 27.798 69.5321 27.798ZM74.5734 26.72H77.8634C78.0501 26.72 78.2041 26.7853 78.3254 26.916C78.4561 27.0373 78.5214 27.1913 78.5214 27.378C78.5214 27.5553 78.4561 27.7047 78.3254 27.826C78.2041 27.9473 78.0501 28.008 77.8634 28.008H74.5734C74.3867 28.008 74.2281 27.9473 74.0974 27.826C73.9761 27.6953 73.9154 27.5413 73.9154 27.364C73.9154 27.1773 73.9761 27.0233 74.0974 26.902C74.2281 26.7807 74.3867 26.72 74.5734 26.72ZM76.0434 24.9C76.2487 24.9 76.4167 24.97 76.5474 25.11C76.6781 25.2407 76.7434 25.4087 76.7434 25.614V32.11C76.7434 32.278 76.7714 32.4133 76.8274 32.516C76.8834 32.6187 76.9581 32.6887 77.0514 32.726C77.1541 32.7633 77.2567 32.782 77.3594 32.782C77.4621 32.782 77.5507 32.7633 77.6254 32.726C77.7094 32.6887 77.8074 32.67 77.9194 32.67C78.0314 32.67 78.1341 32.7213 78.2274 32.824C78.3207 32.9267 78.3674 33.0667 78.3674 33.244C78.3674 33.468 78.2461 33.65 78.0034 33.79C77.7607 33.93 77.4994 34 77.2194 34C77.0607 34 76.8741 33.986 76.6594 33.958C76.4447 33.93 76.2347 33.86 76.0294 33.748C75.8334 33.636 75.6701 33.4587 75.5394 33.216C75.4087 32.964 75.3434 32.614 75.3434 32.166V25.614C75.3434 25.4087 75.4087 25.2407 75.5394 25.11C75.6794 24.97 75.8474 24.9 76.0434 24.9ZM81.3878 33.286C81.3878 33.4913 81.3225 33.664 81.1918 33.804C81.0611 33.9347 80.8931 34 80.6878 34C80.4918 34 80.3238 33.9347 80.1838 33.804C80.0531 33.664 79.9878 33.4913 79.9878 33.286V27.294C79.9878 27.0887 80.0531 26.9207 80.1838 26.79C80.3238 26.65 80.4918 26.58 80.6878 26.58C80.8931 26.58 81.0611 26.65 81.1918 26.79C81.3225 26.9207 81.3878 27.0887 81.3878 27.294V33.286ZM80.6738 25.656C80.4031 25.656 80.2071 25.6093 80.0858 25.516C79.9645 25.4133 79.9038 25.2453 79.9038 25.012V24.788C79.9038 24.5547 79.9691 24.3913 80.0998 24.298C80.2305 24.2047 80.4265 24.158 80.6878 24.158C80.9678 24.158 81.1685 24.2093 81.2898 24.312C81.4111 24.4053 81.4718 24.564 81.4718 24.788V25.012C81.4718 25.2547 81.4065 25.4227 81.2758 25.516C81.1545 25.6093 80.9538 25.656 80.6738 25.656ZM87.065 26.468C87.7277 26.468 88.241 26.608 88.605 26.888C88.969 27.1587 89.221 27.5273 89.361 27.994C89.5103 28.4513 89.585 28.9647 89.585 29.534V33.286C89.585 33.4913 89.515 33.664 89.375 33.804C89.2443 33.9347 89.081 34 88.885 34C88.6797 34 88.5117 33.9347 88.381 33.804C88.2503 33.664 88.185 33.4913 88.185 33.286V29.548C88.185 29.212 88.1383 28.9133 88.045 28.652C87.9517 28.3813 87.7883 28.1667 87.555 28.008C87.331 27.84 87.0137 27.756 86.603 27.756C86.2203 27.756 85.8843 27.84 85.595 28.008C85.3057 28.1667 85.077 28.3813 84.909 28.652C84.7503 28.9133 84.671 29.212 84.671 29.548V33.286C84.671 33.4913 84.601 33.664 84.461 33.804C84.3303 33.9347 84.167 34 83.971 34C83.7657 34 83.5977 33.9347 83.467 33.804C83.3363 33.664 83.271 33.4913 83.271 33.286V27.35C83.271 27.1447 83.3363 26.9767 83.467 26.846C83.5977 26.706 83.7657 26.636 83.971 26.636C84.167 26.636 84.3303 26.706 84.461 26.846C84.601 26.9767 84.671 27.1447 84.671 27.35V28.134L84.419 28.274C84.4843 28.0687 84.5963 27.8633 84.755 27.658C84.923 27.4433 85.1237 27.2473 85.357 27.07C85.5903 26.8833 85.8517 26.7387 86.141 26.636C86.4303 26.524 86.7383 26.468 87.065 26.468ZM94.5948 26.468C94.9962 26.468 95.3648 26.5333 95.7008 26.664C96.0368 26.7947 96.3262 26.9627 96.5688 27.168C96.8208 27.364 97.0168 27.5693 97.1568 27.784C97.2968 27.9987 97.3668 28.1853 97.3668 28.344L97.0448 28.358V27.238C97.0448 27.042 97.1102 26.874 97.2408 26.734C97.3715 26.594 97.5395 26.524 97.7448 26.524C97.9502 26.524 98.1182 26.594 98.2488 26.734C98.3795 26.8647 98.4448 27.0327 98.4448 27.238V33.412C98.4448 34.2053 98.2768 34.8493 97.9408 35.344C97.6048 35.848 97.1568 36.2167 96.5968 36.45C96.0462 36.6833 95.4395 36.8 94.7768 36.8C94.5435 36.8 94.2682 36.7673 93.9508 36.702C93.6335 36.646 93.3395 36.576 93.0688 36.492C92.8075 36.408 92.6255 36.324 92.5228 36.24C92.3082 36.128 92.1635 35.9973 92.0888 35.848C92.0235 35.6987 92.0235 35.5493 92.0888 35.4C92.1822 35.1947 92.3082 35.0687 92.4668 35.022C92.6255 34.9753 92.8075 34.9893 93.0128 35.064C93.1062 35.092 93.2508 35.1433 93.4468 35.218C93.6428 35.2927 93.8622 35.358 94.1048 35.414C94.3475 35.4793 94.5762 35.512 94.7908 35.512C95.5375 35.512 96.0975 35.3393 96.4708 34.994C96.8535 34.6487 97.0448 34.1773 97.0448 33.58V32.32L97.1988 32.418C97.1708 32.614 97.0822 32.8147 96.9328 33.02C96.7928 33.216 96.6062 33.398 96.3728 33.566C96.1395 33.734 95.8688 33.874 95.5608 33.986C95.2622 34.0887 94.9542 34.14 94.6368 34.14C93.9742 34.14 93.3815 33.9767 92.8588 33.65C92.3362 33.314 91.9208 32.8613 91.6128 32.292C91.3048 31.7133 91.1508 31.0507 91.1508 30.304C91.1508 29.5573 91.3048 28.8993 91.6128 28.33C91.9208 27.7513 92.3315 27.2987 92.8448 26.972C93.3675 26.636 93.9508 26.468 94.5948 26.468ZM94.8048 27.756C94.3475 27.756 93.9462 27.868 93.6008 28.092C93.2555 28.316 92.9848 28.6193 92.7888 29.002C92.5928 29.3847 92.4948 29.8187 92.4948 30.304C92.4948 30.7893 92.5928 31.2233 92.7888 31.606C92.9848 31.9887 93.2555 32.292 93.6008 32.516C93.9462 32.74 94.3475 32.852 94.8048 32.852C95.2622 32.852 95.6635 32.7447 96.0088 32.53C96.3542 32.306 96.6248 32.0027 96.8208 31.62C97.0168 31.228 97.1148 30.7893 97.1148 30.304C97.1148 29.8187 97.0168 29.3847 96.8208 29.002C96.6248 28.61 96.3542 28.3067 96.0088 28.092C95.6635 27.868 95.2622 27.756 94.8048 27.756Z" fill="#4A4A4A"/>
<defs>
<clipPath id="clip0_4281_6127">
<rect width="32" height="32" fill="white" transform="translate(6 6)"/>
</clipPath>
</defs>
</svg>
