<svg width="185" height="44" viewBox="0 0 185 44" fill="none" xmlns="http://www.w3.org/2000/svg">
<rect width="185" height="44" rx="10" fill="white"/>
<path fill-rule="evenodd" clip-rule="evenodd" d="M21.7539 12.7124H35.5385V19.2756H21.7539V12.7124Z" fill="white" fill-opacity="0.6"/>
<path fill-rule="evenodd" clip-rule="evenodd" d="M9.28206 34.1393C8.06802 34.1393 7.01038 33.362 6.44259 32.209C6.1527 32.7952 5.99999 33.4612 6 34.1393C6 36.2716 7.46938 38 9.28206 38H12.5641V34.1393H9.28206Z" fill="#3ECC5F"/>
<path fill-rule="evenodd" clip-rule="evenodd" d="M24.0482 13.7503L35.5386 12.9056V10.9752C35.5386 8.84296 34.0693 7.11453 32.2566 7.11453H17.4873L17.0771 6.27869C16.8946 5.9071 16.4389 5.9071 16.2566 6.27869L15.8463 7.11453L15.4361 6.27869C15.2537 5.9071 14.7979 5.9071 14.6155 6.27869L14.2053 7.11453L13.795 6.27869C13.6127 5.9071 13.1568 5.9071 12.9745 6.27869L12.5643 7.11453C12.5607 7.11453 12.5574 7.11511 12.5536 7.11511L11.8739 6.31576C11.6162 6.0125 11.1761 6.1511 11.0816 6.56554L10.8569 7.55079L10.0049 7.28208C9.65242 7.17109 9.33029 7.55021 9.42481 7.96465L9.65291 8.96708L8.81566 9.23096C8.46317 9.34215 8.34518 9.86006 8.60298 10.1633L9.2827 10.9629C9.2827 10.9669 9.28221 10.971 9.28221 10.9752L8.57164 11.4578C8.25574 11.6723 8.25574 12.2085 8.57164 12.423L9.28221 12.9056L8.57164 13.3881C8.25574 13.6026 8.25574 14.1389 8.57164 14.3533L9.28221 14.8359L8.57164 15.3185C8.25574 15.5329 8.25574 16.0692 8.57164 16.2837L9.28221 16.7662L8.57164 17.2488C8.25574 17.4633 8.25574 17.9995 8.57164 18.214L9.28221 18.6966L8.57164 19.1792C8.25574 19.3936 8.25574 19.9299 8.57164 20.1443L9.28221 20.6269L8.57164 21.1095C8.25574 21.324 8.25574 21.8602 8.57164 22.0747L9.28221 22.5573L8.57164 23.0399C8.25574 23.2543 8.25574 23.7906 8.57164 24.005L9.28221 24.4876L8.57164 24.9702C8.25574 25.1847 8.25574 25.7209 8.57164 25.9354L9.28221 26.4179L8.57164 26.9005C8.25574 27.115 8.25574 27.6512 8.57164 27.8657L9.28221 28.3483L8.57164 28.8309C8.25574 29.0453 8.25574 29.5816 8.57164 29.796L9.28221 30.2786L8.57164 30.7612C8.25574 30.9757 8.25574 31.5119 8.57164 31.7264L9.28221 32.209L8.57164 32.6916C8.25574 32.906 8.25574 33.4423 8.57164 33.6567L9.28221 34.1393C9.28221 36.2716 10.7516 38 12.5643 38H32.2566C34.0693 38 35.5386 36.2716 35.5386 34.1393V18.6966L24.0482 17.8519C23.6046 17.8192 23.1884 17.5889 22.8841 17.2079C22.5798 16.8269 22.4104 16.3238 22.4104 15.8011C22.4104 14.716 23.1276 13.818 24.0482 13.7503Z" fill="#3ACB5C"/>
<path fill-rule="evenodd" clip-rule="evenodd" d="M28.9744 37.9997H33.8974V30.2783H28.9744V37.9997Z" fill="#3ECC5F"/>
<path fill-rule="evenodd" clip-rule="evenodd" d="M37.1796 33.1742C37.1437 33.1742 37.1094 33.1813 37.0747 33.1865C37.0685 33.1576 37.0626 33.1284 37.0557 33.0995C37.2306 33.0134 37.3747 32.8589 37.4637 32.662C37.5527 32.4651 37.5809 32.2381 37.5437 32.0195C37.5065 31.8009 37.4061 31.6041 37.2595 31.4627C37.113 31.3213 36.9293 31.244 36.7398 31.2438C36.5606 31.2446 36.3866 31.3149 36.2449 31.4438C36.2267 31.422 36.2084 31.4004 36.1899 31.3789C36.2971 31.2131 36.3553 31.0107 36.3558 30.8023C36.3557 30.58 36.2903 30.3645 36.1707 30.1923C36.0511 30.02 35.8846 29.9017 35.6994 29.8572C35.5141 29.8128 35.3215 29.8449 35.1541 29.9482C34.9867 30.0515 34.8548 30.2197 34.7806 30.4242C34.7563 30.4161 34.7318 30.4093 34.7075 30.402C34.712 30.3613 34.718 30.3209 34.718 30.2786C34.718 30.0227 34.6316 29.7772 34.4777 29.5962C34.3238 29.4152 34.1151 29.3135 33.8975 29.3135C33.6799 29.3135 33.4712 29.4152 33.3173 29.5962C33.1635 29.7772 33.077 30.0227 33.077 30.2786C33.077 30.3209 33.0831 30.3613 33.0875 30.402C33.0632 30.4093 33.0388 30.4161 33.0145 30.4242C32.9406 30.2193 32.8087 30.0507 32.6412 29.9471C32.4737 29.8435 32.2809 29.8112 32.0955 29.8557C31.91 29.9002 31.7434 30.0188 31.6238 30.1913C31.5042 30.3639 31.439 30.5797 31.4393 30.8023C31.4393 31.0195 31.5023 31.2176 31.6052 31.3789C30.9952 32.08 30.6155 33.057 30.6155 34.1393C30.6155 36.2716 32.0849 38 33.8975 38C35.4301 38 36.7135 36.7627 37.0747 35.0921C37.1094 35.0974 37.1437 35.1045 37.1796 35.1045C37.3972 35.1045 37.6059 35.0028 37.7598 34.8218C37.9137 34.6408 38.0001 34.3953 38.0001 34.1393C38.0001 33.8834 37.9137 33.6379 37.7598 33.4569C37.6059 33.2758 37.3972 33.1742 37.1796 33.1742Z" fill="#44D860"/>
<path fill-rule="evenodd" clip-rule="evenodd" d="M30.6155 26.4178H35.5386V22.5571H30.6155V26.4178Z" fill="#3ECC5F"/>
<path fill-rule="evenodd" clip-rule="evenodd" d="M37.1795 24.97C37.2883 24.97 37.3927 24.9192 37.4696 24.8287C37.5465 24.7382 37.5898 24.6154 37.5898 24.4874C37.5898 24.3595 37.5465 24.2367 37.4696 24.1462C37.3927 24.0557 37.2883 24.0049 37.1795 24.0049C37.1616 24.0049 37.1444 24.0085 37.1272 24.011C37.1239 23.9966 37.1211 23.9821 37.1177 23.9676C37.205 23.9245 37.2769 23.8471 37.3213 23.7487C37.3657 23.6503 37.3798 23.5369 37.3612 23.4276C37.3426 23.3184 37.2924 23.2201 37.2193 23.1494C37.1461 23.0787 37.0543 23.0399 36.9596 23.0397C36.8662 23.0397 36.7811 23.0777 36.7122 23.1397C36.7031 23.1287 36.6939 23.1179 36.6846 23.1073C36.7361 23.0268 36.7676 22.9275 36.7676 22.8189C36.7676 22.7076 36.7349 22.5998 36.6751 22.5137C36.6153 22.4276 36.532 22.3684 36.4393 22.3462C36.3467 22.3239 36.2504 22.34 36.1667 22.3917C36.0829 22.4434 36.017 22.5276 35.9799 22.6299C35.8363 22.5821 35.6878 22.5576 35.5385 22.5571C34.6323 22.5571 33.8975 23.4215 33.8975 24.4874C33.8975 25.5534 34.6323 26.4178 35.5385 26.4178C35.6918 26.4178 35.8393 26.3911 35.9799 26.345C36.017 26.4473 36.0829 26.5315 36.1667 26.5832C36.2504 26.6349 36.3467 26.651 36.4393 26.6287C36.532 26.6065 36.6153 26.5473 36.6751 26.4612C36.7349 26.375 36.7676 26.2673 36.7676 26.156C36.7676 26.0474 36.7361 25.9481 36.6846 25.8676C36.6939 25.857 36.7031 25.8462 36.7122 25.8352C36.7811 25.8972 36.8662 25.9352 36.9596 25.9352C37.0544 25.9352 37.1463 25.8966 37.2196 25.8259C37.293 25.7552 37.3432 25.6568 37.3619 25.5474C37.3805 25.4381 37.3663 25.3245 37.3218 25.226C37.2773 25.1275 37.2051 25.0503 37.1177 25.0073C37.1211 24.993 37.1239 24.9783 37.1272 24.9639C37.1444 24.9664 37.1616 24.97 37.1795 24.97Z" fill="#44D860"/>
<path fill-rule="evenodd" clip-rule="evenodd" d="M15.8464 13.3882C15.7376 13.3882 15.6332 13.3373 15.5563 13.2468C15.4793 13.1563 15.4361 13.0336 15.4361 12.9056C15.4361 12.1072 14.8841 11.4578 14.2053 11.4578C13.5266 11.4578 12.9746 12.1072 12.9746 12.9056C12.9746 13.0336 12.9313 13.1563 12.8544 13.2468C12.7775 13.3373 12.6731 13.3882 12.5643 13.3882C12.4555 13.3882 12.3512 13.3373 12.2742 13.2468C12.1973 13.1563 12.1541 13.0336 12.1541 12.9056C12.1541 11.575 13.0742 10.4927 14.2053 10.4927C15.3365 10.4927 16.2566 11.575 16.2566 12.9056C16.2566 13.0336 16.2134 13.1563 16.1365 13.2468C16.0595 13.3373 15.9552 13.3882 15.8464 13.3882Z" fill="#262E34"/>
<path fill-rule="evenodd" clip-rule="evenodd" d="M22.4102 38H32.2563C34.069 38 35.5384 36.2716 35.5384 34.1393V20.627H25.6922C23.8795 20.627 22.4102 22.3554 22.4102 24.4876V38Z" fill="#FFFF50"/>
<path fill-rule="evenodd" clip-rule="evenodd" d="M33.0804 26.6111H24.8686C24.8251 26.6111 24.7834 26.5908 24.7526 26.5546C24.7218 26.5184 24.7045 26.4693 24.7045 26.4181C24.7045 26.3669 24.7218 26.3178 24.7526 26.2816C24.7834 26.2454 24.8251 26.225 24.8686 26.225H33.0804C33.1239 26.225 33.1656 26.2454 33.1964 26.2816C33.2272 26.3178 33.2445 26.3669 33.2445 26.4181C33.2445 26.4693 33.2272 26.5184 33.1964 26.5546C33.1656 26.5908 33.1239 26.6111 33.0804 26.6111ZM33.0804 30.4718H24.8686C24.8251 30.4718 24.7834 30.4514 24.7526 30.4152C24.7218 30.379 24.7045 30.3299 24.7045 30.2787C24.7045 30.2275 24.7218 30.1784 24.7526 30.1422C24.7834 30.106 24.8251 30.0857 24.8686 30.0857H33.0804C33.1239 30.0857 33.1656 30.106 33.1964 30.1422C33.2272 30.1784 33.2445 30.2275 33.2445 30.2787C33.2445 30.3299 33.2272 30.379 33.1964 30.4152C33.1656 30.4514 33.1239 30.4718 33.0804 30.4718ZM33.0804 34.3325H24.8686C24.8251 34.3325 24.7834 34.3121 24.7526 34.2759C24.7218 34.2397 24.7045 34.1906 24.7045 34.1394C24.7045 34.0882 24.7218 34.0391 24.7526 34.0029C24.7834 33.9667 24.8251 33.9464 24.8686 33.9464H33.0804C33.1239 33.9464 33.1656 33.9667 33.1964 34.0029C33.2272 34.0391 33.2445 34.0882 33.2445 34.1394C33.2445 34.1906 33.2272 34.2397 33.1964 34.2759C33.1656 34.3121 33.1239 34.3325 33.0804 34.3325ZM33.0804 24.7167H24.8686C24.8251 24.7167 24.7834 24.6963 24.7526 24.6601C24.7218 24.6239 24.7045 24.5748 24.7045 24.5236C24.7045 24.4724 24.7218 24.4233 24.7526 24.3871C24.7834 24.3509 24.8251 24.3306 24.8686 24.3306H33.0804C33.1239 24.3306 33.1656 24.3509 33.1964 24.3871C33.2272 24.4233 33.2445 24.4724 33.2445 24.5236C33.2445 24.5748 33.2272 24.6239 33.1964 24.6601C33.1656 24.6963 33.1239 24.7167 33.0804 24.7167ZM33.0804 28.5414H24.8686C24.8251 28.5414 24.7834 28.5211 24.7526 28.4849C24.7218 28.4487 24.7045 28.3996 24.7045 28.3484C24.7045 28.2972 24.7218 28.2481 24.7526 28.2119C24.7834 28.1757 24.8251 28.1554 24.8686 28.1554H33.0804C33.1239 28.1554 33.1656 28.1757 33.1964 28.2119C33.2272 28.2481 33.2445 28.2972 33.2445 28.3484C33.2445 28.3996 33.2272 28.4487 33.1964 28.4849C33.1656 28.5211 33.1239 28.5414 33.0804 28.5414ZM33.0804 32.4021H24.8686C24.8251 32.4021 24.7834 32.3818 24.7526 32.3456C24.7218 32.3094 24.7045 32.2603 24.7045 32.2091C24.7045 32.1579 24.7218 32.1088 24.7526 32.0726C24.7834 32.0364 24.8251 32.0161 24.8686 32.0161H33.0804C33.1239 32.0161 33.1656 32.0364 33.1964 32.0726C33.2272 32.1088 33.2445 32.1579 33.2445 32.2091C33.2445 32.2603 33.2272 32.3094 33.1964 32.3456C33.1656 32.3818 33.1239 32.4021 33.0804 32.4021ZM35.5386 14.5679C35.5366 14.5679 35.535 14.5667 35.533 14.5669C35.026 14.5872 34.786 15.1839 34.5743 15.7103C34.3535 16.2604 34.1826 16.6181 33.9027 16.6073C33.5927 16.5942 33.4154 16.1822 33.2277 15.7464C33.0121 15.2456 32.7659 14.6777 32.2492 14.699C31.7493 14.719 31.5086 15.2383 31.2962 15.6964C31.0703 16.1844 30.9165 16.481 30.62 16.4673C30.3037 16.4538 30.1357 16.1189 29.9412 15.7313C29.7245 15.2997 29.4739 14.8144 28.9671 14.831C28.4758 14.8509 28.2344 15.2914 28.0214 15.6803C27.7961 16.0915 27.6382 16.3421 27.3379 16.3272C27.0141 16.3137 26.8469 16.0357 26.6534 15.7139C26.4362 15.3524 26.1913 14.9431 25.686 14.963C25.2056 14.9823 24.9642 15.3433 24.7513 15.6614C24.5491 15.9633 24.3913 16.2023 24.0573 16.1872C24.0138 16.1854 23.9714 16.204 23.9396 16.2389C23.9077 16.2738 23.8889 16.3221 23.8873 16.3733C23.8857 16.4245 23.9015 16.4744 23.9312 16.5119C23.9609 16.5494 24.002 16.5715 24.0455 16.5733C24.5406 16.5928 24.7914 16.2259 25.0091 15.9002C25.2023 15.6114 25.369 15.3622 25.6972 15.3491C26.0133 15.3333 26.1614 15.5643 26.3856 15.9369C26.5985 16.2909 26.84 16.6924 27.3261 16.7131C27.8353 16.7331 28.0803 16.2855 28.2972 15.8894C28.4912 15.5354 28.6586 15.2298 28.9783 15.2169C29.2725 15.2039 29.4327 15.4775 29.6585 15.9274C29.8713 16.3515 30.1124 16.832 30.6081 16.8532C31.121 16.8741 31.3686 16.3475 31.5844 15.8813C31.7713 15.4782 31.9477 15.0976 32.2603 15.0848C32.5546 15.0767 32.708 15.3927 32.935 15.9207C33.147 16.4135 33.3874 16.9717 33.8909 16.9932L33.9186 16.9937C34.4214 16.9937 34.66 16.4002 34.8712 15.8753C35.0581 15.4101 35.235 14.9719 35.5386 14.9539V14.5679Z" fill="#262E34"/>
<path fill-rule="evenodd" clip-rule="evenodd" d="M19.1282 37.9997H25.6923V30.2783H19.1282V37.9997Z" fill="#3ECC5F"/>
<path d="M35.4989 17.9675L22.7352 21.9904C22.5601 22.0456 22.4562 22.2573 22.5032 22.4632L23.7505 27.9389C23.7974 28.1449 23.9773 28.2671 24.1524 28.2119L36.9161 24.189C37.0911 24.1338 37.1951 23.9221 37.1481 23.7161L35.9008 18.2404C35.8539 18.0345 35.674 17.9123 35.4989 17.9675Z" fill="#D8D8D8"/>
<path d="M26.5872 24.9876L26.1302 25.1317C26.0426 25.1593 25.9907 25.2651 26.0142 25.3681L26.1366 25.9057C26.1601 26.0086 26.25 26.0697 26.3376 26.0421L26.7946 25.8981C26.8821 25.8705 26.9341 25.7647 26.9106 25.6617L26.7882 25.1241C26.7647 25.0212 26.6747 24.96 26.5872 24.9876Z" fill="#4A4A4A"/>
<path d="M27.5044 24.6986L27.0474 24.8426C26.9599 24.8702 26.9079 24.9761 26.9314 25.079L27.0538 25.6166C27.0773 25.7196 27.1673 25.7807 27.2548 25.7531L27.7118 25.609C27.7994 25.5815 27.8513 25.4756 27.8278 25.3726L27.7054 24.8351C27.6819 24.7321 27.592 24.671 27.5044 24.6986Z" fill="#4A4A4A"/>
<path d="M28.4219 24.4095L27.9649 24.5536C27.8774 24.5811 27.8254 24.687 27.8489 24.79L27.9713 25.3275C27.9948 25.4305 28.0848 25.4916 28.1723 25.464L28.6293 25.32C28.7168 25.2924 28.7688 25.1865 28.7453 25.0836L28.6229 24.546C28.5994 24.443 28.5094 24.3819 28.4219 24.4095Z" fill="#4A4A4A"/>
<path d="M29.3391 24.1205L28.8821 24.2645C28.7946 24.2921 28.7426 24.3979 28.7661 24.5009L28.8886 25.0385C28.912 25.1414 29.002 25.2026 29.0895 25.175L29.5465 25.0309C29.6341 25.0033 29.686 24.8975 29.6626 24.7945L29.5401 24.257C29.5167 24.154 29.4267 24.0929 29.3391 24.1205Z" fill="#4A4A4A"/>
<path d="M30.2564 23.8314L29.7994 23.9754C29.7118 24.003 29.6599 24.1089 29.6833 24.2118L29.8058 24.7494C29.8292 24.8524 29.9192 24.9135 30.0068 24.8859L30.4638 24.7419C30.5513 24.7143 30.6033 24.6084 30.5798 24.5054L30.4574 23.9679C30.4339 23.8649 30.3439 23.8038 30.2564 23.8314Z" fill="#4A4A4A"/>
<path d="M31.1738 23.5423L30.7169 23.6864C30.6293 23.714 30.5774 23.8198 30.6008 23.9228L30.7233 24.4603C30.7467 24.5633 30.8367 24.6244 30.9243 24.5968L31.3812 24.4528C31.4688 24.4252 31.5207 24.3194 31.4973 24.2164L31.3748 23.6788C31.3514 23.5758 31.2614 23.5147 31.1738 23.5423Z" fill="#4A4A4A"/>
<path d="M32.0911 23.2533L31.6341 23.3973C31.5466 23.4249 31.4946 23.5307 31.5181 23.6337L31.6405 24.1713C31.664 24.2743 31.7539 24.3354 31.8415 24.3078L32.2985 24.1637C32.386 24.1361 32.438 24.0303 32.4145 23.9273L32.2921 23.3898C32.2686 23.2868 32.1786 23.2257 32.0911 23.2533Z" fill="#4A4A4A"/>
<path d="M33.0086 22.9642L32.5516 23.1082C32.464 23.1358 32.4121 23.2417 32.4355 23.3447L32.558 23.8822C32.5814 23.9852 32.6714 24.0463 32.759 24.0187L33.216 23.8747C33.3035 23.8471 33.3555 23.7412 33.332 23.6383L33.2095 23.1007C33.1861 22.9977 33.0961 22.9366 33.0086 22.9642Z" fill="#4A4A4A"/>
<path d="M33.9258 22.6747L33.4688 22.8187C33.3813 22.8463 33.3293 22.9521 33.3528 23.0551L33.4752 23.5927C33.4987 23.6956 33.5887 23.7568 33.6762 23.7292L34.1332 23.5851C34.2207 23.5575 34.2727 23.4517 34.2492 23.3487L34.1268 22.8111C34.1033 22.7082 34.0133 22.6471 33.9258 22.6747Z" fill="#4A4A4A"/>
<path fill-rule="evenodd" clip-rule="evenodd" d="M23.694 25.8999L25.6414 25.2861C25.6835 25.2729 25.7283 25.2798 25.7659 25.3054C25.8036 25.331 25.8311 25.3732 25.8424 25.4226L25.9648 25.96C25.9761 26.0094 25.9702 26.0621 25.9484 26.1065C25.9267 26.1508 25.8908 26.1831 25.8488 26.1964L23.9013 26.8102C23.8593 26.8235 23.8145 26.8165 23.7768 26.7909C23.7391 26.7653 23.7116 26.7232 23.7003 26.6737L23.5779 26.1362C23.5666 26.0867 23.5725 26.034 23.5943 25.9897C23.616 25.9453 23.6519 25.913 23.6939 25.8997L23.694 25.8999ZM34.4147 22.5209L36.3623 21.907C36.4044 21.8938 36.4492 21.9007 36.4868 21.9263C36.5245 21.9519 36.552 21.9941 36.5633 22.0435L36.6857 22.5809C36.697 22.6303 36.6911 22.683 36.6693 22.7273C36.6476 22.7717 36.6117 22.804 36.5697 22.8173L34.6219 23.4312C34.5798 23.4445 34.5351 23.4375 34.4974 23.4119C34.4597 23.3863 34.4322 23.3442 34.4209 23.2947L34.2985 22.7572C34.2872 22.7077 34.2931 22.655 34.3148 22.6107C34.3366 22.5663 34.3725 22.534 34.4145 22.5207L34.4147 22.5209Z" fill="#4A4A4A"/>
<path fill-rule="evenodd" clip-rule="evenodd" d="M23.1976 23.721L23.941 23.4867C23.983 23.4735 24.0278 23.4804 24.0655 23.506C24.1032 23.5316 24.1307 23.5738 24.142 23.6232L24.2644 24.1606C24.2756 24.21 24.2697 24.2627 24.248 24.3071C24.2262 24.3514 24.1904 24.3837 24.1483 24.397L23.4049 24.6313C23.3629 24.6446 23.3181 24.6376 23.2804 24.612C23.2427 24.5864 23.2152 24.5443 23.2039 24.4948L23.0815 23.9575C23.0703 23.908 23.0762 23.8553 23.0979 23.811C23.1197 23.7666 23.1555 23.7343 23.1976 23.721Z" fill="#4A4A4A"/>
<path d="M24.8587 23.1976L24.4017 23.3416C24.3141 23.3692 24.2622 23.4751 24.2856 23.5781L24.4081 24.1156C24.4315 24.2186 24.5215 24.2797 24.6091 24.2521L25.0661 24.1081C25.1536 24.0805 25.2056 23.9746 25.1821 23.8717L25.0596 23.3341C25.0362 23.2311 24.9462 23.17 24.8587 23.1976Z" fill="#4A4A4A"/>
<path d="M25.7761 22.9085L25.3192 23.0526C25.2316 23.0802 25.1797 23.186 25.2031 23.289L25.3256 23.8266C25.349 23.9295 25.439 23.9906 25.5266 23.963L25.9835 23.819C26.0711 23.7914 26.123 23.6856 26.0996 23.5826L25.9771 23.045C25.9537 22.9421 25.8637 22.8809 25.7761 22.9085Z" fill="#4A4A4A"/>
<path d="M26.6931 22.6195L26.2361 22.7635C26.1486 22.7911 26.0967 22.897 26.1201 22.9999L26.2426 23.5375C26.266 23.6405 26.356 23.7016 26.4435 23.674L26.9005 23.5299C26.9881 23.5024 27.04 23.3965 27.0166 23.2935L26.8941 22.756C26.8707 22.653 26.7807 22.5919 26.6931 22.6195Z" fill="#4A4A4A"/>
<path d="M27.6106 22.3304L27.1536 22.4745C27.0661 22.502 27.0141 22.6079 27.0376 22.7109L27.16 23.2484C27.1835 23.3514 27.2735 23.4125 27.361 23.3849L27.818 23.2409C27.9056 23.2133 27.9575 23.1074 27.934 23.0045L27.8116 22.4669C27.7881 22.3639 27.6982 22.3028 27.6106 22.3304Z" fill="#4A4A4A"/>
<path d="M28.5281 22.0414L28.0711 22.1854C27.9836 22.213 27.9316 22.3188 27.9551 22.4218L28.0775 22.9594C28.101 23.0623 28.191 23.1235 28.2785 23.0959L28.7355 22.9518C28.823 22.9242 28.875 22.8184 28.8515 22.7154L28.7291 22.1778C28.7056 22.0749 28.6156 22.0138 28.5281 22.0414Z" fill="#4A4A4A"/>
<path d="M29.4451 21.7523L28.9881 21.8963C28.9006 21.9239 28.8486 22.0298 28.8721 22.1327L28.9945 22.6703C29.018 22.7733 29.108 22.8344 29.1955 22.8068L29.6525 22.6628C29.74 22.6352 29.792 22.5293 29.7685 22.4263L29.6461 21.8888C29.6226 21.7858 29.5326 21.7247 29.4451 21.7523Z" fill="#4A4A4A"/>
<path d="M30.3626 21.4632L29.9056 21.6073C29.818 21.6349 29.7661 21.7407 29.7895 21.8437L29.912 22.3812C29.9354 22.4842 30.0254 22.5453 30.113 22.5177L30.57 22.3737C30.6575 22.3461 30.7095 22.2403 30.686 22.1373L30.5636 21.5997C30.5401 21.4967 30.4501 21.4356 30.3626 21.4632Z" fill="#4A4A4A"/>
<path d="M31.2796 21.1737L30.8226 21.3177C30.735 21.3453 30.6831 21.4512 30.7065 21.5541L30.829 22.0917C30.8524 22.1947 30.9424 22.2558 31.03 22.2282L31.487 22.0841C31.5745 22.0566 31.6265 21.9507 31.603 21.8477L31.4805 21.3102C31.4571 21.2072 31.3671 21.1461 31.2796 21.1737Z" fill="#4A4A4A"/>
<path d="M32.1968 20.8846L31.7398 21.0287C31.6523 21.0562 31.6003 21.1621 31.6238 21.2651L31.7462 21.8026C31.7697 21.9056 31.8597 21.9667 31.9472 21.9391L32.4042 21.7951C32.4917 21.7675 32.5437 21.6616 32.5202 21.5587L32.3978 21.0211C32.3743 20.9181 32.2843 20.857 32.1968 20.8846Z" fill="#4A4A4A"/>
<path d="M33.1143 20.5956L32.6573 20.7396C32.5697 20.7672 32.5178 20.873 32.5413 20.976L32.6637 21.5136C32.6872 21.6165 32.7771 21.6777 32.8647 21.6501L33.3217 21.506C33.4092 21.4784 33.4612 21.3726 33.4377 21.2696L33.3153 20.732C33.2918 20.6291 33.2018 20.568 33.1143 20.5956Z" fill="#4A4A4A"/>
<path d="M34.0315 20.3065L33.5745 20.4505C33.487 20.4781 33.435 20.584 33.4585 20.6869L33.5809 21.2245C33.6044 21.3275 33.6944 21.3886 33.7819 21.361L34.2389 21.217C34.3265 21.1894 34.3784 21.0835 34.3549 20.9805L34.2325 20.443C34.209 20.34 34.1191 20.2789 34.0315 20.3065Z" fill="#4A4A4A"/>
<path d="M34.9488 20.0174L34.4918 20.1615C34.4042 20.1891 34.3523 20.2949 34.3757 20.3979L34.4982 20.9354C34.5216 21.0384 34.6116 21.0995 34.6992 21.0719L35.1561 20.9279C35.2437 20.9003 35.2956 20.7945 35.2722 20.6915L35.1497 20.1539C35.1263 20.0509 35.0363 19.9898 34.9488 20.0174Z" fill="#4A4A4A"/>
<path d="M35.8662 19.7284L35.4092 19.8724C35.3217 19.9 35.2697 20.0058 35.2932 20.1088L35.4157 20.6464C35.4391 20.7494 35.5291 20.8105 35.6166 20.7829L36.0736 20.6388C36.1612 20.6112 36.2131 20.5054 36.1897 20.4024L36.0672 19.8649C36.0438 19.7619 35.9538 19.7008 35.8662 19.7284Z" fill="#4A4A4A"/>
<path fill-rule="evenodd" clip-rule="evenodd" d="M35.8383 19.6066L35.0947 19.841C35.0527 19.8542 35.0079 19.8473 34.9702 19.8217C34.9325 19.7961 34.905 19.7539 34.8938 19.7045L34.7713 19.1669C34.76 19.1175 34.7659 19.0648 34.7877 19.0204C34.8095 18.9761 34.8453 18.9438 34.8873 18.9305L35.6309 18.6961C35.673 18.6829 35.7178 18.6898 35.7554 18.7154C35.7931 18.741 35.8206 18.7832 35.8319 18.8326L35.9544 19.3702C35.9656 19.4196 35.9597 19.4723 35.938 19.5167C35.9162 19.561 35.8804 19.5934 35.8383 19.6066Z" fill="#4A4A4A"/>
<path d="M34.1775 20.13L34.6345 19.986C34.722 19.9584 34.774 19.8526 34.7505 19.7496L34.628 19.212C34.6046 19.109 34.5146 19.0479 34.4271 19.0755L33.9701 19.2196C33.8825 19.2472 33.8306 19.353 33.854 19.456L33.9765 19.9935C33.9999 20.0965 34.0899 20.1576 34.1775 20.13Z" fill="#4A4A4A"/>
<path d="M33.2602 20.4191L33.7172 20.2751C33.8048 20.2475 33.8567 20.1416 33.8333 20.0386L33.7108 19.5011C33.6874 19.3981 33.5974 19.337 33.5098 19.3646L33.0528 19.5086C32.9653 19.5362 32.9133 19.6421 32.9368 19.745L33.0592 20.2826C33.0827 20.3856 33.1727 20.4467 33.2602 20.4191Z" fill="#4A4A4A"/>
<path d="M32.343 20.7082L32.8 20.5641C32.8875 20.5365 32.9395 20.4307 32.916 20.3277L32.7936 19.7901C32.7701 19.6872 32.6801 19.6261 32.5926 19.6537L32.1356 19.7977C32.0481 19.8253 31.9961 19.9311 32.0196 20.0341L32.142 20.5717C32.1655 20.6746 32.2555 20.7358 32.343 20.7082Z" fill="#4A4A4A"/>
<path d="M31.4255 20.9972L31.8825 20.8532C31.97 20.8256 32.022 20.7197 31.9985 20.6168L31.8761 20.0792C31.8526 19.9762 31.7627 19.9151 31.6751 19.9427L31.2181 20.0868C31.1306 20.1143 31.0786 20.2202 31.1021 20.3232L31.2245 20.8607C31.248 20.9637 31.338 21.0248 31.4255 20.9972Z" fill="#4A4A4A"/>
<path d="M30.5085 21.2863L30.9655 21.1422C31.0531 21.1147 31.105 21.0088 31.0816 20.9058L30.9591 20.3683C30.9356 20.2653 30.8457 20.2042 30.7581 20.2318L30.3011 20.3758C30.2136 20.4034 30.1616 20.5093 30.1851 20.6122L30.3075 21.1498C30.331 21.2528 30.421 21.3139 30.5085 21.2863Z" fill="#4A4A4A"/>
<path d="M29.591 21.5753L30.048 21.4313C30.1356 21.4037 30.1875 21.2979 30.1641 21.1949L30.0416 20.6573C30.0182 20.5544 29.9282 20.4932 29.8406 20.5208L29.3836 20.6649C29.2961 20.6925 29.2442 20.7983 29.2676 20.9013L29.3901 21.4389C29.4135 21.5418 29.5035 21.6029 29.591 21.5753Z" fill="#4A4A4A"/>
<path d="M28.6736 21.8644L29.1306 21.7204C29.2181 21.6928 29.27 21.5869 29.2466 21.484L29.1241 20.9464C29.1007 20.8434 29.0107 20.7823 28.9232 20.8099L28.4662 20.9539C28.3786 20.9815 28.3267 21.0874 28.3501 21.1904L28.4726 21.7279C28.496 21.8309 28.586 21.892 28.6736 21.8644Z" fill="#4A4A4A"/>
<path d="M27.7566 22.154L28.2136 22.0099C28.3011 21.9823 28.3531 21.8765 28.3296 21.7735L28.2071 21.2359C28.1837 21.133 28.0937 21.0719 28.0062 21.0995L27.5492 21.2435C27.4616 21.2711 27.4097 21.3769 27.4331 21.4799L27.5556 22.0175C27.579 22.1204 27.669 22.1816 27.7566 22.154Z" fill="#4A4A4A"/>
<path d="M26.8391 22.443L27.2961 22.299C27.3836 22.2714 27.4356 22.1655 27.4121 22.0626L27.2897 21.525C27.2662 21.422 27.1762 21.3609 27.0887 21.3885L26.6317 21.5326C26.5442 21.5601 26.4922 21.666 26.5157 21.769L26.6381 22.3065C26.6616 22.4095 26.7515 22.4706 26.8391 22.443Z" fill="#4A4A4A"/>
<path d="M25.9219 22.7321L26.3788 22.588C26.4664 22.5605 26.5183 22.4546 26.4949 22.3516L26.3724 21.8141C26.349 21.7111 26.259 21.65 26.1714 21.6776L25.7145 21.8216C25.6269 21.8492 25.575 21.9551 25.5984 22.058L25.7209 22.5956C25.7443 22.6986 25.8343 22.7597 25.9219 22.7321Z" fill="#4A4A4A"/>
<path d="M25.0046 23.0211L25.4616 22.8771C25.5491 22.8495 25.6011 22.7437 25.5776 22.6407L25.4552 22.1031C25.4317 22.0002 25.3418 21.939 25.2542 21.9666L24.7972 22.1107C24.7097 22.1383 24.6577 22.2441 24.6812 22.3471L24.8036 22.8847C24.8271 22.9876 24.9171 23.0487 25.0046 23.0211Z" fill="#4A4A4A"/>
<path d="M24.0871 23.3102L24.5441 23.1662C24.6317 23.1386 24.6836 23.0327 24.6602 22.9298L24.5377 22.3922C24.5143 22.2892 24.4243 22.2281 24.3367 22.2557L23.8797 22.3997C23.7922 22.4273 23.7402 22.5332 23.7637 22.6362L23.8862 23.1737C23.9096 23.2767 23.9996 23.3378 24.0871 23.3102Z" fill="#4A4A4A"/>
<path d="M23.1699 23.5993L23.6269 23.4552C23.7144 23.4276 23.7664 23.3218 23.7429 23.2188L23.6205 22.6813C23.597 22.5783 23.507 22.5172 23.4195 22.5448L22.9625 22.6888C22.875 22.7164 22.823 22.8222 22.8465 22.9252L22.9689 23.4628C22.9924 23.5658 23.0824 23.6269 23.1699 23.5993Z" fill="#4A4A4A"/>
<path d="M34.1775 20.13L34.6345 19.986C34.722 19.9584 34.774 19.8526 34.7505 19.7496L34.628 19.212C34.6046 19.109 34.5146 19.0479 34.4271 19.0755L33.9701 19.2196C33.8825 19.2472 33.8306 19.353 33.854 19.456L33.9765 19.9935C33.9999 20.0965 34.0899 20.1576 34.1775 20.13Z" fill="#4A4A4A"/>
<path d="M33.2602 20.4191L33.7172 20.2751C33.8048 20.2475 33.8567 20.1416 33.8333 20.0386L33.7108 19.5011C33.6874 19.3981 33.5974 19.337 33.5098 19.3646L33.0528 19.5086C32.9653 19.5362 32.9133 19.6421 32.9368 19.745L33.0592 20.2826C33.0827 20.3856 33.1727 20.4467 33.2602 20.4191Z" fill="#4A4A4A"/>
<path d="M32.343 20.7082L32.8 20.5641C32.8875 20.5365 32.9395 20.4307 32.916 20.3277L32.7936 19.7901C32.7701 19.6872 32.6801 19.6261 32.5926 19.6537L32.1356 19.7977C32.0481 19.8253 31.9961 19.9311 32.0196 20.0341L32.142 20.5717C32.1655 20.6746 32.2555 20.7358 32.343 20.7082Z" fill="#4A4A4A"/>
<path d="M31.4255 20.9972L31.8825 20.8532C31.97 20.8256 32.022 20.7197 31.9985 20.6168L31.8761 20.0792C31.8526 19.9762 31.7627 19.9151 31.6751 19.9427L31.2181 20.0868C31.1306 20.1143 31.0786 20.2202 31.1021 20.3232L31.2245 20.8607C31.248 20.9637 31.338 21.0248 31.4255 20.9972Z" fill="#4A4A4A"/>
<path d="M30.5085 21.2863L30.9655 21.1422C31.0531 21.1147 31.105 21.0088 31.0816 20.9058L30.9591 20.3683C30.9356 20.2653 30.8457 20.2042 30.7581 20.2318L30.3011 20.3758C30.2136 20.4034 30.1616 20.5093 30.1851 20.6122L30.3075 21.1498C30.331 21.2528 30.421 21.3139 30.5085 21.2863Z" fill="#4A4A4A"/>
<path d="M29.591 21.5753L30.048 21.4313C30.1356 21.4037 30.1875 21.2979 30.1641 21.1949L30.0416 20.6573C30.0182 20.5544 29.9282 20.4932 29.8406 20.5208L29.3836 20.6649C29.2961 20.6925 29.2442 20.7983 29.2676 20.9013L29.3901 21.4389C29.4135 21.5418 29.5035 21.6029 29.591 21.5753Z" fill="#4A4A4A"/>
<path d="M28.6736 21.8644L29.1306 21.7204C29.2181 21.6928 29.27 21.5869 29.2466 21.484L29.1241 20.9464C29.1007 20.8434 29.0107 20.7823 28.9232 20.8099L28.4662 20.9539C28.3786 20.9815 28.3267 21.0874 28.3501 21.1904L28.4726 21.7279C28.496 21.8309 28.586 21.892 28.6736 21.8644Z" fill="#4A4A4A"/>
<path d="M27.7566 22.154L28.2136 22.0099C28.3011 21.9823 28.3531 21.8765 28.3296 21.7735L28.2071 21.2359C28.1837 21.133 28.0937 21.0719 28.0062 21.0995L27.5492 21.2435C27.4616 21.2711 27.4097 21.3769 27.4331 21.4799L27.5556 22.0175C27.579 22.1204 27.669 22.1816 27.7566 22.154Z" fill="#4A4A4A"/>
<path d="M26.8391 22.443L27.2961 22.299C27.3836 22.2714 27.4356 22.1655 27.4121 22.0626L27.2897 21.525C27.2662 21.422 27.1762 21.3609 27.0887 21.3885L26.6317 21.5326C26.5442 21.5601 26.4922 21.666 26.5157 21.769L26.6381 22.3065C26.6616 22.4095 26.7515 22.4706 26.8391 22.443Z" fill="#4A4A4A"/>
<path d="M25.9219 22.7321L26.3788 22.588C26.4664 22.5605 26.5183 22.4546 26.4949 22.3516L26.3724 21.8141C26.349 21.7111 26.259 21.65 26.1714 21.6776L25.7145 21.8216C25.6269 21.8492 25.575 21.9551 25.5984 22.058L25.7209 22.5956C25.7443 22.6986 25.8343 22.7597 25.9219 22.7321Z" fill="#4A4A4A"/>
<path d="M25.0046 23.0211L25.4616 22.8771C25.5491 22.8495 25.6011 22.7437 25.5776 22.6407L25.4552 22.1031C25.4317 22.0002 25.3418 21.939 25.2542 21.9666L24.7972 22.1107C24.7097 22.1383 24.6577 22.2441 24.6812 22.3471L24.8036 22.8847C24.8271 22.9876 24.9171 23.0487 25.0046 23.0211Z" fill="#4A4A4A"/>
<path d="M24.0871 23.3102L24.5441 23.1662C24.6317 23.1386 24.6836 23.0327 24.6602 22.9298L24.5377 22.3922C24.5143 22.2892 24.4243 22.2281 24.3367 22.2557L23.8797 22.3997C23.7922 22.4273 23.7402 22.5332 23.7637 22.6362L23.8862 23.1737C23.9096 23.2767 23.9996 23.3378 24.0871 23.3102Z" fill="#4A4A4A"/>
<path d="M23.1699 23.5993L23.6269 23.4552C23.7144 23.4276 23.7664 23.3218 23.7429 23.2188L23.6205 22.6813C23.597 22.5783 23.507 22.5172 23.4195 22.5448L22.9625 22.6888C22.875 22.7164 22.823 22.8222 22.8465 22.9252L22.9689 23.4628C22.9924 23.5658 23.0824 23.6269 23.1699 23.5993Z" fill="#4A4A4A"/>
<path fill-rule="evenodd" clip-rule="evenodd" d="M23.4434 24.8001L24.5023 24.4664C24.5443 24.4531 24.5891 24.4601 24.6268 24.4857C24.6645 24.5113 24.692 24.5534 24.7033 24.6029L24.8257 25.1404C24.837 25.1899 24.8311 25.2426 24.8093 25.2869C24.7876 25.3313 24.7517 25.3636 24.7097 25.3769L23.6508 25.7106C23.6088 25.7239 23.564 25.7169 23.5263 25.6913C23.4886 25.6657 23.4611 25.6236 23.4498 25.5741L23.3274 25.0367C23.3162 24.9873 23.3221 24.9346 23.3438 24.8903C23.3656 24.8459 23.4014 24.8136 23.4435 24.8003L23.4434 24.8001Z" fill="#4A4A4A"/>
<path d="M25.448 24.1683L24.991 24.3123C24.9035 24.3399 24.8515 24.4458 24.875 24.5488L24.9974 25.0863C25.0209 25.1893 25.1109 25.2504 25.1984 25.2228L25.6554 25.0788C25.743 25.0512 25.7949 24.9453 25.7715 24.8424L25.649 24.3048C25.6255 24.2018 25.5356 24.1407 25.448 24.1683Z" fill="#4A4A4A"/>
<path d="M26.3655 23.8792L25.9085 24.0233C25.821 24.0509 25.769 24.1567 25.7925 24.2597L25.9149 24.7973C25.9384 24.9002 26.0284 24.9613 26.1159 24.9337L26.5729 24.7897C26.6604 24.7621 26.7124 24.6563 26.6889 24.5533L26.5665 24.0157C26.543 23.9128 26.453 23.8517 26.3655 23.8792Z" fill="#4A4A4A"/>
<path d="M27.2827 23.5897L26.8257 23.7337C26.7382 23.7613 26.6863 23.8672 26.7097 23.9701L26.8322 24.5077C26.8556 24.6107 26.9456 24.6718 27.0331 24.6442L27.4901 24.5002C27.5777 24.4726 27.6296 24.3667 27.6062 24.2637L27.4837 23.7262C27.4603 23.6232 27.3703 23.5621 27.2827 23.5897Z" fill="#4A4A4A"/>
<path d="M28.2002 23.3006L27.7432 23.4447C27.6557 23.4723 27.6037 23.5781 27.6272 23.6811L27.7496 24.2186C27.7731 24.3216 27.8631 24.3827 27.9506 24.3551L28.4076 24.2111C28.4952 24.1835 28.5471 24.0777 28.5236 23.9747L28.4012 23.4371C28.3777 23.3341 28.2878 23.273 28.2002 23.3006Z" fill="#4A4A4A"/>
<path d="M29.1175 23.0116L28.6605 23.1556C28.5729 23.1832 28.521 23.289 28.5444 23.392L28.6669 23.9296C28.6903 24.0326 28.7803 24.0937 28.8679 24.0661L29.3248 23.922C29.4124 23.8944 29.4643 23.7886 29.4409 23.6856L29.3184 23.1481C29.295 23.0451 29.205 22.984 29.1175 23.0116Z" fill="#4A4A4A"/>
<path d="M30.0347 22.7225L29.5777 22.8665C29.4902 22.8941 29.4382 23 29.4617 23.103L29.5841 23.6405C29.6076 23.7435 29.6976 23.8046 29.7851 23.777L30.2421 23.633C30.3296 23.6054 30.3816 23.4995 30.3581 23.3966L30.2357 22.859C30.2122 22.756 30.1222 22.6949 30.0347 22.7225Z" fill="#4A4A4A"/>
<path d="M30.9519 22.4334L30.4949 22.5775C30.4074 22.6051 30.3554 22.7109 30.3789 22.8139L30.5013 23.3515C30.5248 23.4544 30.6148 23.5155 30.7023 23.4879L31.1593 23.3439C31.2469 23.3163 31.2988 23.2105 31.2754 23.1075L31.1529 22.5699C31.1295 22.467 31.0395 22.4059 30.9519 22.4334Z" fill="#4A4A4A"/>
<path d="M31.8692 22.1444L31.4122 22.2884C31.3246 22.316 31.2727 22.4219 31.2961 22.5248L31.4186 23.0624C31.442 23.1654 31.532 23.2265 31.6196 23.1989L32.0766 23.0548C32.1641 23.0273 32.2161 22.9214 32.1926 22.8184L32.0701 22.2809C32.0467 22.1779 31.9567 22.1168 31.8692 22.1444Z" fill="#4A4A4A"/>
<path d="M32.7864 21.8553L32.3294 21.9994C32.2419 22.0269 32.1899 22.1328 32.2134 22.2358L32.3358 22.7733C32.3593 22.8763 32.4493 22.9374 32.5368 22.9098L32.9938 22.7658C33.0813 22.7382 33.1333 22.6323 33.1098 22.5294L32.9874 21.9918C32.9639 21.8888 32.8739 21.8277 32.7864 21.8553Z" fill="#4A4A4A"/>
<path d="M33.7039 21.5658L33.2469 21.7098C33.1593 21.7374 33.1074 21.8432 33.1309 21.9462L33.2533 22.4838C33.2768 22.5868 33.3667 22.6479 33.4543 22.6203L33.9113 22.4762C33.9988 22.4486 34.0508 22.3428 34.0273 22.2398L33.9049 21.7023C33.8814 21.5993 33.7914 21.5382 33.7039 21.5658Z" fill="#4A4A4A"/>
<path d="M34.6211 21.2767L34.1641 21.4207C34.0766 21.4483 34.0246 21.5542 34.0481 21.6572L34.1705 22.1947C34.194 22.2977 34.284 22.3588 34.3715 22.3312L34.8285 22.1872C34.9161 22.1596 34.968 22.0537 34.9445 21.9508L34.8221 21.4132C34.7986 21.3102 34.7087 21.2491 34.6211 21.2767Z" fill="#4A4A4A"/>
<path fill-rule="evenodd" clip-rule="evenodd" d="M35.1103 21.1228L36.1118 20.8072C36.1538 20.7939 36.1986 20.8009 36.2363 20.8265C36.274 20.8521 36.3015 20.8942 36.3128 20.9437L36.4352 21.4812C36.4465 21.5307 36.4406 21.5834 36.4188 21.6277C36.3971 21.6721 36.3612 21.7044 36.3192 21.7177L35.3176 22.0334C35.2755 22.0466 35.2307 22.0397 35.193 22.0141C35.1554 21.9885 35.1278 21.9463 35.1166 21.8969L34.9942 21.3595C34.9829 21.31 34.9888 21.2574 35.0106 21.213C35.0323 21.1687 35.0682 21.1363 35.1102 21.1231L35.1103 21.1228Z" fill="#4A4A4A"/>
<path d="M24.4075 26.8812L23.9505 27.0252C23.863 27.0528 23.811 27.1587 23.8345 27.2617L23.9569 27.7992C23.9804 27.9022 24.0704 27.9633 24.1579 27.9357L24.6149 27.7917C24.7024 27.7641 24.7544 27.6582 24.7309 27.5552L24.6085 27.0177C24.585 26.9147 24.495 26.8536 24.4075 26.8812Z" fill="#4A4A4A"/>
<path d="M25.325 26.5921L24.868 26.7362C24.7804 26.7638 24.7285 26.8696 24.7519 26.9726L24.8744 27.5101C24.8979 27.6131 24.9878 27.6742 25.0754 27.6466L25.5324 27.5026C25.6199 27.475 25.6719 27.3692 25.6484 27.2662L25.526 26.7286C25.5025 26.6257 25.4125 26.5645 25.325 26.5921Z" fill="#4A4A4A"/>
<path d="M26.242 26.3031L25.785 26.4471C25.6974 26.4747 25.6455 26.5805 25.6689 26.6835L25.7914 27.2211C25.8148 27.3241 25.9048 27.3852 25.9924 27.3576L26.4494 27.2135C26.5369 27.1859 26.5889 27.0801 26.5654 26.9771L26.4429 26.4396C26.4195 26.3366 26.3295 26.2755 26.242 26.3031Z" fill="#4A4A4A"/>
<path d="M27.1594 26.014L26.7025 26.158C26.6149 26.1856 26.563 26.2915 26.5864 26.3945L26.7089 26.932C26.7323 27.035 26.8223 27.0961 26.9099 27.0685L27.3668 26.9245C27.4544 26.8969 27.5063 26.791 27.4829 26.6881L27.3604 26.1505C27.337 26.0475 27.247 25.9864 27.1594 26.014Z" fill="#4A4A4A"/>
<path fill-rule="evenodd" clip-rule="evenodd" d="M27.6194 25.869L32.0324 24.4781C32.0744 24.4648 32.1192 24.4718 32.1569 24.4974C32.1946 24.523 32.2221 24.5651 32.2334 24.6146L32.3559 25.1523C32.3671 25.2018 32.3612 25.2545 32.3395 25.2988C32.3177 25.3431 32.2819 25.3755 32.2398 25.3887L27.8269 26.7796C27.7848 26.7929 27.7401 26.786 27.7024 26.7604C27.6647 26.7348 27.6372 26.6926 27.6259 26.6431L27.5034 26.1054C27.4921 26.056 27.498 26.0033 27.5198 25.9589C27.5416 25.9146 27.5774 25.8822 27.6194 25.869ZM32.4926 24.333L33.0643 24.1528C33.1063 24.1396 33.1511 24.1465 33.1888 24.1721C33.2265 24.1977 33.254 24.2399 33.2653 24.2893L33.3878 24.8271C33.399 24.8765 33.3931 24.9292 33.3714 24.9735C33.3496 25.0179 33.3138 25.0502 33.2717 25.0635L32.7 25.2437C32.658 25.2569 32.6132 25.25 32.5755 25.2244C32.5378 25.1988 32.5103 25.1566 32.499 25.1072L32.3765 24.5695C32.3653 24.52 32.3711 24.4673 32.3929 24.423C32.4147 24.3786 32.4505 24.3463 32.4926 24.333Z" fill="#4A4A4A"/>
<path d="M33.9817 23.8636L33.5247 24.0077C33.4372 24.0352 33.3852 24.1411 33.4087 24.2441L33.5311 24.7816C33.5546 24.8846 33.6446 24.9457 33.7321 24.9181L34.1891 24.7741C34.2766 24.7465 34.3286 24.6406 34.3051 24.5377L34.1827 24.0001C34.1592 23.8971 34.0693 23.836 33.9817 23.8636Z" fill="#4A4A4A"/>
<path d="M34.8992 23.5746L34.4422 23.7186C34.3547 23.7462 34.3027 23.852 34.3262 23.955L34.4486 24.4926C34.4721 24.5955 34.5621 24.6567 34.6496 24.6291L35.1066 24.485C35.1941 24.4574 35.2461 24.3516 35.2226 24.2486L35.1002 23.7111C35.0767 23.6081 34.9867 23.547 34.8992 23.5746Z" fill="#4A4A4A"/>
<path d="M36.6189 23.0326L36.1619 23.1766C36.0744 23.2042 36.0224 23.31 36.0459 23.413L36.1683 23.9506C36.1918 24.0536 36.2818 24.1147 36.3693 24.0871L36.8263 23.943C36.9139 23.9154 36.9658 23.8096 36.9423 23.7066L36.8199 23.1691C36.7964 23.0661 36.7065 23.005 36.6189 23.0326Z" fill="#4A4A4A"/>
<path d="M35.2316 23.8856L35.1857 23.6842C35.1745 23.6347 35.1804 23.582 35.2021 23.5377C35.2239 23.4934 35.2597 23.461 35.3018 23.4478L35.7588 23.3037C35.8008 23.2905 35.8456 23.2974 35.8833 23.323C35.921 23.3486 35.9485 23.3908 35.9597 23.4402L36.0056 23.6416L35.2316 23.8856Z" fill="#4A4A4A"/>
<path d="M36.0367 23.7761L36.0826 23.9774C36.0938 24.0269 36.0879 24.0796 36.0662 24.1239C36.0444 24.1682 36.0086 24.2006 35.9665 24.2139L35.5096 24.3579C35.4675 24.3711 35.4227 24.3642 35.385 24.3386C35.3473 24.313 35.3198 24.2708 35.3086 24.2214L35.2627 24.02L36.0367 23.7761Z" fill="#4A4A4A"/>
<path d="M35.4704 18.1906L22.9149 22.1479C22.8199 22.1779 22.7636 22.2927 22.789 22.4045C22.8145 22.5162 22.9121 22.5825 23.0071 22.5526L35.5626 18.5952C35.6576 18.5653 35.7139 18.4504 35.6885 18.3387C35.663 18.227 35.5654 18.1606 35.4704 18.1906Z" fill="#4A4A4A"/>
<path opacity="0.136" d="M23.6824 21.9781L23.1883 22.1338C23.125 22.1537 23.0875 22.2303 23.1044 22.3047L23.1045 22.3049C23.1214 22.3794 23.1865 22.4236 23.2498 22.4036L23.7439 22.2479C23.8072 22.2279 23.8447 22.1514 23.8278 22.0769L23.8277 22.0768C23.8108 22.0023 23.7457 21.9581 23.6824 21.9781Z" fill="#D8D8D8"/>
<path opacity="0.136" d="M24.6722 21.6661L24.1781 21.8218C24.1148 21.8417 24.0772 21.9183 24.0942 21.9927L24.0942 21.9929C24.1112 22.0674 24.1762 22.1115 24.2395 22.0916L24.7336 21.9359C24.7969 21.9159 24.8345 21.8394 24.8175 21.7649L24.8175 21.7647C24.8005 21.6903 24.7355 21.6461 24.6722 21.6661Z" fill="#D8D8D8"/>
<path opacity="0.136" d="M25.4336 21.4263L24.9396 21.582C24.8763 21.602 24.8387 21.6785 24.8557 21.753L24.8557 21.7532C24.8727 21.8276 24.9377 21.8718 25.001 21.8518L25.4951 21.6961C25.5584 21.6762 25.5959 21.5996 25.579 21.5252L25.5789 21.525C25.562 21.4505 25.4969 21.4064 25.4336 21.4263Z" fill="#D8D8D8"/>
<path opacity="0.136" d="M26.1951 21.1861L25.701 21.3418C25.6377 21.3618 25.6002 21.4383 25.6171 21.5127L25.6172 21.5129C25.6341 21.5874 25.6992 21.6316 25.7625 21.6116L26.2566 21.4559C26.3199 21.4359 26.3574 21.3594 26.3405 21.285L26.3404 21.2848C26.3235 21.2103 26.2584 21.1661 26.1951 21.1861Z" fill="#D8D8D8"/>
<path opacity="0.136" d="M26.9566 20.9463L26.4625 21.1021C26.3992 21.122 26.3616 21.1985 26.3786 21.273L26.3787 21.2732C26.3956 21.3476 26.4607 21.3918 26.524 21.3719L27.018 21.2161C27.0813 21.1962 27.1189 21.1197 27.1019 21.0452L27.1019 21.045C27.0849 20.9706 27.0199 20.9264 26.9566 20.9463Z" fill="#D8D8D8"/>
<path opacity="0.136" d="M27.9082 20.646L27.4142 20.8018C27.3509 20.8217 27.3133 20.8982 27.3303 20.9727L27.3303 20.9729C27.3473 21.0473 27.4123 21.0915 27.4756 21.0716L27.9697 20.9158C28.033 20.8959 28.0706 20.8194 28.0536 20.7449L28.0536 20.7447C28.0366 20.6703 27.9715 20.6261 27.9082 20.646Z" fill="#D8D8D8"/>
<path opacity="0.136" d="M28.6697 20.4063L28.1756 20.562C28.1123 20.582 28.0748 20.6585 28.0917 20.733L28.0918 20.7331C28.1087 20.8076 28.1738 20.8518 28.2371 20.8318L28.7312 20.6761C28.7945 20.6561 28.832 20.5796 28.8151 20.5052L28.815 20.505C28.7981 20.4305 28.733 20.3863 28.6697 20.4063Z" fill="#D8D8D8"/>
<path opacity="0.136" d="M29.4309 20.1661L28.9369 20.3218C28.8736 20.3417 28.836 20.4183 28.853 20.4927L28.853 20.4929C28.87 20.5674 28.935 20.6115 28.9983 20.5916L29.4924 20.4359C29.5557 20.4159 29.5933 20.3394 29.5763 20.2649L29.5763 20.2647C29.5593 20.1903 29.4942 20.1461 29.4309 20.1661Z" fill="#D8D8D8"/>
<path opacity="0.136" d="M30.1924 19.9263L29.6983 20.082C29.635 20.102 29.5975 20.1785 29.6144 20.253L29.6145 20.2532C29.6315 20.3276 29.6965 20.3718 29.7598 20.3518L30.2539 20.1961C30.3172 20.1762 30.3547 20.0996 30.3378 20.0252L30.3377 20.025C30.3208 19.9505 30.2557 19.9064 30.1924 19.9263Z" fill="#D8D8D8"/>
<path opacity="0.136" d="M31.1443 19.6265L30.6502 19.7822C30.587 19.8022 30.5494 19.8787 30.5664 19.9532L30.5664 19.9534C30.5834 20.0278 30.6484 20.072 30.7117 20.052L31.2058 19.8963C31.2691 19.8764 31.3066 19.7998 31.2897 19.7254L31.2896 19.7252C31.2727 19.6507 31.2076 19.6066 31.1443 19.6265Z" fill="#D8D8D8"/>
<path opacity="0.136" d="M31.9056 19.3863L31.4115 19.542C31.3482 19.562 31.3106 19.6385 31.3276 19.7129L31.3276 19.7131C31.3446 19.7876 31.4096 19.8318 31.4729 19.8118L31.967 19.6561C32.0303 19.6361 32.0679 19.5596 32.0509 19.4851L32.0509 19.485C32.0339 19.4105 31.9689 19.3663 31.9056 19.3863Z" fill="#D8D8D8"/>
<path opacity="0.136" d="M32.6673 19.146L32.1732 19.3018C32.1099 19.3217 32.0723 19.3982 32.0893 19.4727L32.0893 19.4729C32.1063 19.5473 32.1714 19.5915 32.2347 19.5716L32.7287 19.4158C32.792 19.3959 32.8296 19.3194 32.8126 19.2449L32.8126 19.2447C32.7956 19.1703 32.7306 19.1261 32.6673 19.146Z" fill="#D8D8D8"/>
<path opacity="0.136" d="M33.6187 18.8462L33.1246 19.002C33.0613 19.0219 33.0238 19.0984 33.0407 19.1729L33.0408 19.1731C33.0577 19.2475 33.1228 19.2917 33.1861 19.2718L33.6802 19.116C33.7434 19.0961 33.781 19.0196 33.764 18.9451L33.764 18.9449C33.747 18.8705 33.682 18.8263 33.6187 18.8462Z" fill="#D8D8D8"/>
<path opacity="0.136" d="M34.3802 18.6065L33.8861 18.7622C33.8228 18.7822 33.7852 18.8587 33.8022 18.9331L33.8022 18.9333C33.8192 19.0078 33.8843 19.052 33.9475 19.032L34.4416 18.8763C34.5049 18.8563 34.5425 18.7798 34.5255 18.7054L34.5255 18.7052C34.5085 18.6307 34.4435 18.5865 34.3802 18.6065Z" fill="#D8D8D8"/>
<path opacity="0.136" d="M35.1416 18.3663L34.6476 18.522C34.5843 18.5419 34.5467 18.6185 34.5637 18.6929L34.5637 18.6931C34.5807 18.7676 34.6457 18.8117 34.709 18.7918L35.2031 18.6361C35.2664 18.6161 35.304 18.5396 35.287 18.4651L35.287 18.4649C35.27 18.3905 35.2049 18.3463 35.1416 18.3663Z" fill="#D8D8D8"/>
<path fill-rule="evenodd" clip-rule="evenodd" d="M28.9743 33.1742C28.9383 33.1742 28.904 33.1813 28.8694 33.1865C28.8632 33.1576 28.8573 33.1284 28.8504 33.0995C29.0252 33.0134 29.1694 32.8589 29.2584 32.662C29.3473 32.4651 29.3756 32.2381 29.3384 32.0195C29.3012 31.8009 29.2008 31.6041 29.0542 31.4627C28.9077 31.3213 28.724 31.244 28.5345 31.2438C28.3553 31.2446 28.1813 31.3149 28.0395 31.4438C28.0214 31.422 28.0031 31.4004 27.9846 31.3789C28.0918 31.2131 28.15 31.0107 28.1505 30.8023C28.1504 30.58 28.085 30.3645 27.9654 30.1923C27.8458 30.02 27.6793 29.9017 27.494 29.8572C27.3088 29.8128 27.1162 29.8449 26.9488 29.9482C26.7814 30.0515 26.6494 30.2197 26.5752 30.4242C26.551 30.4161 26.5265 30.4093 26.5022 30.402C26.5067 30.3613 26.5127 30.3209 26.5127 30.2786C26.5127 30.0227 26.4263 29.7772 26.2724 29.5962C26.1185 29.4152 25.9098 29.3135 25.6922 29.3135C25.4746 29.3135 25.2659 29.4152 25.112 29.5962C24.9581 29.7772 24.8717 30.0227 24.8717 30.2786C24.8717 30.3209 24.8778 30.3613 24.8822 30.402C24.8579 30.4093 24.8335 30.4161 24.8092 30.4242C24.7353 30.2193 24.6034 30.0507 24.4359 29.9471C24.2684 29.8435 24.0756 29.8112 23.8901 29.8557C23.7047 29.9002 23.5381 30.0188 23.4185 30.1913C23.2989 30.3639 23.2337 30.5797 23.234 30.8023C23.234 31.0195 23.297 31.2176 23.3999 31.3789C22.7899 32.08 22.4102 33.057 22.4102 34.1393C22.4102 36.2716 23.8795 38 25.6922 38C27.2248 38 28.5082 36.7627 28.8694 35.0921C28.904 35.0974 28.9383 35.1045 28.9743 35.1045C29.1919 35.1045 29.4006 35.0028 29.5545 34.8218C29.7083 34.6408 29.7948 34.3953 29.7948 34.1393C29.7948 33.8834 29.7083 33.6379 29.5545 33.4569C29.4006 33.2758 29.1919 33.1742 28.9743 33.1742Z" fill="#44D860"/>
<path fill-rule="evenodd" clip-rule="evenodd" d="M19.1282 26.4178H25.6923V22.5571H19.1282V26.4178Z" fill="#3ECC5F"/>
<path fill-rule="evenodd" clip-rule="evenodd" d="M27.3333 24.97C27.4421 24.97 27.5465 24.9192 27.6234 24.8287C27.7004 24.7382 27.7436 24.6154 27.7436 24.4874C27.7436 24.3595 27.7004 24.2367 27.6234 24.1462C27.5465 24.0557 27.4421 24.0049 27.3333 24.0049C27.3154 24.0049 27.2982 24.0085 27.281 24.011C27.2777 23.9966 27.2749 23.9821 27.2715 23.9676C27.3588 23.9245 27.4307 23.8471 27.4751 23.7487C27.5195 23.6503 27.5336 23.5369 27.515 23.4276C27.4964 23.3184 27.4463 23.2201 27.3731 23.1494C27.2999 23.0787 27.2081 23.0399 27.1134 23.0397C27.0201 23.0397 26.9349 23.0777 26.866 23.1397C26.8569 23.1287 26.8477 23.1179 26.8384 23.1073C26.8899 23.0268 26.9214 22.9275 26.9214 22.8189C26.9214 22.7076 26.8887 22.5998 26.8289 22.5137C26.7691 22.4276 26.6858 22.3684 26.5932 22.3462C26.5005 22.3239 26.4042 22.34 26.3205 22.3917C26.2368 22.4434 26.1708 22.5276 26.1337 22.6299C25.9901 22.5821 25.8416 22.5576 25.6923 22.5571C24.7861 22.5571 24.0513 23.4215 24.0513 24.4874C24.0513 25.5534 24.7861 26.4178 25.6923 26.4178C25.8456 26.4178 25.9931 26.3911 26.1337 26.345C26.1708 26.4473 26.2368 26.5315 26.3205 26.5832C26.4042 26.6349 26.5005 26.651 26.5932 26.6287C26.6858 26.6065 26.7691 26.5473 26.8289 26.4612C26.8887 26.375 26.9214 26.2673 26.9214 26.156C26.9214 26.0474 26.8899 25.9481 26.8384 25.8676C26.8477 25.857 26.8569 25.8462 26.866 25.8352C26.9349 25.8972 27.0201 25.9352 27.1134 25.9352C27.2082 25.9352 27.3001 25.8966 27.3735 25.8259C27.4468 25.7552 27.497 25.6568 27.5157 25.5474C27.5343 25.4381 27.5201 25.3245 27.4756 25.226C27.4311 25.1275 27.359 25.0503 27.2715 25.0073C27.2749 24.993 27.2777 24.9783 27.281 24.9639C27.2982 24.9664 27.3154 24.97 27.3333 24.97Z" fill="#44D860"/>
<path fill-rule="evenodd" clip-rule="evenodd" d="M28.9742 10.7338C28.948 10.7338 28.9201 10.7299 28.8938 10.7242C28.8674 10.7181 28.8416 10.7091 28.8167 10.6971C28.7921 10.6855 28.7691 10.6701 28.746 10.6527C28.7246 10.6354 28.7035 10.6141 28.6836 10.5929C28.6657 10.5697 28.6477 10.5466 28.6329 10.5195C28.6181 10.4925 28.605 10.4655 28.595 10.4365C28.5748 10.3776 28.5643 10.3147 28.564 10.2512C28.564 10.2203 28.5672 10.1875 28.5722 10.1566C28.5771 10.1257 28.5853 10.0968 28.595 10.0659C28.605 10.0369 28.6181 10.0099 28.6329 9.9829C28.6477 9.9578 28.6657 9.93271 28.6836 9.90955C28.7035 9.88831 28.7246 9.86708 28.746 9.8497C28.7691 9.83233 28.7921 9.81689 28.8167 9.80531C28.8411 9.79373 28.8676 9.78407 28.8938 9.77828C28.9463 9.76477 29.0005 9.76477 29.0546 9.77828C29.0807 9.78407 29.1071 9.79373 29.1318 9.80531C29.1562 9.81689 29.1794 9.83233 29.2023 9.8497C29.2237 9.86708 29.2448 9.88831 29.2647 9.90955C29.2827 9.93271 29.3008 9.9578 29.3156 9.9829C29.3303 10.0099 29.3435 10.0369 29.3533 10.0659C29.3631 10.0968 29.3713 10.1257 29.3763 10.1566C29.381 10.1875 29.3845 10.2203 29.3845 10.2512C29.3845 10.3786 29.34 10.5041 29.2647 10.5929C29.2448 10.6141 29.2237 10.6354 29.2023 10.6527C29.1794 10.6701 29.1562 10.6855 29.1318 10.6971C29.0817 10.7211 29.0282 10.7336 28.9742 10.7338ZM32.2563 10.4925C32.148 10.4925 32.0429 10.4404 31.9657 10.3516C31.9474 10.3285 31.9305 10.3039 31.9149 10.2782C31.9002 10.2512 31.887 10.2242 31.877 10.1952C31.8569 10.1363 31.8464 10.0734 31.846 10.0099C31.846 9.88252 31.8903 9.75898 31.9657 9.66825C31.9855 9.64702 32.0067 9.62579 32.028 9.60841C32.0511 9.59104 32.0741 9.5756 32.0987 9.56401C32.1232 9.55243 32.1496 9.54278 32.1759 9.53699C32.2284 9.52348 32.2842 9.52348 32.3367 9.53699C32.3628 9.54278 32.3892 9.55243 32.4138 9.56401C32.4383 9.5756 32.4614 9.59104 32.4844 9.60841C32.5057 9.62579 32.5269 9.64702 32.5467 9.66825C32.6221 9.75898 32.6665 9.88252 32.6665 10.0099C32.6665 10.0408 32.6631 10.0736 32.6583 10.1045C32.6534 10.1354 32.6452 10.1663 32.6354 10.1952C32.6239 10.2242 32.6124 10.2512 32.5976 10.2782C32.5828 10.3033 32.5648 10.3284 32.5467 10.3516C32.5269 10.3728 32.5057 10.3941 32.4844 10.4114C32.4614 10.4288 32.4383 10.4443 32.4138 10.4558C32.3638 10.4798 32.3103 10.4923 32.2563 10.4925Z" fill="#262E34"/>
<path d="M46.144 27.64C45.472 27.64 44.8747 27.5467 44.352 27.36C43.8293 27.1733 43.33 26.8653 42.854 26.436C42.7513 26.3613 42.672 26.2727 42.616 26.17C42.5693 26.058 42.546 25.946 42.546 25.834C42.546 25.6567 42.6113 25.498 42.742 25.358C42.8727 25.218 43.036 25.148 43.232 25.148C43.3813 25.148 43.5213 25.1993 43.652 25.302C44.0067 25.6287 44.3753 25.876 44.758 26.044C45.15 26.212 45.6073 26.296 46.13 26.296C46.5033 26.296 46.844 26.2353 47.152 26.114C47.4693 25.9927 47.7213 25.8293 47.908 25.624C48.0947 25.4187 48.188 25.1807 48.188 24.91C48.188 24.574 48.09 24.2987 47.894 24.084C47.7073 23.86 47.432 23.678 47.068 23.538C46.7133 23.3887 46.284 23.2627 45.78 23.16C45.3133 23.076 44.8933 22.9593 44.52 22.81C44.156 22.6607 43.8433 22.474 43.582 22.25C43.3207 22.0167 43.12 21.7413 42.98 21.424C42.84 21.1067 42.77 20.738 42.77 20.318C42.77 19.7487 42.9193 19.2587 43.218 18.848C43.5167 18.4373 43.9227 18.12 44.436 17.896C44.9493 17.672 45.528 17.56 46.172 17.56C46.76 17.56 47.3107 17.6533 47.824 17.84C48.3373 18.0173 48.7527 18.26 49.07 18.568C49.294 18.764 49.406 18.974 49.406 19.198C49.406 19.366 49.336 19.5247 49.196 19.674C49.0653 19.814 48.9113 19.884 48.734 19.884C48.6033 19.884 48.4913 19.8467 48.398 19.772C48.2487 19.6133 48.048 19.4733 47.796 19.352C47.544 19.2213 47.2733 19.114 46.984 19.03C46.704 18.946 46.4333 18.904 46.172 18.904C45.752 18.904 45.3927 18.9647 45.094 19.086C44.7953 19.198 44.5667 19.3567 44.408 19.562C44.2493 19.758 44.17 19.9913 44.17 20.262C44.17 20.5793 44.2587 20.8407 44.436 21.046C44.6227 21.2513 44.8793 21.4193 45.206 21.55C45.5327 21.6713 45.906 21.7833 46.326 21.886C46.8393 21.998 47.2967 22.124 47.698 22.264C48.1087 22.404 48.454 22.586 48.734 22.81C49.014 23.0247 49.2287 23.2953 49.378 23.622C49.5273 23.9487 49.602 24.3547 49.602 24.84C49.602 25.4 49.4433 25.89 49.126 26.31C48.8087 26.73 48.3887 27.0567 47.866 27.29C47.3527 27.5233 46.7787 27.64 46.144 27.64ZM51.0715 20.22H54.3615C54.5481 20.22 54.7021 20.2853 54.8235 20.416C54.9541 20.5373 55.0195 20.6913 55.0195 20.878C55.0195 21.0553 54.9541 21.2047 54.8235 21.326C54.7021 21.4473 54.5481 21.508 54.3615 21.508H51.0715C50.8848 21.508 50.7261 21.4473 50.5955 21.326C50.4741 21.1953 50.4135 21.0413 50.4135 20.864C50.4135 20.6773 50.4741 20.5233 50.5955 20.402C50.7261 20.2807 50.8848 20.22 51.0715 20.22ZM52.5415 18.4C52.7468 18.4 52.9148 18.47 53.0455 18.61C53.1761 18.7407 53.2415 18.9087 53.2415 19.114V25.61C53.2415 25.778 53.2695 25.9133 53.3255 26.016C53.3815 26.1187 53.4561 26.1887 53.5495 26.226C53.6521 26.2633 53.7548 26.282 53.8575 26.282C53.9601 26.282 54.0488 26.2633 54.1235 26.226C54.2075 26.1887 54.3055 26.17 54.4175 26.17C54.5295 26.17 54.6321 26.2213 54.7255 26.324C54.8188 26.4267 54.8655 26.5667 54.8655 26.744C54.8655 26.968 54.7441 27.15 54.5015 27.29C54.2588 27.43 53.9975 27.5 53.7175 27.5C53.5588 27.5 53.3721 27.486 53.1575 27.458C52.9428 27.43 52.7328 27.36 52.5275 27.248C52.3315 27.136 52.1681 26.9587 52.0375 26.716C51.9068 26.464 51.8415 26.114 51.8415 25.666V19.114C51.8415 18.9087 51.9068 18.7407 52.0375 18.61C52.1775 18.47 52.3455 18.4 52.5415 18.4ZM62.6038 20.024C62.8092 20.024 62.9772 20.094 63.1078 20.234C63.2385 20.3647 63.3038 20.5327 63.3038 20.738V26.786C63.3038 26.9913 63.2385 27.164 63.1078 27.304C62.9772 27.4347 62.8092 27.5 62.6038 27.5C62.4078 27.5 62.2398 27.4347 62.0998 27.304C61.9692 27.164 61.9038 26.9913 61.9038 26.786V25.778L62.1978 25.82C62.1978 25.988 62.1278 26.1747 61.9878 26.38C61.8572 26.5853 61.6752 26.786 61.4418 26.982C61.2085 27.1687 60.9332 27.3273 60.6158 27.458C60.2985 27.5793 59.9578 27.64 59.5938 27.64C58.9498 27.64 58.3712 27.4767 57.8578 27.15C57.3445 26.814 56.9385 26.3567 56.6398 25.778C56.3412 25.1993 56.1918 24.5413 56.1918 23.804C56.1918 23.048 56.3412 22.3853 56.6398 21.816C56.9385 21.2373 57.3398 20.7847 57.8438 20.458C58.3572 20.1313 58.9265 19.968 59.5518 19.968C59.9532 19.968 60.3218 20.0333 60.6578 20.164C61.0032 20.2947 61.3018 20.4627 61.5538 20.668C61.8058 20.8733 61.9972 21.0927 62.1278 21.326C62.2678 21.55 62.3378 21.7647 62.3378 21.97L61.9038 22.012V20.738C61.9038 20.542 61.9692 20.374 62.0998 20.234C62.2398 20.094 62.4078 20.024 62.6038 20.024ZM59.7478 26.352C60.1865 26.352 60.5738 26.24 60.9098 26.016C61.2458 25.792 61.5072 25.4887 61.6938 25.106C61.8805 24.714 61.9738 24.28 61.9738 23.804C61.9738 23.3187 61.8805 22.8847 61.6938 22.502C61.5072 22.1193 61.2458 21.816 60.9098 21.592C60.5738 21.368 60.1865 21.256 59.7478 21.256C59.3185 21.256 58.9358 21.368 58.5998 21.592C58.2732 21.816 58.0118 22.1193 57.8158 22.502C57.6292 22.8847 57.5358 23.3187 57.5358 23.804C57.5358 24.28 57.6292 24.714 57.8158 25.106C58.0118 25.4887 58.2732 25.792 58.5998 26.016C58.9358 26.24 59.3185 26.352 59.7478 26.352ZM65.1672 20.22H68.4572C68.6438 20.22 68.7978 20.2853 68.9192 20.416C69.0498 20.5373 69.1152 20.6913 69.1152 20.878C69.1152 21.0553 69.0498 21.2047 68.9192 21.326C68.7978 21.4473 68.6438 21.508 68.4572 21.508H65.1672C64.9805 21.508 64.8218 21.4473 64.6912 21.326C64.5698 21.1953 64.5092 21.0413 64.5092 20.864C64.5092 20.6773 64.5698 20.5233 64.6912 20.402C64.8218 20.2807 64.9805 20.22 65.1672 20.22ZM66.6372 18.4C66.8425 18.4 67.0105 18.47 67.1412 18.61C67.2718 18.7407 67.3372 18.9087 67.3372 19.114V25.61C67.3372 25.778 67.3652 25.9133 67.4212 26.016C67.4772 26.1187 67.5518 26.1887 67.6452 26.226C67.7478 26.2633 67.8505 26.282 67.9532 26.282C68.0558 26.282 68.1445 26.2633 68.2192 26.226C68.3032 26.1887 68.4012 26.17 68.5132 26.17C68.6252 26.17 68.7278 26.2213 68.8212 26.324C68.9145 26.4267 68.9612 26.5667 68.9612 26.744C68.9612 26.968 68.8398 27.15 68.5972 27.29C68.3545 27.43 68.0932 27.5 67.8132 27.5C67.6545 27.5 67.4678 27.486 67.2532 27.458C67.0385 27.43 66.8285 27.36 66.6232 27.248C66.4272 27.136 66.2638 26.9587 66.1332 26.716C66.0025 26.464 65.9372 26.114 65.9372 25.666V19.114C65.9372 18.9087 66.0025 18.7407 66.1332 18.61C66.2732 18.47 66.4412 18.4 66.6372 18.4ZM71.9815 26.786C71.9815 26.9913 71.9162 27.164 71.7855 27.304C71.6549 27.4347 71.4869 27.5 71.2815 27.5C71.0855 27.5 70.9175 27.4347 70.7775 27.304C70.6469 27.164 70.5815 26.9913 70.5815 26.786V20.794C70.5815 20.5887 70.6469 20.4207 70.7775 20.29C70.9175 20.15 71.0855 20.08 71.2815 20.08C71.4869 20.08 71.6549 20.15 71.7855 20.29C71.9162 20.4207 71.9815 20.5887 71.9815 20.794V26.786ZM71.2675 19.156C70.9969 19.156 70.8009 19.1093 70.6795 19.016C70.5582 18.9133 70.4975 18.7453 70.4975 18.512V18.288C70.4975 18.0547 70.5629 17.8913 70.6935 17.798C70.8242 17.7047 71.0202 17.658 71.2815 17.658C71.5615 17.658 71.7622 17.7093 71.8835 17.812C72.0049 17.9053 72.0655 18.064 72.0655 18.288V18.512C72.0655 18.7547 72.0002 18.9227 71.8695 19.016C71.7482 19.1093 71.5475 19.156 71.2675 19.156ZM77.1268 19.968C77.6308 19.968 78.0788 20.024 78.4708 20.136C78.8628 20.2387 79.1661 20.388 79.3808 20.584C79.6048 20.7707 79.7168 20.99 79.7168 21.242C79.7168 21.4007 79.6701 21.55 79.5768 21.69C79.4834 21.8207 79.3434 21.886 79.1568 21.886C79.0261 21.886 78.9141 21.8627 78.8208 21.816C78.7368 21.7693 78.6574 21.7133 78.5828 21.648C78.5081 21.5827 78.4148 21.5173 78.3028 21.452C78.2001 21.396 78.0461 21.3493 77.8408 21.312C77.6448 21.2747 77.4674 21.256 77.3088 21.256C76.8141 21.256 76.3848 21.368 76.0208 21.592C75.6661 21.816 75.3861 22.1193 75.1808 22.502C74.9848 22.8847 74.8868 23.3187 74.8868 23.804C74.8868 24.2893 74.9848 24.7233 75.1808 25.106C75.3861 25.4887 75.6614 25.792 76.0068 26.016C76.3614 26.24 76.7721 26.352 77.2388 26.352C77.5188 26.352 77.7474 26.3333 77.9248 26.296C78.1021 26.2493 78.2561 26.1933 78.3868 26.128C78.5268 26.044 78.6434 25.96 78.7368 25.876C78.8394 25.7827 78.9794 25.736 79.1568 25.736C79.3621 25.736 79.5161 25.8013 79.6188 25.932C79.7308 26.0533 79.7868 26.2073 79.7868 26.394C79.7868 26.5993 79.6608 26.8 79.4088 26.996C79.1661 27.1827 78.8394 27.3367 78.4288 27.458C78.0181 27.5793 77.5654 27.64 77.0708 27.64C76.3428 27.64 75.7081 27.472 75.1668 27.136C74.6348 26.8 74.2194 26.3427 73.9208 25.764C73.6314 25.1853 73.4868 24.532 73.4868 23.804C73.4868 23.0667 73.6408 22.4133 73.9488 21.844C74.2568 21.2653 74.6861 20.808 75.2368 20.472C75.7874 20.136 76.4174 19.968 77.1268 19.968ZM84.587 26.352C84.503 26.2213 84.4657 26.072 84.475 25.904C84.4843 25.7267 84.5823 25.5773 84.769 25.456C84.8997 25.372 85.035 25.3393 85.175 25.358C85.3243 25.3673 85.4643 25.4373 85.595 25.568C85.8563 25.8573 86.1457 26.086 86.463 26.254C86.7897 26.422 87.1817 26.506 87.639 26.506C87.8257 26.4967 88.017 26.4687 88.213 26.422C88.409 26.366 88.577 26.2727 88.717 26.142C88.857 26.002 88.927 25.8013 88.927 25.54C88.927 25.3067 88.8523 25.12 88.703 24.98C88.5537 24.84 88.3577 24.728 88.115 24.644C87.8723 24.5507 87.611 24.4667 87.331 24.392C87.0323 24.308 86.729 24.2147 86.421 24.112C86.1223 24.0093 85.8517 23.8787 85.609 23.72C85.3663 23.552 85.1657 23.3373 85.007 23.076C84.8577 22.8147 84.783 22.4927 84.783 22.11C84.783 21.6713 84.9043 21.2933 85.147 20.976C85.399 20.6587 85.721 20.4113 86.113 20.234C86.5143 20.0567 86.9483 19.968 87.415 19.968C87.6857 19.968 87.9703 20.0053 88.269 20.08C88.5677 20.1453 88.857 20.2527 89.137 20.402C89.417 20.5513 89.6597 20.7473 89.865 20.99C89.9583 21.1113 90.0097 21.256 90.019 21.424C90.0377 21.592 89.963 21.7413 89.795 21.872C89.683 21.9653 89.5477 22.0073 89.389 21.998C89.2303 21.9887 89.0997 21.9373 88.997 21.844C88.8197 21.62 88.591 21.4473 88.311 21.326C88.031 21.1953 87.7137 21.13 87.359 21.13C87.1817 21.13 86.995 21.158 86.799 21.214C86.6123 21.2607 86.4537 21.3493 86.323 21.48C86.1923 21.6107 86.127 21.802 86.127 22.054C86.127 22.2873 86.2017 22.474 86.351 22.614C86.5097 22.754 86.715 22.8707 86.967 22.964C87.219 23.0573 87.4943 23.1413 87.793 23.216C88.0823 23.2907 88.367 23.3793 88.647 23.482C88.9363 23.5847 89.193 23.72 89.417 23.888C89.6503 24.0467 89.837 24.2567 89.977 24.518C90.1263 24.77 90.201 25.092 90.201 25.484C90.201 25.9413 90.0657 26.3333 89.795 26.66C89.5337 26.9773 89.1977 27.22 88.787 27.388C88.3857 27.556 87.961 27.64 87.513 27.64C86.981 27.64 86.449 27.5467 85.917 27.36C85.3943 27.164 84.951 26.828 84.587 26.352ZM93.0226 26.786C93.0226 26.9913 92.9572 27.164 92.8266 27.304C92.6959 27.4347 92.5279 27.5 92.3226 27.5C92.1266 27.5 91.9586 27.4347 91.8186 27.304C91.6879 27.164 91.6226 26.9913 91.6226 26.786V20.794C91.6226 20.5887 91.6879 20.4207 91.8186 20.29C91.9586 20.15 92.1266 20.08 92.3226 20.08C92.5279 20.08 92.6959 20.15 92.8266 20.29C92.9572 20.4207 93.0226 20.5887 93.0226 20.794V26.786ZM92.3086 19.156C92.0379 19.156 91.8419 19.1093 91.7206 19.016C91.5992 18.9133 91.5386 18.7453 91.5386 18.512V18.288C91.5386 18.0547 91.6039 17.8913 91.7346 17.798C91.8652 17.7047 92.0612 17.658 92.3226 17.658C92.6026 17.658 92.8032 17.7093 92.9246 17.812C93.0459 17.9053 93.1066 18.064 93.1066 18.288V18.512C93.1066 18.7547 93.0412 18.9227 92.9106 19.016C92.7892 19.1093 92.5886 19.156 92.3086 19.156ZM94.8078 20.22H98.0978C98.2844 20.22 98.4384 20.2853 98.5598 20.416C98.6904 20.5373 98.7558 20.6913 98.7558 20.878C98.7558 21.0553 98.6904 21.2047 98.5598 21.326C98.4384 21.4473 98.2844 21.508 98.0978 21.508H94.8078C94.6211 21.508 94.4624 21.4473 94.3318 21.326C94.2104 21.1953 94.1498 21.0413 94.1498 20.864C94.1498 20.6773 94.2104 20.5233 94.3318 20.402C94.4624 20.2807 94.6211 20.22 94.8078 20.22ZM96.2778 18.4C96.4831 18.4 96.6511 18.47 96.7818 18.61C96.9124 18.7407 96.9778 18.9087 96.9778 19.114V25.61C96.9778 25.778 97.0058 25.9133 97.0618 26.016C97.1178 26.1187 97.1924 26.1887 97.2858 26.226C97.3884 26.2633 97.4911 26.282 97.5938 26.282C97.6964 26.282 97.7851 26.2633 97.8598 26.226C97.9438 26.1887 98.0418 26.17 98.1538 26.17C98.2658 26.17 98.3684 26.2213 98.4618 26.324C98.5551 26.4267 98.6018 26.5667 98.6018 26.744C98.6018 26.968 98.4804 27.15 98.2378 27.29C97.9951 27.43 97.7338 27.5 97.4538 27.5C97.2951 27.5 97.1084 27.486 96.8938 27.458C96.6791 27.43 96.4691 27.36 96.2638 27.248C96.0678 27.136 95.9044 26.9587 95.7738 26.716C95.6431 26.464 95.5778 26.114 95.5778 25.666V19.114C95.5778 18.9087 95.6431 18.7407 95.7738 18.61C95.9138 18.47 96.0818 18.4 96.2778 18.4ZM103.668 27.64C102.893 27.64 102.221 27.4813 101.652 27.164C101.082 26.8373 100.639 26.394 100.322 25.834C100.014 25.2647 99.8598 24.616 99.8598 23.888C99.8598 23.0667 100.023 22.3667 100.35 21.788C100.686 21.2 101.12 20.752 101.652 20.444C102.184 20.1267 102.748 19.968 103.346 19.968C103.803 19.968 104.237 20.0613 104.648 20.248C105.058 20.4253 105.422 20.6773 105.74 21.004C106.066 21.3213 106.323 21.6993 106.51 22.138C106.696 22.5673 106.794 23.0387 106.804 23.552C106.794 23.7387 106.72 23.8927 106.58 24.014C106.44 24.1353 106.276 24.196 106.09 24.196H100.644L100.308 23.006H105.572L105.306 23.258V22.908C105.287 22.5813 105.18 22.2967 104.984 22.054C104.788 21.802 104.545 21.6107 104.256 21.48C103.966 21.34 103.663 21.27 103.346 21.27C103.066 21.27 102.795 21.3167 102.534 21.41C102.282 21.494 102.053 21.634 101.848 21.83C101.652 22.026 101.493 22.2873 101.372 22.614C101.26 22.9313 101.204 23.328 101.204 23.804C101.204 24.3173 101.311 24.7653 101.526 25.148C101.74 25.5307 102.03 25.8293 102.394 26.044C102.758 26.2493 103.159 26.352 103.598 26.352C103.943 26.352 104.228 26.3193 104.452 26.254C104.676 26.1793 104.862 26.0907 105.012 25.988C105.161 25.8853 105.292 25.7873 105.404 25.694C105.544 25.61 105.684 25.568 105.824 25.568C105.992 25.568 106.132 25.6287 106.244 25.75C106.356 25.862 106.412 25.9973 106.412 26.156C106.412 26.3613 106.309 26.548 106.104 26.716C105.852 26.9587 105.502 27.1733 105.054 27.36C104.615 27.5467 104.153 27.64 103.668 27.64ZM115.349 19.968C115.75 19.968 116.119 20.0333 116.455 20.164C116.791 20.2947 117.08 20.4627 117.323 20.668C117.575 20.864 117.771 21.0693 117.911 21.284C118.051 21.4987 118.121 21.6853 118.121 21.844L117.799 21.858V20.738C117.799 20.542 117.864 20.374 117.995 20.234C118.125 20.094 118.293 20.024 118.499 20.024C118.704 20.024 118.872 20.094 119.003 20.234C119.133 20.3647 119.199 20.5327 119.199 20.738V26.912C119.199 27.7053 119.031 28.3493 118.695 28.844C118.359 29.348 117.911 29.7167 117.351 29.95C116.8 30.1833 116.193 30.3 115.531 30.3C115.297 30.3 115.022 30.2673 114.705 30.202C114.387 30.146 114.093 30.076 113.823 29.992C113.561 29.908 113.379 29.824 113.277 29.74C113.062 29.628 112.917 29.4973 112.843 29.348C112.777 29.1987 112.777 29.0493 112.843 28.9C112.936 28.6947 113.062 28.5687 113.221 28.522C113.379 28.4753 113.561 28.4893 113.767 28.564C113.86 28.592 114.005 28.6433 114.201 28.718C114.397 28.7927 114.616 28.858 114.859 28.914C115.101 28.9793 115.33 29.012 115.545 29.012C116.291 29.012 116.851 28.8393 117.225 28.494C117.607 28.1487 117.799 27.6773 117.799 27.08V25.82L117.953 25.918C117.925 26.114 117.836 26.3147 117.687 26.52C117.547 26.716 117.36 26.898 117.127 27.066C116.893 27.234 116.623 27.374 116.315 27.486C116.016 27.5887 115.708 27.64 115.391 27.64C114.728 27.64 114.135 27.4767 113.613 27.15C113.09 26.814 112.675 26.3613 112.367 25.792C112.059 25.2133 111.905 24.5507 111.905 23.804C111.905 23.0573 112.059 22.3993 112.367 21.83C112.675 21.2513 113.085 20.7987 113.599 20.472C114.121 20.136 114.705 19.968 115.349 19.968ZM115.559 21.256C115.101 21.256 114.7 21.368 114.355 21.592C114.009 21.816 113.739 22.1193 113.543 22.502C113.347 22.8847 113.249 23.3187 113.249 23.804C113.249 24.2893 113.347 24.7233 113.543 25.106C113.739 25.4887 114.009 25.792 114.355 26.016C114.7 26.24 115.101 26.352 115.559 26.352C116.016 26.352 116.417 26.2447 116.763 26.03C117.108 25.806 117.379 25.5027 117.575 25.12C117.771 24.728 117.869 24.2893 117.869 23.804C117.869 23.3187 117.771 22.8847 117.575 22.502C117.379 22.11 117.108 21.8067 116.763 21.592C116.417 21.368 116.016 21.256 115.559 21.256ZM124.299 27.64C123.524 27.64 122.852 27.4813 122.283 27.164C121.713 26.8373 121.27 26.394 120.953 25.834C120.645 25.2647 120.491 24.616 120.491 23.888C120.491 23.0667 120.654 22.3667 120.981 21.788C121.317 21.2 121.751 20.752 122.283 20.444C122.815 20.1267 123.379 19.968 123.977 19.968C124.434 19.968 124.868 20.0613 125.279 20.248C125.689 20.4253 126.053 20.6773 126.371 21.004C126.697 21.3213 126.954 21.6993 127.141 22.138C127.327 22.5673 127.425 23.0387 127.435 23.552C127.425 23.7387 127.351 23.8927 127.211 24.014C127.071 24.1353 126.907 24.196 126.721 24.196H121.275L120.939 23.006H126.203L125.937 23.258V22.908C125.918 22.5813 125.811 22.2967 125.615 22.054C125.419 21.802 125.176 21.6107 124.887 21.48C124.597 21.34 124.294 21.27 123.977 21.27C123.697 21.27 123.426 21.3167 123.165 21.41C122.913 21.494 122.684 21.634 122.479 21.83C122.283 22.026 122.124 22.2873 122.003 22.614C121.891 22.9313 121.835 23.328 121.835 23.804C121.835 24.3173 121.942 24.7653 122.157 25.148C122.371 25.5307 122.661 25.8293 123.025 26.044C123.389 26.2493 123.79 26.352 124.229 26.352C124.574 26.352 124.859 26.3193 125.083 26.254C125.307 26.1793 125.493 26.0907 125.643 25.988C125.792 25.8853 125.923 25.7873 126.035 25.694C126.175 25.61 126.315 25.568 126.455 25.568C126.623 25.568 126.763 25.6287 126.875 25.75C126.987 25.862 127.043 25.9973 127.043 26.156C127.043 26.3613 126.94 26.548 126.735 26.716C126.483 26.9587 126.133 27.1733 125.685 27.36C125.246 27.5467 124.784 27.64 124.299 27.64ZM132.811 19.968C133.474 19.968 133.987 20.108 134.351 20.388C134.715 20.6587 134.967 21.0273 135.107 21.494C135.256 21.9513 135.331 22.4647 135.331 23.034V26.786C135.331 26.9913 135.261 27.164 135.121 27.304C134.99 27.4347 134.827 27.5 134.631 27.5C134.426 27.5 134.258 27.4347 134.127 27.304C133.996 27.164 133.931 26.9913 133.931 26.786V23.048C133.931 22.712 133.884 22.4133 133.791 22.152C133.698 21.8813 133.534 21.6667 133.301 21.508C133.077 21.34 132.76 21.256 132.349 21.256C131.966 21.256 131.63 21.34 131.341 21.508C131.052 21.6667 130.823 21.8813 130.655 22.152C130.496 22.4133 130.417 22.712 130.417 23.048V26.786C130.417 26.9913 130.347 27.164 130.207 27.304C130.076 27.4347 129.913 27.5 129.717 27.5C129.512 27.5 129.344 27.4347 129.213 27.304C129.082 27.164 129.017 26.9913 129.017 26.786V20.85C129.017 20.6447 129.082 20.4767 129.213 20.346C129.344 20.206 129.512 20.136 129.717 20.136C129.913 20.136 130.076 20.206 130.207 20.346C130.347 20.4767 130.417 20.6447 130.417 20.85V21.634L130.165 21.774C130.23 21.5687 130.342 21.3633 130.501 21.158C130.669 20.9433 130.87 20.7473 131.103 20.57C131.336 20.3833 131.598 20.2387 131.887 20.136C132.176 20.024 132.484 19.968 132.811 19.968ZM140.705 27.64C139.93 27.64 139.258 27.4813 138.689 27.164C138.12 26.8373 137.676 26.394 137.359 25.834C137.051 25.2647 136.897 24.616 136.897 23.888C136.897 23.0667 137.06 22.3667 137.387 21.788C137.723 21.2 138.157 20.752 138.689 20.444C139.221 20.1267 139.786 19.968 140.383 19.968C140.84 19.968 141.274 20.0613 141.685 20.248C142.096 20.4253 142.46 20.6773 142.777 21.004C143.104 21.3213 143.36 21.6993 143.547 22.138C143.734 22.5673 143.832 23.0387 143.841 23.552C143.832 23.7387 143.757 23.8927 143.617 24.014C143.477 24.1353 143.314 24.196 143.127 24.196H137.681L137.345 23.006H142.609L142.343 23.258V22.908C142.324 22.5813 142.217 22.2967 142.021 22.054C141.825 21.802 141.582 21.6107 141.293 21.48C141.004 21.34 140.7 21.27 140.383 21.27C140.103 21.27 139.832 21.3167 139.571 21.41C139.319 21.494 139.09 21.634 138.885 21.83C138.689 22.026 138.53 22.2873 138.409 22.614C138.297 22.9313 138.241 23.328 138.241 23.804C138.241 24.3173 138.348 24.7653 138.563 25.148C138.778 25.5307 139.067 25.8293 139.431 26.044C139.795 26.2493 140.196 26.352 140.635 26.352C140.98 26.352 141.265 26.3193 141.489 26.254C141.713 26.1793 141.9 26.0907 142.049 25.988C142.198 25.8853 142.329 25.7873 142.441 25.694C142.581 25.61 142.721 25.568 142.861 25.568C143.029 25.568 143.169 25.6287 143.281 25.75C143.393 25.862 143.449 25.9973 143.449 26.156C143.449 26.3613 143.346 26.548 143.141 26.716C142.889 26.9587 142.539 27.1733 142.091 27.36C141.652 27.5467 141.19 27.64 140.705 27.64ZM146.123 27.5C145.918 27.5 145.75 27.4347 145.619 27.304C145.489 27.164 145.423 26.9913 145.423 26.786V20.85C145.423 20.6447 145.489 20.4767 145.619 20.346C145.75 20.206 145.918 20.136 146.123 20.136C146.319 20.136 146.483 20.206 146.613 20.346C146.753 20.4767 146.823 20.6447 146.823 20.85V22.418L146.683 21.816C146.758 21.5547 146.87 21.312 147.019 21.088C147.178 20.864 147.365 20.668 147.579 20.5C147.794 20.332 148.032 20.2013 148.293 20.108C148.564 20.0147 148.844 19.968 149.133 19.968C149.376 19.968 149.586 20.0333 149.763 20.164C149.941 20.2947 150.029 20.458 150.029 20.654C150.029 20.906 149.964 21.0927 149.833 21.214C149.703 21.326 149.558 21.382 149.399 21.382C149.259 21.382 149.124 21.354 148.993 21.298C148.863 21.2327 148.709 21.2 148.531 21.2C148.335 21.2 148.135 21.2513 147.929 21.354C147.724 21.4567 147.537 21.6107 147.369 21.816C147.201 22.012 147.066 22.2453 146.963 22.516C146.87 22.7867 146.823 23.09 146.823 23.426V26.786C146.823 26.9913 146.753 27.164 146.613 27.304C146.483 27.4347 146.319 27.5 146.123 27.5ZM157.145 20.024C157.35 20.024 157.518 20.094 157.649 20.234C157.78 20.3647 157.845 20.5327 157.845 20.738V26.786C157.845 26.9913 157.78 27.164 157.649 27.304C157.518 27.4347 157.35 27.5 157.145 27.5C156.949 27.5 156.781 27.4347 156.641 27.304C156.51 27.164 156.445 26.9913 156.445 26.786V25.778L156.739 25.82C156.739 25.988 156.669 26.1747 156.529 26.38C156.398 26.5853 156.216 26.786 155.983 26.982C155.75 27.1687 155.474 27.3273 155.157 27.458C154.84 27.5793 154.499 27.64 154.135 27.64C153.491 27.64 152.912 27.4767 152.399 27.15C151.886 26.814 151.48 26.3567 151.181 25.778C150.882 25.1993 150.733 24.5413 150.733 23.804C150.733 23.048 150.882 22.3853 151.181 21.816C151.48 21.2373 151.881 20.7847 152.385 20.458C152.898 20.1313 153.468 19.968 154.093 19.968C154.494 19.968 154.863 20.0333 155.199 20.164C155.544 20.2947 155.843 20.4627 156.095 20.668C156.347 20.8733 156.538 21.0927 156.669 21.326C156.809 21.55 156.879 21.7647 156.879 21.97L156.445 22.012V20.738C156.445 20.542 156.51 20.374 156.641 20.234C156.781 20.094 156.949 20.024 157.145 20.024ZM154.289 26.352C154.728 26.352 155.115 26.24 155.451 26.016C155.787 25.792 156.048 25.4887 156.235 25.106C156.422 24.714 156.515 24.28 156.515 23.804C156.515 23.3187 156.422 22.8847 156.235 22.502C156.048 22.1193 155.787 21.816 155.451 21.592C155.115 21.368 154.728 21.256 154.289 21.256C153.86 21.256 153.477 21.368 153.141 21.592C152.814 21.816 152.553 22.1193 152.357 22.502C152.17 22.8847 152.077 23.3187 152.077 23.804C152.077 24.28 152.17 24.714 152.357 25.106C152.553 25.4887 152.814 25.792 153.141 26.016C153.477 26.24 153.86 26.352 154.289 26.352ZM159.708 20.22H162.998C163.185 20.22 163.339 20.2853 163.46 20.416C163.591 20.5373 163.656 20.6913 163.656 20.878C163.656 21.0553 163.591 21.2047 163.46 21.326C163.339 21.4473 163.185 21.508 162.998 21.508H159.708C159.522 21.508 159.363 21.4473 159.232 21.326C159.111 21.1953 159.05 21.0413 159.05 20.864C159.05 20.6773 159.111 20.5233 159.232 20.402C159.363 20.2807 159.522 20.22 159.708 20.22ZM161.178 18.4C161.384 18.4 161.552 18.47 161.682 18.61C161.813 18.7407 161.878 18.9087 161.878 19.114V25.61C161.878 25.778 161.906 25.9133 161.962 26.016C162.018 26.1187 162.093 26.1887 162.186 26.226C162.289 26.2633 162.392 26.282 162.494 26.282C162.597 26.282 162.686 26.2633 162.76 26.226C162.844 26.1887 162.942 26.17 163.054 26.17C163.166 26.17 163.269 26.2213 163.362 26.324C163.456 26.4267 163.502 26.5667 163.502 26.744C163.502 26.968 163.381 27.15 163.138 27.29C162.896 27.43 162.634 27.5 162.354 27.5C162.196 27.5 162.009 27.486 161.794 27.458C161.58 27.43 161.37 27.36 161.164 27.248C160.968 27.136 160.805 26.9587 160.674 26.716C160.544 26.464 160.478 26.114 160.478 25.666V19.114C160.478 18.9087 160.544 18.7407 160.674 18.61C160.814 18.47 160.982 18.4 161.178 18.4ZM172.194 23.818C172.194 24.5647 172.031 25.2273 171.704 25.806C171.378 26.3753 170.934 26.8233 170.374 27.15C169.814 27.4767 169.184 27.64 168.484 27.64C167.784 27.64 167.154 27.4767 166.594 27.15C166.034 26.8233 165.586 26.3753 165.25 25.806C164.924 25.2273 164.76 24.5647 164.76 23.818C164.76 23.062 164.924 22.3993 165.25 21.83C165.586 21.2513 166.034 20.7987 166.594 20.472C167.154 20.136 167.784 19.968 168.484 19.968C169.184 19.968 169.814 20.136 170.374 20.472C170.934 20.7987 171.378 21.2513 171.704 21.83C172.031 22.3993 172.194 23.062 172.194 23.818ZM170.794 23.818C170.794 23.3047 170.692 22.8613 170.486 22.488C170.281 22.1053 170.001 21.8067 169.646 21.592C169.301 21.368 168.914 21.256 168.484 21.256C168.055 21.256 167.663 21.368 167.308 21.592C166.954 21.8067 166.674 22.1053 166.468 22.488C166.263 22.8613 166.16 23.3047 166.16 23.818C166.16 24.3127 166.263 24.7513 166.468 25.134C166.674 25.5167 166.954 25.8153 167.308 26.03C167.663 26.2447 168.055 26.352 168.484 26.352C168.914 26.352 169.301 26.2447 169.646 26.03C170.001 25.8153 170.281 25.5167 170.486 25.134C170.692 24.7513 170.794 24.3127 170.794 23.818ZM174.479 27.5C174.273 27.5 174.105 27.4347 173.975 27.304C173.844 27.164 173.779 26.9913 173.779 26.786V20.85C173.779 20.6447 173.844 20.4767 173.975 20.346C174.105 20.206 174.273 20.136 174.479 20.136C174.675 20.136 174.838 20.206 174.969 20.346C175.109 20.4767 175.179 20.6447 175.179 20.85V22.418L175.039 21.816C175.113 21.5547 175.225 21.312 175.375 21.088C175.533 20.864 175.72 20.668 175.935 20.5C176.149 20.332 176.387 20.2013 176.649 20.108C176.919 20.0147 177.199 19.968 177.489 19.968C177.731 19.968 177.941 20.0333 178.119 20.164C178.296 20.2947 178.385 20.458 178.385 20.654C178.385 20.906 178.319 21.0927 178.189 21.214C178.058 21.326 177.913 21.382 177.755 21.382C177.615 21.382 177.479 21.354 177.349 21.298C177.218 21.2327 177.064 21.2 176.887 21.2C176.691 21.2 176.49 21.2513 176.285 21.354C176.079 21.4567 175.893 21.6107 175.725 21.816C175.557 22.012 175.421 22.2453 175.319 22.516C175.225 22.7867 175.179 23.09 175.179 23.426V26.786C175.179 26.9913 175.109 27.164 174.969 27.304C174.838 27.4347 174.675 27.5 174.479 27.5Z" fill="#4A4A4A"/>
</svg>
