<svg width="84" height="44" viewBox="0 0 84 44" fill="none" xmlns="http://www.w3.org/2000/svg">
<rect width="83.8117" height="44" rx="10" fill="white"/>
<g clip-path="url(#clip0_4281_6125)">
<path d="M22.0319 6L15.7893 15.3607V21.2946H11.963V15.3607L6 6H10.3005L14.0922 12.0272L17.915 6H22.0319Z" fill="black"/>
<path d="M28.4572 17.9291H21.5316L20.123 21.3303H17.0562L23.5412 6.03564H26.6781L32.9 21.3303H29.6228L28.4572 17.9291H28.4572ZM27.3068 14.8755L25.1837 9.26279L22.8151 14.8755H27.3068Z" fill="#CB171E"/>
<path d="M11.9629 23.0098V37.9999H15.1791V27.6598L18.545 34.6099H21.0766L24.5575 27.4155V37.9968H27.6429V23.0098H23.4301L19.6922 29.7889L16.1321 23.0098H11.9629Z" fill="black"/>
<path d="M40.8116 34.7424H32.9V23.0063H29.623V37.932H40.8116V34.7425V34.7424Z" fill="black"/>
</g>
<path d="M52.0635 17.658C52.2409 17.658 52.3995 17.728 52.5395 17.868C52.6889 17.9987 52.7635 18.1667 52.7635 18.372C52.7635 18.4467 52.7495 18.5213 52.7215 18.596C52.7029 18.6613 52.6702 18.7313 52.6235 18.806L49.4175 23.342L49.6415 22.516V26.786C49.6415 26.9913 49.5715 27.164 49.4315 27.304C49.2915 27.4347 49.1329 27.5 48.9555 27.5C48.7595 27.5 48.5915 27.4347 48.4515 27.304C48.3209 27.164 48.2555 26.9913 48.2555 26.786V22.628L48.3535 23.034L45.2595 18.904C45.1849 18.8013 45.1335 18.708 45.1055 18.624C45.0775 18.5307 45.0635 18.442 45.0635 18.358C45.0635 18.1527 45.1429 17.9847 45.3015 17.854C45.4695 17.7233 45.6375 17.658 45.8055 17.658C46.0295 17.658 46.2209 17.7653 46.3795 17.98L49.1795 21.816L48.8435 21.774L51.4755 17.994C51.6342 17.77 51.8302 17.658 52.0635 17.658ZM59.5501 20.024C59.7555 20.024 59.9235 20.094 60.0541 20.234C60.1848 20.3647 60.2501 20.5327 60.2501 20.738V26.786C60.2501 26.9913 60.1848 27.164 60.0541 27.304C59.9235 27.4347 59.7555 27.5 59.5501 27.5C59.3541 27.5 59.1861 27.4347 59.0461 27.304C58.9155 27.164 58.8501 26.9913 58.8501 26.786V25.778L59.1441 25.82C59.1441 25.988 59.0741 26.1747 58.9341 26.38C58.8035 26.5853 58.6215 26.786 58.3881 26.982C58.1548 27.1687 57.8795 27.3273 57.5621 27.458C57.2448 27.5793 56.9041 27.64 56.5401 27.64C55.8961 27.64 55.3175 27.4767 54.8041 27.15C54.2908 26.814 53.8848 26.3567 53.5861 25.778C53.2875 25.1993 53.1381 24.5413 53.1381 23.804C53.1381 23.048 53.2875 22.3853 53.5861 21.816C53.8848 21.2373 54.2861 20.7847 54.7901 20.458C55.3035 20.1313 55.8728 19.968 56.4981 19.968C56.8995 19.968 57.2681 20.0333 57.6041 20.164C57.9495 20.2947 58.2481 20.4627 58.5001 20.668C58.7521 20.8733 58.9435 21.0927 59.0741 21.326C59.2141 21.55 59.2841 21.7647 59.2841 21.97L58.8501 22.012V20.738C58.8501 20.542 58.9155 20.374 59.0461 20.234C59.1861 20.094 59.3541 20.024 59.5501 20.024ZM56.6941 26.352C57.1328 26.352 57.5201 26.24 57.8561 26.016C58.1921 25.792 58.4535 25.4887 58.6401 25.106C58.8268 24.714 58.9201 24.28 58.9201 23.804C58.9201 23.3187 58.8268 22.8847 58.6401 22.502C58.4535 22.1193 58.1921 21.816 57.8561 21.592C57.5201 21.368 57.1328 21.256 56.6941 21.256C56.2648 21.256 55.8821 21.368 55.5461 21.592C55.2195 21.816 54.9581 22.1193 54.7621 22.502C54.5755 22.8847 54.4821 23.3187 54.4821 23.804C54.4821 24.28 54.5755 24.714 54.7621 25.106C54.9581 25.4887 55.2195 25.792 55.5461 26.016C55.8821 26.24 56.2648 26.352 56.6941 26.352ZM65.9074 20.01C66.5981 20.01 67.1301 20.1827 67.5034 20.528C67.8768 20.864 68.1241 21.3213 68.2454 21.9L68.0214 21.83L68.1194 21.606C68.2408 21.3633 68.4228 21.1207 68.6654 20.878C68.9174 20.626 69.2161 20.4207 69.5614 20.262C69.9068 20.094 70.2754 20.01 70.6674 20.01C71.3114 20.01 71.8108 20.15 72.1654 20.43C72.5201 20.7007 72.7674 21.0693 72.9074 21.536C73.0474 21.9933 73.1174 22.5067 73.1174 23.076V26.786C73.1174 26.9913 73.0521 27.164 72.9214 27.304C72.7908 27.4347 72.6228 27.5 72.4174 27.5C72.2214 27.5 72.0534 27.4347 71.9134 27.304C71.7828 27.164 71.7174 26.9913 71.7174 26.786V23.09C71.7174 22.7633 71.6708 22.4647 71.5774 22.194C71.4934 21.9233 71.3394 21.7087 71.1154 21.55C70.9008 21.382 70.6021 21.298 70.2194 21.298C69.8554 21.298 69.5288 21.382 69.2394 21.55C68.9594 21.7087 68.7401 21.9233 68.5814 22.194C68.4228 22.4647 68.3434 22.7633 68.3434 23.09V26.786C68.3434 26.9913 68.2781 27.164 68.1474 27.304C68.0168 27.4347 67.8488 27.5 67.6434 27.5C67.4381 27.5 67.2701 27.4347 67.1394 27.304C67.0088 27.164 66.9434 26.9913 66.9434 26.786V23.076C66.9434 22.7493 66.8968 22.4507 66.8034 22.18C66.7194 21.9093 66.5701 21.6947 66.3554 21.536C66.1408 21.3773 65.8421 21.298 65.4594 21.298C65.0954 21.298 64.7734 21.3773 64.4934 21.536C64.2134 21.6947 63.9941 21.9093 63.8354 22.18C63.6861 22.4507 63.6114 22.7493 63.6114 23.076V26.786C63.6114 26.9913 63.5414 27.164 63.4014 27.304C63.2708 27.4347 63.1074 27.5 62.9114 27.5C62.7061 27.5 62.5381 27.4347 62.4074 27.304C62.2768 27.164 62.2114 26.9913 62.2114 26.786V20.85C62.2114 20.6447 62.2768 20.4767 62.4074 20.346C62.5381 20.206 62.7061 20.136 62.9114 20.136C63.1074 20.136 63.2708 20.206 63.4014 20.346C63.5414 20.4767 63.6114 20.6447 63.6114 20.85V21.676L63.3454 21.83C63.4108 21.6247 63.5181 21.4147 63.6674 21.2C63.8168 20.9853 64.0034 20.7893 64.2274 20.612C64.4608 20.4347 64.7174 20.29 64.9974 20.178C65.2774 20.066 65.5808 20.01 65.9074 20.01ZM76.5887 26.786C76.5887 26.9913 76.5187 27.164 76.3787 27.304C76.248 27.4347 76.0847 27.5 75.8887 27.5C75.6927 27.5 75.5247 27.4347 75.3847 27.304C75.254 27.164 75.1887 26.9913 75.1887 26.786V17.854C75.1887 17.6487 75.2587 17.4807 75.3987 17.35C75.5387 17.21 75.7067 17.14 75.9027 17.14C76.108 17.14 76.2713 17.21 76.3927 17.35C76.5233 17.4807 76.5887 17.6487 76.5887 17.854V26.786Z" fill="#4A4A4A"/>
<defs>
<clipPath id="clip0_4281_6125">
<rect width="34.8117" height="32" fill="white" transform="translate(6 6)"/>
</clipPath>
</defs>
</svg>
