<svg width="20" height="19" viewBox="0 0 20 19" fill="none" xmlns="http://www.w3.org/2000/svg">
<path d="M16.3356 11.795H2.65397C2.52208 11.795 2.41381 11.7602 2.32915 11.6904C2.24449 11.6206 2.20216 11.5314 2.20216 11.4227V0.907312C2.20216 0.649837 2.0967 0.434299 1.88578 0.2607C1.67511 0.0869007 1.41354 0 1.10108 0C0.788617 0 0.52705 0.0869007 0.316377 0.2607C0.105459 0.434299 0 0.649837 0 0.907312V11.4227C0 12.026 0.259243 12.5414 0.777729 12.9688C1.29646 13.396 1.92187 13.6097 2.65397 13.6097H16.3356L11.7052 17.4249C11.4869 17.605 11.3717 17.8187 11.3595 18.0661C11.3472 18.3133 11.455 18.5307 11.6828 18.7184C11.9106 18.9061 12.1722 19 12.4675 19C12.7631 19 13.0248 18.9061 13.2526 18.7184L19.6245 13.4678C19.762 13.3545 19.8589 13.235 19.9152 13.1094C19.9717 12.9838 20 12.8481 20 12.7024C20 12.5566 19.9717 12.4209 19.9152 12.2953C19.8589 12.1697 19.762 12.0502 19.6245 11.9369L13.2298 6.66753C13.0116 6.48768 12.7561 6.39896 12.4635 6.40138C12.1708 6.4036 11.9106 6.49856 11.6828 6.68628C11.4702 6.87399 11.3601 7.0864 11.3525 7.32351C11.3449 7.56083 11.455 7.77334 11.6828 7.96105L16.3356 11.795Z" fill="white"/>
</svg>
