<svg width="105" height="52" viewBox="0 0 105 52" fill="none" xmlns="http://www.w3.org/2000/svg">
<rect x="0.5" y="0.5" width="104" height="51" rx="25.5" stroke="white"/>
<path d="M27.76 20C28.9867 20 29.9133 20.3 30.54 20.9C31.18 21.5 31.5 22.3733 31.5 23.52C31.5 24.12 31.3533 24.6667 31.06 25.16C30.78 25.64 30.36 26.02 29.8 26.3C29.2533 26.58 28.5667 26.7267 27.74 26.74L27.78 26C28.22 26 28.6933 26.06 29.2 26.18C29.72 26.3 30.2067 26.5067 30.66 26.8C31.1133 27.0933 31.4867 27.4933 31.78 28C32.0733 28.4933 32.22 29.1133 32.22 29.86C32.22 30.6733 32.0867 31.3533 31.82 31.9C31.5533 32.4333 31.2 32.8533 30.76 33.16C30.32 33.4667 29.8333 33.6867 29.3 33.82C28.78 33.94 28.2667 34 27.76 34H22.64C22.36 34 22.12 33.9067 21.92 33.72C21.72 33.52 21.62 33.2733 21.62 32.98V21.02C21.62 20.7267 21.72 20.4867 21.92 20.3C22.12 20.1 22.36 20 22.64 20H27.76ZM27.48 21.96H23.54L23.78 21.64V25.94L23.56 25.72H27.52C28 25.7067 28.42 25.5467 28.78 25.24C29.1533 24.92 29.34 24.4533 29.34 23.84C29.34 23.2133 29.1733 22.7467 28.84 22.44C28.5067 22.12 28.0533 21.96 27.48 21.96ZM27.62 27.68H23.64L23.78 27.54V32.26L23.62 32.08H27.74C28.4333 32.08 28.9933 31.9 29.42 31.54C29.8467 31.1667 30.06 30.6067 30.06 29.86C30.06 29.2333 29.9333 28.7667 29.68 28.46C29.4267 28.1533 29.1133 27.9467 28.74 27.84C28.3667 27.7333 27.9933 27.68 27.62 27.68ZM42.3259 23.48C42.6059 23.48 42.8393 23.58 43.0259 23.78C43.2259 23.9667 43.3259 24.2067 43.3259 24.5V29.76C43.3259 31.1467 42.9393 32.2333 42.1659 33.02C41.3926 33.7933 40.2993 34.18 38.8859 34.18C37.4859 34.18 36.3993 33.7933 35.6259 33.02C34.8659 32.2333 34.4859 31.1467 34.4859 29.76V24.5C34.4859 24.2067 34.5793 23.9667 34.7659 23.78C34.9526 23.58 35.1926 23.48 35.4859 23.48C35.7659 23.48 35.9993 23.58 36.1859 23.78C36.3859 23.9667 36.4859 24.2067 36.4859 24.5V29.76C36.4859 30.6267 36.6859 31.2733 37.0859 31.7C37.4993 32.1267 38.0993 32.34 38.8859 32.34C39.6859 32.34 40.2926 32.1267 40.7059 31.7C41.1193 31.2733 41.3259 30.6267 41.3259 29.76V24.5C41.3259 24.2067 41.4193 23.9667 41.6059 23.78C41.7926 23.58 42.0326 23.48 42.3259 23.48ZM45.967 23.6H50.667C50.9337 23.6 51.1537 23.6933 51.327 23.88C51.5137 24.0533 51.607 24.2733 51.607 24.54C51.607 24.7933 51.5137 25.0067 51.327 25.18C51.1537 25.3533 50.9337 25.44 50.667 25.44H45.967C45.7004 25.44 45.4737 25.3533 45.287 25.18C45.1137 24.9933 45.027 24.7733 45.027 24.52C45.027 24.2533 45.1137 24.0333 45.287 23.86C45.4737 23.6867 45.7004 23.6 45.967 23.6ZM48.067 21C48.3604 21 48.6004 21.1 48.787 21.3C48.9737 21.4867 49.067 21.7267 49.067 22.02V31.3C49.067 31.54 49.107 31.7333 49.187 31.88C49.267 32.0267 49.3737 32.1267 49.507 32.18C49.6537 32.2333 49.8004 32.26 49.947 32.26C50.0937 32.26 50.2204 32.2333 50.327 32.18C50.447 32.1267 50.587 32.1 50.747 32.1C50.907 32.1 51.0537 32.1733 51.187 32.32C51.3204 32.4667 51.387 32.6667 51.387 32.92C51.387 33.24 51.2137 33.5 50.867 33.7C50.5204 33.9 50.147 34 49.747 34C49.5204 34 49.2537 33.98 48.947 33.94C48.6404 33.9 48.3404 33.8 48.047 33.64C47.767 33.48 47.5337 33.2267 47.347 32.88C47.1604 32.52 47.067 32.02 47.067 31.38V22.02C47.067 21.7267 47.1604 21.4867 47.347 21.3C47.547 21.1 47.787 21 48.067 21ZM53.6819 23.6H58.3819C58.6485 23.6 58.8685 23.6933 59.0419 23.88C59.2285 24.0533 59.3219 24.2733 59.3219 24.54C59.3219 24.7933 59.2285 25.0067 59.0419 25.18C58.8685 25.3533 58.6485 25.44 58.3819 25.44H53.6819C53.4152 25.44 53.1885 25.3533 53.0019 25.18C52.8285 24.9933 52.7419 24.7733 52.7419 24.52C52.7419 24.2533 52.8285 24.0333 53.0019 23.86C53.1885 23.6867 53.4152 23.6 53.6819 23.6ZM55.7819 21C56.0752 21 56.3152 21.1 56.5019 21.3C56.6885 21.4867 56.7819 21.7267 56.7819 22.02V31.3C56.7819 31.54 56.8219 31.7333 56.9019 31.88C56.9819 32.0267 57.0885 32.1267 57.2219 32.18C57.3685 32.2333 57.5152 32.26 57.6619 32.26C57.8085 32.26 57.9352 32.2333 58.0419 32.18C58.1619 32.1267 58.3019 32.1 58.4619 32.1C58.6219 32.1 58.7685 32.1733 58.9019 32.32C59.0352 32.4667 59.1019 32.6667 59.1019 32.92C59.1019 33.24 58.9285 33.5 58.5819 33.7C58.2352 33.9 57.8619 34 57.4619 34C57.2352 34 56.9685 33.98 56.6619 33.94C56.3552 33.9 56.0552 33.8 55.7619 33.64C55.4819 33.48 55.2485 33.2267 55.0619 32.88C54.8752 32.52 54.7819 32.02 54.7819 31.38V22.02C54.7819 21.7267 54.8752 21.4867 55.0619 21.3C55.2619 21.1 55.5019 21 55.7819 21ZM71.5191 28.74C71.5191 29.8067 71.2857 30.7533 70.8191 31.58C70.3524 32.3933 69.7191 33.0333 68.9191 33.5C68.1191 33.9667 67.2191 34.2 66.2191 34.2C65.2191 34.2 64.3191 33.9667 63.5191 33.5C62.7191 33.0333 62.0791 32.3933 61.5991 31.58C61.1324 30.7533 60.8991 29.8067 60.8991 28.74C60.8991 27.66 61.1324 26.7133 61.5991 25.9C62.0791 25.0733 62.7191 24.4267 63.5191 23.96C64.3191 23.48 65.2191 23.24 66.2191 23.24C67.2191 23.24 68.1191 23.48 68.9191 23.96C69.7191 24.4267 70.3524 25.0733 70.8191 25.9C71.2857 26.7133 71.5191 27.66 71.5191 28.74ZM69.5191 28.74C69.5191 28.0067 69.3724 27.3733 69.0791 26.84C68.7857 26.2933 68.3857 25.8667 67.8791 25.56C67.3857 25.24 66.8324 25.08 66.2191 25.08C65.6057 25.08 65.0457 25.24 64.5391 25.56C64.0324 25.8667 63.6324 26.2933 63.3391 26.84C63.0457 27.3733 62.8991 28.0067 62.8991 28.74C62.8991 29.4467 63.0457 30.0733 63.3391 30.62C63.6324 31.1667 64.0324 31.5933 64.5391 31.9C65.0457 32.2067 65.6057 32.36 66.2191 32.36C66.8324 32.36 67.3857 32.2067 67.8791 31.9C68.3857 31.5933 68.7857 31.1667 69.0791 30.62C69.3724 30.0733 69.5191 29.4467 69.5191 28.74ZM79.2028 23.24C80.1495 23.24 80.8828 23.44 81.4028 23.84C81.9228 24.2267 82.2828 24.7533 82.4828 25.42C82.6961 26.0733 82.8028 26.8067 82.8028 27.62V32.98C82.8028 33.2733 82.7028 33.52 82.5028 33.72C82.3161 33.9067 82.0828 34 81.8028 34C81.5095 34 81.2695 33.9067 81.0828 33.72C80.8961 33.52 80.8028 33.2733 80.8028 32.98V27.64C80.8028 27.16 80.7361 26.7333 80.6028 26.36C80.4695 25.9733 80.2361 25.6667 79.9028 25.44C79.5828 25.2 79.1295 25.08 78.5428 25.08C77.9961 25.08 77.5161 25.2 77.1028 25.44C76.6895 25.6667 76.3628 25.9733 76.1228 26.36C75.8961 26.7333 75.7828 27.16 75.7828 27.64V32.98C75.7828 33.2733 75.6828 33.52 75.4828 33.72C75.2961 33.9067 75.0628 34 74.7828 34C74.4895 34 74.2495 33.9067 74.0628 33.72C73.8761 33.52 73.7828 33.2733 73.7828 32.98V24.5C73.7828 24.2067 73.8761 23.9667 74.0628 23.78C74.2495 23.58 74.4895 23.48 74.7828 23.48C75.0628 23.48 75.2961 23.58 75.4828 23.78C75.6828 23.9667 75.7828 24.2067 75.7828 24.5V25.62L75.4228 25.82C75.5161 25.5267 75.6761 25.2333 75.9028 24.94C76.1428 24.6333 76.4295 24.3533 76.7628 24.1C77.0961 23.8333 77.4695 23.6267 77.8828 23.48C78.2961 23.32 78.7361 23.24 79.2028 23.24Z" fill="white"/>
</svg>
